%TF.GenerationSoftware,KiCad,Pcbnew,7.0.6*%
%TF.CreationDate,2023-08-27T19:49:04-04:00*%
%TF.ProjectId,miniclick,6d696e69-636c-4696-936b-2e6b69636164,rev?*%
%TF.SameCoordinates,Original*%
%TF.FileFunction,Drillmap*%
%TF.FilePolarity,Positive*%
%FSLAX45Y45*%
G04 Gerber Fmt 4.5, Leading zero omitted, Abs format (unit mm)*
G04 Created by KiCad (PCBNEW 7.0.6) date 2023-08-27 19:49:04*
%MOMM*%
%LPD*%
G01*
G04 APERTURE LIST*
%ADD10C,0.100000*%
%ADD11C,0.200000*%
G04 APERTURE END LIST*
D10*
X15600000Y-10700000D02*
G75*
G03*
X15800000Y-10500000I0J200000D01*
G01*
X15800000Y-8900000D02*
X15800000Y-10500000D01*
X15500000Y-8700000D02*
X15600000Y-8700000D01*
X14000000Y-8700000D02*
G75*
G03*
X13800000Y-8900000I0J-200000D01*
G01*
X15800000Y-8900000D02*
G75*
G03*
X15600000Y-8700000I-200000J0D01*
G01*
X13800000Y-10500000D02*
X13800000Y-8900000D01*
X15500000Y-8700000D02*
X14000000Y-8700000D01*
X13800000Y-10500000D02*
G75*
G03*
X14000000Y-10700000I200000J0D01*
G01*
X15600000Y-10700000D02*
X14000000Y-10700000D01*
D11*
X14055777Y-11016484D02*
X14055777Y-10816484D01*
X14055777Y-10816484D02*
X14103396Y-10816484D01*
X14103396Y-10816484D02*
X14131967Y-10826008D01*
X14131967Y-10826008D02*
X14151015Y-10845055D01*
X14151015Y-10845055D02*
X14160539Y-10864103D01*
X14160539Y-10864103D02*
X14170062Y-10902198D01*
X14170062Y-10902198D02*
X14170062Y-10930770D01*
X14170062Y-10930770D02*
X14160539Y-10968865D01*
X14160539Y-10968865D02*
X14151015Y-10987912D01*
X14151015Y-10987912D02*
X14131967Y-11006960D01*
X14131967Y-11006960D02*
X14103396Y-11016484D01*
X14103396Y-11016484D02*
X14055777Y-11016484D01*
X14255777Y-11016484D02*
X14255777Y-10883150D01*
X14255777Y-10921246D02*
X14265301Y-10902198D01*
X14265301Y-10902198D02*
X14274824Y-10892674D01*
X14274824Y-10892674D02*
X14293872Y-10883150D01*
X14293872Y-10883150D02*
X14312920Y-10883150D01*
X14379586Y-11016484D02*
X14379586Y-10883150D01*
X14379586Y-10816484D02*
X14370062Y-10826008D01*
X14370062Y-10826008D02*
X14379586Y-10835531D01*
X14379586Y-10835531D02*
X14389110Y-10826008D01*
X14389110Y-10826008D02*
X14379586Y-10816484D01*
X14379586Y-10816484D02*
X14379586Y-10835531D01*
X14503396Y-11016484D02*
X14484348Y-11006960D01*
X14484348Y-11006960D02*
X14474824Y-10987912D01*
X14474824Y-10987912D02*
X14474824Y-10816484D01*
X14608158Y-11016484D02*
X14589110Y-11006960D01*
X14589110Y-11006960D02*
X14579586Y-10987912D01*
X14579586Y-10987912D02*
X14579586Y-10816484D01*
X14836729Y-11016484D02*
X14836729Y-10816484D01*
X14836729Y-10816484D02*
X14903396Y-10959341D01*
X14903396Y-10959341D02*
X14970062Y-10816484D01*
X14970062Y-10816484D02*
X14970062Y-11016484D01*
X15151015Y-11016484D02*
X15151015Y-10911722D01*
X15151015Y-10911722D02*
X15141491Y-10892674D01*
X15141491Y-10892674D02*
X15122443Y-10883150D01*
X15122443Y-10883150D02*
X15084348Y-10883150D01*
X15084348Y-10883150D02*
X15065301Y-10892674D01*
X15151015Y-11006960D02*
X15131967Y-11016484D01*
X15131967Y-11016484D02*
X15084348Y-11016484D01*
X15084348Y-11016484D02*
X15065301Y-11006960D01*
X15065301Y-11006960D02*
X15055777Y-10987912D01*
X15055777Y-10987912D02*
X15055777Y-10968865D01*
X15055777Y-10968865D02*
X15065301Y-10949817D01*
X15065301Y-10949817D02*
X15084348Y-10940293D01*
X15084348Y-10940293D02*
X15131967Y-10940293D01*
X15131967Y-10940293D02*
X15151015Y-10930770D01*
X15246253Y-10883150D02*
X15246253Y-11083150D01*
X15246253Y-10892674D02*
X15265301Y-10883150D01*
X15265301Y-10883150D02*
X15303396Y-10883150D01*
X15303396Y-10883150D02*
X15322443Y-10892674D01*
X15322443Y-10892674D02*
X15331967Y-10902198D01*
X15331967Y-10902198D02*
X15341491Y-10921246D01*
X15341491Y-10921246D02*
X15341491Y-10978389D01*
X15341491Y-10978389D02*
X15331967Y-10997436D01*
X15331967Y-10997436D02*
X15322443Y-11006960D01*
X15322443Y-11006960D02*
X15303396Y-11016484D01*
X15303396Y-11016484D02*
X15265301Y-11016484D01*
X15265301Y-11016484D02*
X15246253Y-11006960D01*
X15427205Y-10997436D02*
X15436729Y-11006960D01*
X15436729Y-11006960D02*
X15427205Y-11016484D01*
X15427205Y-11016484D02*
X15417682Y-11006960D01*
X15417682Y-11006960D02*
X15427205Y-10997436D01*
X15427205Y-10997436D02*
X15427205Y-11016484D01*
X15427205Y-10892674D02*
X15436729Y-10902198D01*
X15436729Y-10902198D02*
X15427205Y-10911722D01*
X15427205Y-10911722D02*
X15417682Y-10902198D01*
X15417682Y-10902198D02*
X15427205Y-10892674D01*
X15427205Y-10892674D02*
X15427205Y-10911722D01*
M02*
