M48
; DRILL file {KiCad 7.0.6} date Wed Aug  9 20:57:14 2023
; FORMAT={-:-/ absolute / metric / decimal}
; #@! TF.CreationDate,2023-08-09T20:57:14-04:00
; #@! TF.GenerationSoftware,Kicad,Pcbnew,7.0.6
; #@! TF.FileFunction,Plated,1,4,PTH
FMAT,2
METRIC
; #@! TA.AperFunction,Plated,PTH,ViaDrill
T1C0.400
; #@! TA.AperFunction,Plated,PTH,ComponentDrill
T2C0.500
%
G90
G05
T1
X139.3Y-102.1
X139.4Y-90.6
X139.9Y-105.8
X140.8Y-89.0
X141.2Y-101.8
X141.6Y-95.7
X143.4Y-89.4
X143.9Y-81.1
X144.1Y-90.5
X144.1Y-93.5
X144.4Y-103.0
X145.5Y-93.7
X145.5Y-103.0
X145.7Y-86.6
X146.6Y-94.3
X146.6Y-103.0
X146.9Y-87.4
X148.1Y-83.8
X148.4Y-105.9
X148.5Y-87.3
X148.7Y-100.5
X148.9Y-99.0
X148.9Y-103.0
X149.355Y-96.545
X149.6Y-100.5
X149.8Y-99.0
X150.1Y-97.4
X150.4Y-103.85
X150.5Y-100.5
X150.7Y-99.0
X152.1Y-79.8
X152.1Y-81.7
X152.9Y-96.0
X153.1Y-88.8
X154.368Y-102.249
X154.4Y-101.0
X154.5Y-105.8
X154.7Y-96.0
X155.8Y-93.1
X156.2Y-105.6
X156.5Y-89.7
X157.1Y-97.2
X157.368Y-90.196
T2
X148.0Y-97.0
T0
M30
