%TF.GenerationSoftware,KiCad,Pcbnew,7.0.6*%
%TF.CreationDate,2023-08-27T19:49:04-04:00*%
%TF.ProjectId,miniclick,6d696e69-636c-4696-936b-2e6b69636164,rev?*%
%TF.SameCoordinates,Original*%
%TF.FileFunction,Drillmap*%
%TF.FilePolarity,Positive*%
%FSLAX45Y45*%
G04 Gerber Fmt 4.5, Leading zero omitted, Abs format (unit mm)*
G04 Created by KiCad (PCBNEW 7.0.6) date 2023-08-27 19:49:04*
%MOMM*%
%LPD*%
G01*
G04 APERTURE LIST*
%ADD10C,0.100000*%
%ADD11C,0.200000*%
%ADD12C,0.040000*%
%ADD13C,0.080000*%
G04 APERTURE END LIST*
D10*
X15600000Y-10700000D02*
G75*
G03*
X15800000Y-10500000I0J200000D01*
G01*
X15800000Y-8900000D02*
X15800000Y-10500000D01*
X15500000Y-8700000D02*
X15600000Y-8700000D01*
X14000000Y-8700000D02*
G75*
G03*
X13800000Y-8900000I0J-200000D01*
G01*
X15800000Y-8900000D02*
G75*
G03*
X15600000Y-8700000I-200000J0D01*
G01*
X13800000Y-10500000D02*
X13800000Y-8900000D01*
X15500000Y-8700000D02*
X14000000Y-8700000D01*
X13800000Y-10500000D02*
G75*
G03*
X14000000Y-10700000I200000J0D01*
G01*
X15600000Y-10700000D02*
X14000000Y-10700000D01*
D11*
D12*
X13910000Y-10190000D02*
X13950000Y-10230000D01*
X13950000Y-10190000D02*
X13910000Y-10230000D01*
X13970000Y-10560000D02*
X14010000Y-10600000D01*
X14010000Y-10560000D02*
X13970000Y-10600000D01*
X14060000Y-8880000D02*
X14100000Y-8920000D01*
X14100000Y-8880000D02*
X14060000Y-8920000D01*
X14100000Y-10160000D02*
X14140000Y-10200000D01*
X14140000Y-10160000D02*
X14100000Y-10200000D01*
X14140000Y-9550000D02*
X14180000Y-9590000D01*
X14180000Y-9550000D02*
X14140000Y-9590000D01*
X14320000Y-8730000D02*
X14360000Y-8770000D01*
X14360000Y-8730000D02*
X14320000Y-8770000D01*
X14320000Y-9100000D02*
X14360000Y-9140000D01*
X14360000Y-9100000D02*
X14320000Y-9140000D01*
X14350270Y-8896230D02*
X14390270Y-8936230D01*
X14390270Y-8896230D02*
X14350270Y-8936230D01*
X14390000Y-9330000D02*
X14430000Y-9370000D01*
X14430000Y-9330000D02*
X14390000Y-9370000D01*
X14420000Y-10280000D02*
X14460000Y-10320000D01*
X14460000Y-10280000D02*
X14420000Y-10320000D01*
X14480000Y-9390000D02*
X14520000Y-9430000D01*
X14520000Y-9390000D02*
X14480000Y-9430000D01*
X14530000Y-10280000D02*
X14570000Y-10320000D01*
X14570000Y-10280000D02*
X14530000Y-10320000D01*
X14640000Y-9410000D02*
X14680000Y-9450000D01*
X14680000Y-9410000D02*
X14640000Y-9450000D01*
X14640000Y-10280000D02*
X14680000Y-10320000D01*
X14680000Y-10280000D02*
X14640000Y-10320000D01*
X14664429Y-8778449D02*
X14704429Y-8818449D01*
X14704429Y-8778449D02*
X14664429Y-8818449D01*
X14820000Y-10570000D02*
X14860000Y-10610000D01*
X14860000Y-10570000D02*
X14820000Y-10610000D01*
X14850000Y-10030000D02*
X14890000Y-10070000D01*
X14890000Y-10030000D02*
X14850000Y-10070000D01*
X14870000Y-9880000D02*
X14910000Y-9920000D01*
X14910000Y-9880000D02*
X14870000Y-9920000D01*
X14870000Y-10280000D02*
X14910000Y-10320000D01*
X14910000Y-10280000D02*
X14870000Y-10320000D01*
X14886297Y-8770787D02*
X14926297Y-8810787D01*
X14926297Y-8770787D02*
X14886297Y-8810787D01*
X14915538Y-9634462D02*
X14955538Y-9674462D01*
X14955538Y-9634462D02*
X14915538Y-9674462D01*
X14940000Y-10030000D02*
X14980000Y-10070000D01*
X14980000Y-10030000D02*
X14940000Y-10070000D01*
X14960000Y-9880000D02*
X15000000Y-9920000D01*
X15000000Y-9880000D02*
X14960000Y-9920000D01*
X14990000Y-9720000D02*
X15030000Y-9760000D01*
X15030000Y-9720000D02*
X14990000Y-9760000D01*
X15020000Y-10365050D02*
X15060000Y-10405050D01*
X15060000Y-10365050D02*
X15020000Y-10405050D01*
X15030000Y-10030000D02*
X15070000Y-10070000D01*
X15070000Y-10030000D02*
X15030000Y-10070000D01*
X15050000Y-9880000D02*
X15090000Y-9920000D01*
X15090000Y-9880000D02*
X15050000Y-9920000D01*
X15270000Y-9580000D02*
X15310000Y-9620000D01*
X15310000Y-9580000D02*
X15270000Y-9620000D01*
X15290000Y-8860000D02*
X15330000Y-8900000D01*
X15330000Y-8860000D02*
X15290000Y-8900000D01*
X15416793Y-10204906D02*
X15456793Y-10244906D01*
X15456793Y-10204906D02*
X15416793Y-10244906D01*
X15420000Y-10080000D02*
X15460000Y-10120000D01*
X15460000Y-10080000D02*
X15420000Y-10120000D01*
X15430000Y-10560000D02*
X15470000Y-10600000D01*
X15470000Y-10560000D02*
X15430000Y-10600000D01*
X15450000Y-9580000D02*
X15490000Y-9620000D01*
X15490000Y-9580000D02*
X15450000Y-9620000D01*
X15600000Y-10540000D02*
X15640000Y-10580000D01*
X15640000Y-10540000D02*
X15600000Y-10580000D01*
X15690000Y-9700000D02*
X15730000Y-9740000D01*
X15730000Y-9700000D02*
X15690000Y-9740000D01*
X15716781Y-8999589D02*
X15756781Y-9039589D01*
X15756781Y-8999589D02*
X15716781Y-9039589D01*
D13*
X14840000Y-9700000D02*
G75*
G03*
X14840000Y-9700000I-40000J0D01*
G01*
D11*
X14055777Y-11016484D02*
X14055777Y-10816484D01*
X14055777Y-10816484D02*
X14103396Y-10816484D01*
X14103396Y-10816484D02*
X14131967Y-10826008D01*
X14131967Y-10826008D02*
X14151015Y-10845055D01*
X14151015Y-10845055D02*
X14160539Y-10864103D01*
X14160539Y-10864103D02*
X14170062Y-10902198D01*
X14170062Y-10902198D02*
X14170062Y-10930770D01*
X14170062Y-10930770D02*
X14160539Y-10968865D01*
X14160539Y-10968865D02*
X14151015Y-10987912D01*
X14151015Y-10987912D02*
X14131967Y-11006960D01*
X14131967Y-11006960D02*
X14103396Y-11016484D01*
X14103396Y-11016484D02*
X14055777Y-11016484D01*
X14255777Y-11016484D02*
X14255777Y-10883150D01*
X14255777Y-10921246D02*
X14265301Y-10902198D01*
X14265301Y-10902198D02*
X14274824Y-10892674D01*
X14274824Y-10892674D02*
X14293872Y-10883150D01*
X14293872Y-10883150D02*
X14312920Y-10883150D01*
X14379586Y-11016484D02*
X14379586Y-10883150D01*
X14379586Y-10816484D02*
X14370062Y-10826008D01*
X14370062Y-10826008D02*
X14379586Y-10835531D01*
X14379586Y-10835531D02*
X14389110Y-10826008D01*
X14389110Y-10826008D02*
X14379586Y-10816484D01*
X14379586Y-10816484D02*
X14379586Y-10835531D01*
X14503396Y-11016484D02*
X14484348Y-11006960D01*
X14484348Y-11006960D02*
X14474824Y-10987912D01*
X14474824Y-10987912D02*
X14474824Y-10816484D01*
X14608158Y-11016484D02*
X14589110Y-11006960D01*
X14589110Y-11006960D02*
X14579586Y-10987912D01*
X14579586Y-10987912D02*
X14579586Y-10816484D01*
X14836729Y-11016484D02*
X14836729Y-10816484D01*
X14836729Y-10816484D02*
X14903396Y-10959341D01*
X14903396Y-10959341D02*
X14970062Y-10816484D01*
X14970062Y-10816484D02*
X14970062Y-11016484D01*
X15151015Y-11016484D02*
X15151015Y-10911722D01*
X15151015Y-10911722D02*
X15141491Y-10892674D01*
X15141491Y-10892674D02*
X15122443Y-10883150D01*
X15122443Y-10883150D02*
X15084348Y-10883150D01*
X15084348Y-10883150D02*
X15065301Y-10892674D01*
X15151015Y-11006960D02*
X15131967Y-11016484D01*
X15131967Y-11016484D02*
X15084348Y-11016484D01*
X15084348Y-11016484D02*
X15065301Y-11006960D01*
X15065301Y-11006960D02*
X15055777Y-10987912D01*
X15055777Y-10987912D02*
X15055777Y-10968865D01*
X15055777Y-10968865D02*
X15065301Y-10949817D01*
X15065301Y-10949817D02*
X15084348Y-10940293D01*
X15084348Y-10940293D02*
X15131967Y-10940293D01*
X15131967Y-10940293D02*
X15151015Y-10930770D01*
X15246253Y-10883150D02*
X15246253Y-11083150D01*
X15246253Y-10892674D02*
X15265301Y-10883150D01*
X15265301Y-10883150D02*
X15303396Y-10883150D01*
X15303396Y-10883150D02*
X15322443Y-10892674D01*
X15322443Y-10892674D02*
X15331967Y-10902198D01*
X15331967Y-10902198D02*
X15341491Y-10921246D01*
X15341491Y-10921246D02*
X15341491Y-10978389D01*
X15341491Y-10978389D02*
X15331967Y-10997436D01*
X15331967Y-10997436D02*
X15322443Y-11006960D01*
X15322443Y-11006960D02*
X15303396Y-11016484D01*
X15303396Y-11016484D02*
X15265301Y-11016484D01*
X15265301Y-11016484D02*
X15246253Y-11006960D01*
X15427205Y-10997436D02*
X15436729Y-11006960D01*
X15436729Y-11006960D02*
X15427205Y-11016484D01*
X15427205Y-11016484D02*
X15417682Y-11006960D01*
X15417682Y-11006960D02*
X15427205Y-10997436D01*
X15427205Y-10997436D02*
X15427205Y-11016484D01*
X15427205Y-10892674D02*
X15436729Y-10902198D01*
X15436729Y-10902198D02*
X15427205Y-10911722D01*
X15427205Y-10911722D02*
X15417682Y-10902198D01*
X15417682Y-10902198D02*
X15427205Y-10892674D01*
X15427205Y-10892674D02*
X15427205Y-10911722D01*
D12*
X13755000Y-11325000D02*
X13795000Y-11365000D01*
X13795000Y-11325000D02*
X13755000Y-11365000D01*
D11*
X14093872Y-11236484D02*
X14112920Y-11236484D01*
X14112920Y-11236484D02*
X14131967Y-11246008D01*
X14131967Y-11246008D02*
X14141491Y-11255531D01*
X14141491Y-11255531D02*
X14151015Y-11274579D01*
X14151015Y-11274579D02*
X14160539Y-11312674D01*
X14160539Y-11312674D02*
X14160539Y-11360293D01*
X14160539Y-11360293D02*
X14151015Y-11398388D01*
X14151015Y-11398388D02*
X14141491Y-11417436D01*
X14141491Y-11417436D02*
X14131967Y-11426960D01*
X14131967Y-11426960D02*
X14112920Y-11436484D01*
X14112920Y-11436484D02*
X14093872Y-11436484D01*
X14093872Y-11436484D02*
X14074824Y-11426960D01*
X14074824Y-11426960D02*
X14065301Y-11417436D01*
X14065301Y-11417436D02*
X14055777Y-11398388D01*
X14055777Y-11398388D02*
X14046253Y-11360293D01*
X14046253Y-11360293D02*
X14046253Y-11312674D01*
X14046253Y-11312674D02*
X14055777Y-11274579D01*
X14055777Y-11274579D02*
X14065301Y-11255531D01*
X14065301Y-11255531D02*
X14074824Y-11246008D01*
X14074824Y-11246008D02*
X14093872Y-11236484D01*
X14246253Y-11417436D02*
X14255777Y-11426960D01*
X14255777Y-11426960D02*
X14246253Y-11436484D01*
X14246253Y-11436484D02*
X14236729Y-11426960D01*
X14236729Y-11426960D02*
X14246253Y-11417436D01*
X14246253Y-11417436D02*
X14246253Y-11436484D01*
X14427205Y-11303150D02*
X14427205Y-11436484D01*
X14379586Y-11226960D02*
X14331967Y-11369817D01*
X14331967Y-11369817D02*
X14455777Y-11369817D01*
X14570062Y-11236484D02*
X14589110Y-11236484D01*
X14589110Y-11236484D02*
X14608158Y-11246008D01*
X14608158Y-11246008D02*
X14617682Y-11255531D01*
X14617682Y-11255531D02*
X14627205Y-11274579D01*
X14627205Y-11274579D02*
X14636729Y-11312674D01*
X14636729Y-11312674D02*
X14636729Y-11360293D01*
X14636729Y-11360293D02*
X14627205Y-11398388D01*
X14627205Y-11398388D02*
X14617682Y-11417436D01*
X14617682Y-11417436D02*
X14608158Y-11426960D01*
X14608158Y-11426960D02*
X14589110Y-11436484D01*
X14589110Y-11436484D02*
X14570062Y-11436484D01*
X14570062Y-11436484D02*
X14551015Y-11426960D01*
X14551015Y-11426960D02*
X14541491Y-11417436D01*
X14541491Y-11417436D02*
X14531967Y-11398388D01*
X14531967Y-11398388D02*
X14522443Y-11360293D01*
X14522443Y-11360293D02*
X14522443Y-11312674D01*
X14522443Y-11312674D02*
X14531967Y-11274579D01*
X14531967Y-11274579D02*
X14541491Y-11255531D01*
X14541491Y-11255531D02*
X14551015Y-11246008D01*
X14551015Y-11246008D02*
X14570062Y-11236484D01*
X14760539Y-11236484D02*
X14779586Y-11236484D01*
X14779586Y-11236484D02*
X14798634Y-11246008D01*
X14798634Y-11246008D02*
X14808158Y-11255531D01*
X14808158Y-11255531D02*
X14817682Y-11274579D01*
X14817682Y-11274579D02*
X14827205Y-11312674D01*
X14827205Y-11312674D02*
X14827205Y-11360293D01*
X14827205Y-11360293D02*
X14817682Y-11398388D01*
X14817682Y-11398388D02*
X14808158Y-11417436D01*
X14808158Y-11417436D02*
X14798634Y-11426960D01*
X14798634Y-11426960D02*
X14779586Y-11436484D01*
X14779586Y-11436484D02*
X14760539Y-11436484D01*
X14760539Y-11436484D02*
X14741491Y-11426960D01*
X14741491Y-11426960D02*
X14731967Y-11417436D01*
X14731967Y-11417436D02*
X14722443Y-11398388D01*
X14722443Y-11398388D02*
X14712920Y-11360293D01*
X14712920Y-11360293D02*
X14712920Y-11312674D01*
X14712920Y-11312674D02*
X14722443Y-11274579D01*
X14722443Y-11274579D02*
X14731967Y-11255531D01*
X14731967Y-11255531D02*
X14741491Y-11246008D01*
X14741491Y-11246008D02*
X14760539Y-11236484D01*
X14912920Y-11436484D02*
X14912920Y-11303150D01*
X14912920Y-11322198D02*
X14922443Y-11312674D01*
X14922443Y-11312674D02*
X14941491Y-11303150D01*
X14941491Y-11303150D02*
X14970063Y-11303150D01*
X14970063Y-11303150D02*
X14989110Y-11312674D01*
X14989110Y-11312674D02*
X14998634Y-11331722D01*
X14998634Y-11331722D02*
X14998634Y-11436484D01*
X14998634Y-11331722D02*
X15008158Y-11312674D01*
X15008158Y-11312674D02*
X15027205Y-11303150D01*
X15027205Y-11303150D02*
X15055777Y-11303150D01*
X15055777Y-11303150D02*
X15074824Y-11312674D01*
X15074824Y-11312674D02*
X15084348Y-11331722D01*
X15084348Y-11331722D02*
X15084348Y-11436484D01*
X15179586Y-11436484D02*
X15179586Y-11303150D01*
X15179586Y-11322198D02*
X15189110Y-11312674D01*
X15189110Y-11312674D02*
X15208158Y-11303150D01*
X15208158Y-11303150D02*
X15236729Y-11303150D01*
X15236729Y-11303150D02*
X15255777Y-11312674D01*
X15255777Y-11312674D02*
X15265301Y-11331722D01*
X15265301Y-11331722D02*
X15265301Y-11436484D01*
X15265301Y-11331722D02*
X15274824Y-11312674D01*
X15274824Y-11312674D02*
X15293872Y-11303150D01*
X15293872Y-11303150D02*
X15322443Y-11303150D01*
X15322443Y-11303150D02*
X15341491Y-11312674D01*
X15341491Y-11312674D02*
X15351015Y-11331722D01*
X15351015Y-11331722D02*
X15351015Y-11436484D01*
X15741491Y-11226960D02*
X15570063Y-11484103D01*
X15998634Y-11236484D02*
X16017682Y-11236484D01*
X16017682Y-11236484D02*
X16036729Y-11246008D01*
X16036729Y-11246008D02*
X16046253Y-11255531D01*
X16046253Y-11255531D02*
X16055777Y-11274579D01*
X16055777Y-11274579D02*
X16065301Y-11312674D01*
X16065301Y-11312674D02*
X16065301Y-11360293D01*
X16065301Y-11360293D02*
X16055777Y-11398388D01*
X16055777Y-11398388D02*
X16046253Y-11417436D01*
X16046253Y-11417436D02*
X16036729Y-11426960D01*
X16036729Y-11426960D02*
X16017682Y-11436484D01*
X16017682Y-11436484D02*
X15998634Y-11436484D01*
X15998634Y-11436484D02*
X15979586Y-11426960D01*
X15979586Y-11426960D02*
X15970063Y-11417436D01*
X15970063Y-11417436D02*
X15960539Y-11398388D01*
X15960539Y-11398388D02*
X15951015Y-11360293D01*
X15951015Y-11360293D02*
X15951015Y-11312674D01*
X15951015Y-11312674D02*
X15960539Y-11274579D01*
X15960539Y-11274579D02*
X15970063Y-11255531D01*
X15970063Y-11255531D02*
X15979586Y-11246008D01*
X15979586Y-11246008D02*
X15998634Y-11236484D01*
X16151015Y-11417436D02*
X16160539Y-11426960D01*
X16160539Y-11426960D02*
X16151015Y-11436484D01*
X16151015Y-11436484D02*
X16141491Y-11426960D01*
X16141491Y-11426960D02*
X16151015Y-11417436D01*
X16151015Y-11417436D02*
X16151015Y-11436484D01*
X16284348Y-11236484D02*
X16303396Y-11236484D01*
X16303396Y-11236484D02*
X16322444Y-11246008D01*
X16322444Y-11246008D02*
X16331967Y-11255531D01*
X16331967Y-11255531D02*
X16341491Y-11274579D01*
X16341491Y-11274579D02*
X16351015Y-11312674D01*
X16351015Y-11312674D02*
X16351015Y-11360293D01*
X16351015Y-11360293D02*
X16341491Y-11398388D01*
X16341491Y-11398388D02*
X16331967Y-11417436D01*
X16331967Y-11417436D02*
X16322444Y-11426960D01*
X16322444Y-11426960D02*
X16303396Y-11436484D01*
X16303396Y-11436484D02*
X16284348Y-11436484D01*
X16284348Y-11436484D02*
X16265301Y-11426960D01*
X16265301Y-11426960D02*
X16255777Y-11417436D01*
X16255777Y-11417436D02*
X16246253Y-11398388D01*
X16246253Y-11398388D02*
X16236729Y-11360293D01*
X16236729Y-11360293D02*
X16236729Y-11312674D01*
X16236729Y-11312674D02*
X16246253Y-11274579D01*
X16246253Y-11274579D02*
X16255777Y-11255531D01*
X16255777Y-11255531D02*
X16265301Y-11246008D01*
X16265301Y-11246008D02*
X16284348Y-11236484D01*
X16541491Y-11436484D02*
X16427206Y-11436484D01*
X16484348Y-11436484D02*
X16484348Y-11236484D01*
X16484348Y-11236484D02*
X16465301Y-11265055D01*
X16465301Y-11265055D02*
X16446253Y-11284103D01*
X16446253Y-11284103D02*
X16427206Y-11293627D01*
X16722444Y-11236484D02*
X16627206Y-11236484D01*
X16627206Y-11236484D02*
X16617682Y-11331722D01*
X16617682Y-11331722D02*
X16627206Y-11322198D01*
X16627206Y-11322198D02*
X16646253Y-11312674D01*
X16646253Y-11312674D02*
X16693872Y-11312674D01*
X16693872Y-11312674D02*
X16712920Y-11322198D01*
X16712920Y-11322198D02*
X16722444Y-11331722D01*
X16722444Y-11331722D02*
X16731967Y-11350769D01*
X16731967Y-11350769D02*
X16731967Y-11398388D01*
X16731967Y-11398388D02*
X16722444Y-11417436D01*
X16722444Y-11417436D02*
X16712920Y-11426960D01*
X16712920Y-11426960D02*
X16693872Y-11436484D01*
X16693872Y-11436484D02*
X16646253Y-11436484D01*
X16646253Y-11436484D02*
X16627206Y-11426960D01*
X16627206Y-11426960D02*
X16617682Y-11417436D01*
X16798634Y-11236484D02*
X16931968Y-11236484D01*
X16931968Y-11236484D02*
X16846253Y-11436484D01*
X16998634Y-11236484D02*
X16998634Y-11274579D01*
X17074825Y-11236484D02*
X17074825Y-11274579D01*
X17370063Y-11512674D02*
X17360539Y-11503150D01*
X17360539Y-11503150D02*
X17341491Y-11474579D01*
X17341491Y-11474579D02*
X17331968Y-11455531D01*
X17331968Y-11455531D02*
X17322444Y-11426960D01*
X17322444Y-11426960D02*
X17312920Y-11379341D01*
X17312920Y-11379341D02*
X17312920Y-11341246D01*
X17312920Y-11341246D02*
X17322444Y-11293627D01*
X17322444Y-11293627D02*
X17331968Y-11265055D01*
X17331968Y-11265055D02*
X17341491Y-11246008D01*
X17341491Y-11246008D02*
X17360539Y-11217436D01*
X17360539Y-11217436D02*
X17370063Y-11207912D01*
X17427206Y-11236484D02*
X17551015Y-11236484D01*
X17551015Y-11236484D02*
X17484349Y-11312674D01*
X17484349Y-11312674D02*
X17512920Y-11312674D01*
X17512920Y-11312674D02*
X17531968Y-11322198D01*
X17531968Y-11322198D02*
X17541491Y-11331722D01*
X17541491Y-11331722D02*
X17551015Y-11350769D01*
X17551015Y-11350769D02*
X17551015Y-11398388D01*
X17551015Y-11398388D02*
X17541491Y-11417436D01*
X17541491Y-11417436D02*
X17531968Y-11426960D01*
X17531968Y-11426960D02*
X17512920Y-11436484D01*
X17512920Y-11436484D02*
X17455777Y-11436484D01*
X17455777Y-11436484D02*
X17436730Y-11426960D01*
X17436730Y-11426960D02*
X17427206Y-11417436D01*
X17722444Y-11236484D02*
X17684349Y-11236484D01*
X17684349Y-11236484D02*
X17665301Y-11246008D01*
X17665301Y-11246008D02*
X17655777Y-11255531D01*
X17655777Y-11255531D02*
X17636730Y-11284103D01*
X17636730Y-11284103D02*
X17627206Y-11322198D01*
X17627206Y-11322198D02*
X17627206Y-11398388D01*
X17627206Y-11398388D02*
X17636730Y-11417436D01*
X17636730Y-11417436D02*
X17646253Y-11426960D01*
X17646253Y-11426960D02*
X17665301Y-11436484D01*
X17665301Y-11436484D02*
X17703396Y-11436484D01*
X17703396Y-11436484D02*
X17722444Y-11426960D01*
X17722444Y-11426960D02*
X17731968Y-11417436D01*
X17731968Y-11417436D02*
X17741491Y-11398388D01*
X17741491Y-11398388D02*
X17741491Y-11350769D01*
X17741491Y-11350769D02*
X17731968Y-11331722D01*
X17731968Y-11331722D02*
X17722444Y-11322198D01*
X17722444Y-11322198D02*
X17703396Y-11312674D01*
X17703396Y-11312674D02*
X17665301Y-11312674D01*
X17665301Y-11312674D02*
X17646253Y-11322198D01*
X17646253Y-11322198D02*
X17636730Y-11331722D01*
X17636730Y-11331722D02*
X17627206Y-11350769D01*
X17979587Y-11436484D02*
X17979587Y-11236484D01*
X18065301Y-11436484D02*
X18065301Y-11331722D01*
X18065301Y-11331722D02*
X18055777Y-11312674D01*
X18055777Y-11312674D02*
X18036730Y-11303150D01*
X18036730Y-11303150D02*
X18008158Y-11303150D01*
X18008158Y-11303150D02*
X17989111Y-11312674D01*
X17989111Y-11312674D02*
X17979587Y-11322198D01*
X18189111Y-11436484D02*
X18170063Y-11426960D01*
X18170063Y-11426960D02*
X18160539Y-11417436D01*
X18160539Y-11417436D02*
X18151015Y-11398388D01*
X18151015Y-11398388D02*
X18151015Y-11341246D01*
X18151015Y-11341246D02*
X18160539Y-11322198D01*
X18160539Y-11322198D02*
X18170063Y-11312674D01*
X18170063Y-11312674D02*
X18189111Y-11303150D01*
X18189111Y-11303150D02*
X18217682Y-11303150D01*
X18217682Y-11303150D02*
X18236730Y-11312674D01*
X18236730Y-11312674D02*
X18246253Y-11322198D01*
X18246253Y-11322198D02*
X18255777Y-11341246D01*
X18255777Y-11341246D02*
X18255777Y-11398388D01*
X18255777Y-11398388D02*
X18246253Y-11417436D01*
X18246253Y-11417436D02*
X18236730Y-11426960D01*
X18236730Y-11426960D02*
X18217682Y-11436484D01*
X18217682Y-11436484D02*
X18189111Y-11436484D01*
X18370063Y-11436484D02*
X18351015Y-11426960D01*
X18351015Y-11426960D02*
X18341492Y-11407912D01*
X18341492Y-11407912D02*
X18341492Y-11236484D01*
X18522444Y-11426960D02*
X18503396Y-11436484D01*
X18503396Y-11436484D02*
X18465301Y-11436484D01*
X18465301Y-11436484D02*
X18446253Y-11426960D01*
X18446253Y-11426960D02*
X18436730Y-11407912D01*
X18436730Y-11407912D02*
X18436730Y-11331722D01*
X18436730Y-11331722D02*
X18446253Y-11312674D01*
X18446253Y-11312674D02*
X18465301Y-11303150D01*
X18465301Y-11303150D02*
X18503396Y-11303150D01*
X18503396Y-11303150D02*
X18522444Y-11312674D01*
X18522444Y-11312674D02*
X18531968Y-11331722D01*
X18531968Y-11331722D02*
X18531968Y-11350769D01*
X18531968Y-11350769D02*
X18436730Y-11369817D01*
X18608158Y-11426960D02*
X18627206Y-11436484D01*
X18627206Y-11436484D02*
X18665301Y-11436484D01*
X18665301Y-11436484D02*
X18684349Y-11426960D01*
X18684349Y-11426960D02*
X18693873Y-11407912D01*
X18693873Y-11407912D02*
X18693873Y-11398388D01*
X18693873Y-11398388D02*
X18684349Y-11379341D01*
X18684349Y-11379341D02*
X18665301Y-11369817D01*
X18665301Y-11369817D02*
X18636730Y-11369817D01*
X18636730Y-11369817D02*
X18617682Y-11360293D01*
X18617682Y-11360293D02*
X18608158Y-11341246D01*
X18608158Y-11341246D02*
X18608158Y-11331722D01*
X18608158Y-11331722D02*
X18617682Y-11312674D01*
X18617682Y-11312674D02*
X18636730Y-11303150D01*
X18636730Y-11303150D02*
X18665301Y-11303150D01*
X18665301Y-11303150D02*
X18684349Y-11312674D01*
X18760539Y-11512674D02*
X18770063Y-11503150D01*
X18770063Y-11503150D02*
X18789111Y-11474579D01*
X18789111Y-11474579D02*
X18798634Y-11455531D01*
X18798634Y-11455531D02*
X18808158Y-11426960D01*
X18808158Y-11426960D02*
X18817682Y-11379341D01*
X18817682Y-11379341D02*
X18817682Y-11341246D01*
X18817682Y-11341246D02*
X18808158Y-11293627D01*
X18808158Y-11293627D02*
X18798634Y-11265055D01*
X18798634Y-11265055D02*
X18789111Y-11246008D01*
X18789111Y-11246008D02*
X18770063Y-11217436D01*
X18770063Y-11217436D02*
X18760539Y-11207912D01*
D13*
X13795000Y-11609000D02*
G75*
G03*
X13795000Y-11609000I-40000J0D01*
G01*
D11*
X14093872Y-11500484D02*
X14112920Y-11500484D01*
X14112920Y-11500484D02*
X14131967Y-11510008D01*
X14131967Y-11510008D02*
X14141491Y-11519531D01*
X14141491Y-11519531D02*
X14151015Y-11538579D01*
X14151015Y-11538579D02*
X14160539Y-11576674D01*
X14160539Y-11576674D02*
X14160539Y-11624293D01*
X14160539Y-11624293D02*
X14151015Y-11662388D01*
X14151015Y-11662388D02*
X14141491Y-11681436D01*
X14141491Y-11681436D02*
X14131967Y-11690960D01*
X14131967Y-11690960D02*
X14112920Y-11700484D01*
X14112920Y-11700484D02*
X14093872Y-11700484D01*
X14093872Y-11700484D02*
X14074824Y-11690960D01*
X14074824Y-11690960D02*
X14065301Y-11681436D01*
X14065301Y-11681436D02*
X14055777Y-11662388D01*
X14055777Y-11662388D02*
X14046253Y-11624293D01*
X14046253Y-11624293D02*
X14046253Y-11576674D01*
X14046253Y-11576674D02*
X14055777Y-11538579D01*
X14055777Y-11538579D02*
X14065301Y-11519531D01*
X14065301Y-11519531D02*
X14074824Y-11510008D01*
X14074824Y-11510008D02*
X14093872Y-11500484D01*
X14246253Y-11681436D02*
X14255777Y-11690960D01*
X14255777Y-11690960D02*
X14246253Y-11700484D01*
X14246253Y-11700484D02*
X14236729Y-11690960D01*
X14236729Y-11690960D02*
X14246253Y-11681436D01*
X14246253Y-11681436D02*
X14246253Y-11700484D01*
X14370062Y-11586198D02*
X14351015Y-11576674D01*
X14351015Y-11576674D02*
X14341491Y-11567150D01*
X14341491Y-11567150D02*
X14331967Y-11548103D01*
X14331967Y-11548103D02*
X14331967Y-11538579D01*
X14331967Y-11538579D02*
X14341491Y-11519531D01*
X14341491Y-11519531D02*
X14351015Y-11510008D01*
X14351015Y-11510008D02*
X14370062Y-11500484D01*
X14370062Y-11500484D02*
X14408158Y-11500484D01*
X14408158Y-11500484D02*
X14427205Y-11510008D01*
X14427205Y-11510008D02*
X14436729Y-11519531D01*
X14436729Y-11519531D02*
X14446253Y-11538579D01*
X14446253Y-11538579D02*
X14446253Y-11548103D01*
X14446253Y-11548103D02*
X14436729Y-11567150D01*
X14436729Y-11567150D02*
X14427205Y-11576674D01*
X14427205Y-11576674D02*
X14408158Y-11586198D01*
X14408158Y-11586198D02*
X14370062Y-11586198D01*
X14370062Y-11586198D02*
X14351015Y-11595722D01*
X14351015Y-11595722D02*
X14341491Y-11605246D01*
X14341491Y-11605246D02*
X14331967Y-11624293D01*
X14331967Y-11624293D02*
X14331967Y-11662388D01*
X14331967Y-11662388D02*
X14341491Y-11681436D01*
X14341491Y-11681436D02*
X14351015Y-11690960D01*
X14351015Y-11690960D02*
X14370062Y-11700484D01*
X14370062Y-11700484D02*
X14408158Y-11700484D01*
X14408158Y-11700484D02*
X14427205Y-11690960D01*
X14427205Y-11690960D02*
X14436729Y-11681436D01*
X14436729Y-11681436D02*
X14446253Y-11662388D01*
X14446253Y-11662388D02*
X14446253Y-11624293D01*
X14446253Y-11624293D02*
X14436729Y-11605246D01*
X14436729Y-11605246D02*
X14427205Y-11595722D01*
X14427205Y-11595722D02*
X14408158Y-11586198D01*
X14570062Y-11500484D02*
X14589110Y-11500484D01*
X14589110Y-11500484D02*
X14608158Y-11510008D01*
X14608158Y-11510008D02*
X14617682Y-11519531D01*
X14617682Y-11519531D02*
X14627205Y-11538579D01*
X14627205Y-11538579D02*
X14636729Y-11576674D01*
X14636729Y-11576674D02*
X14636729Y-11624293D01*
X14636729Y-11624293D02*
X14627205Y-11662388D01*
X14627205Y-11662388D02*
X14617682Y-11681436D01*
X14617682Y-11681436D02*
X14608158Y-11690960D01*
X14608158Y-11690960D02*
X14589110Y-11700484D01*
X14589110Y-11700484D02*
X14570062Y-11700484D01*
X14570062Y-11700484D02*
X14551015Y-11690960D01*
X14551015Y-11690960D02*
X14541491Y-11681436D01*
X14541491Y-11681436D02*
X14531967Y-11662388D01*
X14531967Y-11662388D02*
X14522443Y-11624293D01*
X14522443Y-11624293D02*
X14522443Y-11576674D01*
X14522443Y-11576674D02*
X14531967Y-11538579D01*
X14531967Y-11538579D02*
X14541491Y-11519531D01*
X14541491Y-11519531D02*
X14551015Y-11510008D01*
X14551015Y-11510008D02*
X14570062Y-11500484D01*
X14760539Y-11500484D02*
X14779586Y-11500484D01*
X14779586Y-11500484D02*
X14798634Y-11510008D01*
X14798634Y-11510008D02*
X14808158Y-11519531D01*
X14808158Y-11519531D02*
X14817682Y-11538579D01*
X14817682Y-11538579D02*
X14827205Y-11576674D01*
X14827205Y-11576674D02*
X14827205Y-11624293D01*
X14827205Y-11624293D02*
X14817682Y-11662388D01*
X14817682Y-11662388D02*
X14808158Y-11681436D01*
X14808158Y-11681436D02*
X14798634Y-11690960D01*
X14798634Y-11690960D02*
X14779586Y-11700484D01*
X14779586Y-11700484D02*
X14760539Y-11700484D01*
X14760539Y-11700484D02*
X14741491Y-11690960D01*
X14741491Y-11690960D02*
X14731967Y-11681436D01*
X14731967Y-11681436D02*
X14722443Y-11662388D01*
X14722443Y-11662388D02*
X14712920Y-11624293D01*
X14712920Y-11624293D02*
X14712920Y-11576674D01*
X14712920Y-11576674D02*
X14722443Y-11538579D01*
X14722443Y-11538579D02*
X14731967Y-11519531D01*
X14731967Y-11519531D02*
X14741491Y-11510008D01*
X14741491Y-11510008D02*
X14760539Y-11500484D01*
X14912920Y-11700484D02*
X14912920Y-11567150D01*
X14912920Y-11586198D02*
X14922443Y-11576674D01*
X14922443Y-11576674D02*
X14941491Y-11567150D01*
X14941491Y-11567150D02*
X14970063Y-11567150D01*
X14970063Y-11567150D02*
X14989110Y-11576674D01*
X14989110Y-11576674D02*
X14998634Y-11595722D01*
X14998634Y-11595722D02*
X14998634Y-11700484D01*
X14998634Y-11595722D02*
X15008158Y-11576674D01*
X15008158Y-11576674D02*
X15027205Y-11567150D01*
X15027205Y-11567150D02*
X15055777Y-11567150D01*
X15055777Y-11567150D02*
X15074824Y-11576674D01*
X15074824Y-11576674D02*
X15084348Y-11595722D01*
X15084348Y-11595722D02*
X15084348Y-11700484D01*
X15179586Y-11700484D02*
X15179586Y-11567150D01*
X15179586Y-11586198D02*
X15189110Y-11576674D01*
X15189110Y-11576674D02*
X15208158Y-11567150D01*
X15208158Y-11567150D02*
X15236729Y-11567150D01*
X15236729Y-11567150D02*
X15255777Y-11576674D01*
X15255777Y-11576674D02*
X15265301Y-11595722D01*
X15265301Y-11595722D02*
X15265301Y-11700484D01*
X15265301Y-11595722D02*
X15274824Y-11576674D01*
X15274824Y-11576674D02*
X15293872Y-11567150D01*
X15293872Y-11567150D02*
X15322443Y-11567150D01*
X15322443Y-11567150D02*
X15341491Y-11576674D01*
X15341491Y-11576674D02*
X15351015Y-11595722D01*
X15351015Y-11595722D02*
X15351015Y-11700484D01*
X15741491Y-11490960D02*
X15570063Y-11748103D01*
X15998634Y-11500484D02*
X16017682Y-11500484D01*
X16017682Y-11500484D02*
X16036729Y-11510008D01*
X16036729Y-11510008D02*
X16046253Y-11519531D01*
X16046253Y-11519531D02*
X16055777Y-11538579D01*
X16055777Y-11538579D02*
X16065301Y-11576674D01*
X16065301Y-11576674D02*
X16065301Y-11624293D01*
X16065301Y-11624293D02*
X16055777Y-11662388D01*
X16055777Y-11662388D02*
X16046253Y-11681436D01*
X16046253Y-11681436D02*
X16036729Y-11690960D01*
X16036729Y-11690960D02*
X16017682Y-11700484D01*
X16017682Y-11700484D02*
X15998634Y-11700484D01*
X15998634Y-11700484D02*
X15979586Y-11690960D01*
X15979586Y-11690960D02*
X15970063Y-11681436D01*
X15970063Y-11681436D02*
X15960539Y-11662388D01*
X15960539Y-11662388D02*
X15951015Y-11624293D01*
X15951015Y-11624293D02*
X15951015Y-11576674D01*
X15951015Y-11576674D02*
X15960539Y-11538579D01*
X15960539Y-11538579D02*
X15970063Y-11519531D01*
X15970063Y-11519531D02*
X15979586Y-11510008D01*
X15979586Y-11510008D02*
X15998634Y-11500484D01*
X16151015Y-11681436D02*
X16160539Y-11690960D01*
X16160539Y-11690960D02*
X16151015Y-11700484D01*
X16151015Y-11700484D02*
X16141491Y-11690960D01*
X16141491Y-11690960D02*
X16151015Y-11681436D01*
X16151015Y-11681436D02*
X16151015Y-11700484D01*
X16284348Y-11500484D02*
X16303396Y-11500484D01*
X16303396Y-11500484D02*
X16322444Y-11510008D01*
X16322444Y-11510008D02*
X16331967Y-11519531D01*
X16331967Y-11519531D02*
X16341491Y-11538579D01*
X16341491Y-11538579D02*
X16351015Y-11576674D01*
X16351015Y-11576674D02*
X16351015Y-11624293D01*
X16351015Y-11624293D02*
X16341491Y-11662388D01*
X16341491Y-11662388D02*
X16331967Y-11681436D01*
X16331967Y-11681436D02*
X16322444Y-11690960D01*
X16322444Y-11690960D02*
X16303396Y-11700484D01*
X16303396Y-11700484D02*
X16284348Y-11700484D01*
X16284348Y-11700484D02*
X16265301Y-11690960D01*
X16265301Y-11690960D02*
X16255777Y-11681436D01*
X16255777Y-11681436D02*
X16246253Y-11662388D01*
X16246253Y-11662388D02*
X16236729Y-11624293D01*
X16236729Y-11624293D02*
X16236729Y-11576674D01*
X16236729Y-11576674D02*
X16246253Y-11538579D01*
X16246253Y-11538579D02*
X16255777Y-11519531D01*
X16255777Y-11519531D02*
X16265301Y-11510008D01*
X16265301Y-11510008D02*
X16284348Y-11500484D01*
X16417682Y-11500484D02*
X16541491Y-11500484D01*
X16541491Y-11500484D02*
X16474825Y-11576674D01*
X16474825Y-11576674D02*
X16503396Y-11576674D01*
X16503396Y-11576674D02*
X16522444Y-11586198D01*
X16522444Y-11586198D02*
X16531967Y-11595722D01*
X16531967Y-11595722D02*
X16541491Y-11614769D01*
X16541491Y-11614769D02*
X16541491Y-11662388D01*
X16541491Y-11662388D02*
X16531967Y-11681436D01*
X16531967Y-11681436D02*
X16522444Y-11690960D01*
X16522444Y-11690960D02*
X16503396Y-11700484D01*
X16503396Y-11700484D02*
X16446253Y-11700484D01*
X16446253Y-11700484D02*
X16427206Y-11690960D01*
X16427206Y-11690960D02*
X16417682Y-11681436D01*
X16731967Y-11700484D02*
X16617682Y-11700484D01*
X16674825Y-11700484D02*
X16674825Y-11500484D01*
X16674825Y-11500484D02*
X16655777Y-11529055D01*
X16655777Y-11529055D02*
X16636729Y-11548103D01*
X16636729Y-11548103D02*
X16617682Y-11557627D01*
X16912920Y-11500484D02*
X16817682Y-11500484D01*
X16817682Y-11500484D02*
X16808158Y-11595722D01*
X16808158Y-11595722D02*
X16817682Y-11586198D01*
X16817682Y-11586198D02*
X16836729Y-11576674D01*
X16836729Y-11576674D02*
X16884349Y-11576674D01*
X16884349Y-11576674D02*
X16903396Y-11586198D01*
X16903396Y-11586198D02*
X16912920Y-11595722D01*
X16912920Y-11595722D02*
X16922444Y-11614769D01*
X16922444Y-11614769D02*
X16922444Y-11662388D01*
X16922444Y-11662388D02*
X16912920Y-11681436D01*
X16912920Y-11681436D02*
X16903396Y-11690960D01*
X16903396Y-11690960D02*
X16884349Y-11700484D01*
X16884349Y-11700484D02*
X16836729Y-11700484D01*
X16836729Y-11700484D02*
X16817682Y-11690960D01*
X16817682Y-11690960D02*
X16808158Y-11681436D01*
X16998634Y-11500484D02*
X16998634Y-11538579D01*
X17074825Y-11500484D02*
X17074825Y-11538579D01*
X17370063Y-11776674D02*
X17360539Y-11767150D01*
X17360539Y-11767150D02*
X17341491Y-11738579D01*
X17341491Y-11738579D02*
X17331968Y-11719531D01*
X17331968Y-11719531D02*
X17322444Y-11690960D01*
X17322444Y-11690960D02*
X17312920Y-11643341D01*
X17312920Y-11643341D02*
X17312920Y-11605246D01*
X17312920Y-11605246D02*
X17322444Y-11557627D01*
X17322444Y-11557627D02*
X17331968Y-11529055D01*
X17331968Y-11529055D02*
X17341491Y-11510008D01*
X17341491Y-11510008D02*
X17360539Y-11481436D01*
X17360539Y-11481436D02*
X17370063Y-11471912D01*
X17551015Y-11700484D02*
X17436730Y-11700484D01*
X17493872Y-11700484D02*
X17493872Y-11500484D01*
X17493872Y-11500484D02*
X17474825Y-11529055D01*
X17474825Y-11529055D02*
X17455777Y-11548103D01*
X17455777Y-11548103D02*
X17436730Y-11557627D01*
X17789111Y-11700484D02*
X17789111Y-11500484D01*
X17874825Y-11700484D02*
X17874825Y-11595722D01*
X17874825Y-11595722D02*
X17865301Y-11576674D01*
X17865301Y-11576674D02*
X17846253Y-11567150D01*
X17846253Y-11567150D02*
X17817682Y-11567150D01*
X17817682Y-11567150D02*
X17798634Y-11576674D01*
X17798634Y-11576674D02*
X17789111Y-11586198D01*
X17998634Y-11700484D02*
X17979587Y-11690960D01*
X17979587Y-11690960D02*
X17970063Y-11681436D01*
X17970063Y-11681436D02*
X17960539Y-11662388D01*
X17960539Y-11662388D02*
X17960539Y-11605246D01*
X17960539Y-11605246D02*
X17970063Y-11586198D01*
X17970063Y-11586198D02*
X17979587Y-11576674D01*
X17979587Y-11576674D02*
X17998634Y-11567150D01*
X17998634Y-11567150D02*
X18027206Y-11567150D01*
X18027206Y-11567150D02*
X18046253Y-11576674D01*
X18046253Y-11576674D02*
X18055777Y-11586198D01*
X18055777Y-11586198D02*
X18065301Y-11605246D01*
X18065301Y-11605246D02*
X18065301Y-11662388D01*
X18065301Y-11662388D02*
X18055777Y-11681436D01*
X18055777Y-11681436D02*
X18046253Y-11690960D01*
X18046253Y-11690960D02*
X18027206Y-11700484D01*
X18027206Y-11700484D02*
X17998634Y-11700484D01*
X18179587Y-11700484D02*
X18160539Y-11690960D01*
X18160539Y-11690960D02*
X18151015Y-11671912D01*
X18151015Y-11671912D02*
X18151015Y-11500484D01*
X18331968Y-11690960D02*
X18312920Y-11700484D01*
X18312920Y-11700484D02*
X18274825Y-11700484D01*
X18274825Y-11700484D02*
X18255777Y-11690960D01*
X18255777Y-11690960D02*
X18246253Y-11671912D01*
X18246253Y-11671912D02*
X18246253Y-11595722D01*
X18246253Y-11595722D02*
X18255777Y-11576674D01*
X18255777Y-11576674D02*
X18274825Y-11567150D01*
X18274825Y-11567150D02*
X18312920Y-11567150D01*
X18312920Y-11567150D02*
X18331968Y-11576674D01*
X18331968Y-11576674D02*
X18341492Y-11595722D01*
X18341492Y-11595722D02*
X18341492Y-11614769D01*
X18341492Y-11614769D02*
X18246253Y-11633817D01*
X18408158Y-11776674D02*
X18417682Y-11767150D01*
X18417682Y-11767150D02*
X18436730Y-11738579D01*
X18436730Y-11738579D02*
X18446253Y-11719531D01*
X18446253Y-11719531D02*
X18455777Y-11690960D01*
X18455777Y-11690960D02*
X18465301Y-11643341D01*
X18465301Y-11643341D02*
X18465301Y-11605246D01*
X18465301Y-11605246D02*
X18455777Y-11557627D01*
X18455777Y-11557627D02*
X18446253Y-11529055D01*
X18446253Y-11529055D02*
X18436730Y-11510008D01*
X18436730Y-11510008D02*
X18417682Y-11481436D01*
X18417682Y-11481436D02*
X18408158Y-11471912D01*
M02*
