%TF.GenerationSoftware,KiCad,Pcbnew,7.0.6*%
%TF.CreationDate,2023-08-09T20:57:22-04:00*%
%TF.ProjectId,miniclick,6d696e69-636c-4696-936b-2e6b69636164,rev?*%
%TF.SameCoordinates,Original*%
%TF.FileFunction,Copper,L1,Top*%
%TF.FilePolarity,Positive*%
%FSLAX46Y46*%
G04 Gerber Fmt 4.6, Leading zero omitted, Abs format (unit mm)*
G04 Created by KiCad (PCBNEW 7.0.6) date 2023-08-09 20:57:22*
%MOMM*%
%LPD*%
G01*
G04 APERTURE LIST*
%TA.AperFunction,SMDPad,CuDef*%
%ADD10R,2.200000X1.000000*%
%TD*%
%TA.AperFunction,SMDPad,CuDef*%
%ADD11C,1.500000*%
%TD*%
%TA.AperFunction,SMDPad,CuDef*%
%ADD12R,0.700000X0.700000*%
%TD*%
%TA.AperFunction,ComponentPad*%
%ADD13R,0.850000X0.850000*%
%TD*%
%TA.AperFunction,SMDPad,CuDef*%
%ADD14R,1.000000X2.200000*%
%TD*%
%TA.AperFunction,ViaPad*%
%ADD15C,0.800000*%
%TD*%
%TA.AperFunction,Conductor*%
%ADD16C,0.200000*%
%TD*%
%TA.AperFunction,Conductor*%
%ADD17C,0.300000*%
%TD*%
%TA.AperFunction,Conductor*%
%ADD18C,0.600000*%
%TD*%
%TA.AperFunction,Conductor*%
%ADD19C,0.150000*%
%TD*%
G04 APERTURE END LIST*
D10*
%TO.P,SW2,1,1*%
%TO.N,GND*%
X145100000Y-102000000D03*
%TO.P,SW2,2,2*%
%TO.N,unconnected-(SW2-Pad2)*%
X150900000Y-102000000D03*
%TO.P,SW2,3,K*%
%TO.N,unconnected-(SW2-K-Pad3)*%
X145100000Y-106000000D03*
%TO.P,SW2,4,A*%
%TO.N,PA4*%
X150900000Y-106000000D03*
%TD*%
D11*
%TO.P,TP6,1,1*%
%TO.N,ADRS_LED*%
X142100000Y-88400000D03*
%TD*%
D12*
%TO.P,D5,1,VDD*%
%TO.N,+3.3V*%
X155415000Y-91050000D03*
%TO.P,D5,2,DOUT*%
%TO.N,unconnected-(D5-DOUT-Pad2)*%
X155415000Y-89950000D03*
%TO.P,D5,3,VSS*%
%TO.N,GND*%
X153585000Y-89950000D03*
%TO.P,D5,4,DIN*%
%TO.N,Net-(D4-DOUT)*%
X153585000Y-91050000D03*
%TD*%
D13*
%TO.P,J4,1,Pin_1*%
%TO.N,unconnected-(J4-Pin_1-Pad1)*%
X148000000Y-97000000D03*
%TD*%
D10*
%TO.P,SW5,1,1*%
%TO.N,GND*%
X150900000Y-92000000D03*
%TO.P,SW5,2,2*%
%TO.N,unconnected-(SW5-Pad2)*%
X145100000Y-92000000D03*
%TO.P,SW5,3,K*%
%TO.N,unconnected-(SW5-K-Pad3)*%
X150900000Y-88000000D03*
%TO.P,SW5,4,A*%
%TO.N,PA2*%
X145100000Y-88000000D03*
%TD*%
D14*
%TO.P,SW1,1,1*%
%TO.N,GND*%
X157000000Y-94100000D03*
%TO.P,SW1,2,2*%
%TO.N,unconnected-(SW1-Pad2)*%
X157000000Y-99900000D03*
%TO.P,SW1,3,K*%
%TO.N,unconnected-(SW1-K-Pad3)*%
X153000000Y-94100000D03*
%TO.P,SW1,4,A*%
%TO.N,PA3*%
X153000000Y-99900000D03*
%TD*%
%TO.P,SW3,1,1*%
%TO.N,GND*%
X139000000Y-99900000D03*
%TO.P,SW3,2,2*%
%TO.N,unconnected-(SW3-Pad2)*%
X139000000Y-94100000D03*
%TO.P,SW3,3,K*%
%TO.N,unconnected-(SW3-K-Pad3)*%
X143000000Y-99900000D03*
%TO.P,SW3,4,A*%
%TO.N,PA5*%
X143000000Y-94100000D03*
%TD*%
D12*
%TO.P,D3,1,VDD*%
%TO.N,+3.3V*%
X142415000Y-104550000D03*
%TO.P,D3,2,DOUT*%
%TO.N,Net-(D3-DOUT)*%
X142415000Y-103450000D03*
%TO.P,D3,3,VSS*%
%TO.N,GND*%
X140585000Y-103450000D03*
%TO.P,D3,4,DIN*%
%TO.N,Net-(D2-DOUT)*%
X140585000Y-104550000D03*
%TD*%
%TO.P,D2,1,VDD*%
%TO.N,+3.3V*%
X140585000Y-90450000D03*
%TO.P,D2,2,DOUT*%
%TO.N,Net-(D2-DOUT)*%
X140585000Y-91550000D03*
%TO.P,D2,3,VSS*%
%TO.N,GND*%
X142415000Y-91550000D03*
%TO.P,D2,4,DIN*%
%TO.N,ADRS_LED*%
X142415000Y-90450000D03*
%TD*%
%TO.P,D4,1,VDD*%
%TO.N,+3.3V*%
X155415000Y-104550000D03*
%TO.P,D4,2,DOUT*%
%TO.N,Net-(D4-DOUT)*%
X155415000Y-103450000D03*
%TO.P,D4,3,VSS*%
%TO.N,GND*%
X153585000Y-103450000D03*
%TO.P,D4,4,DIN*%
%TO.N,Net-(D3-DOUT)*%
X153585000Y-104550000D03*
%TD*%
D15*
%TO.N,+3.3V*%
X150500000Y-100500000D03*
X149355378Y-96544622D03*
X152100000Y-79800000D03*
X157367812Y-90195892D03*
X148700000Y-100500000D03*
X149600000Y-100500000D03*
X139900000Y-105800000D03*
X150100000Y-97400000D03*
X140800000Y-89000000D03*
X139400000Y-90600000D03*
X156200000Y-105600000D03*
%TO.N,GND*%
X141200000Y-101800000D03*
X150700000Y-99000000D03*
X152100000Y-81700000D03*
X153100000Y-88800000D03*
X154500000Y-105800000D03*
X141600000Y-95700000D03*
X157100000Y-97200000D03*
X152900000Y-96000000D03*
X144100000Y-90500000D03*
X146600000Y-103000000D03*
X148900000Y-103000000D03*
X139300000Y-102100000D03*
X145500000Y-103000000D03*
X148900000Y-99000000D03*
X154700000Y-96000000D03*
X144400000Y-103000000D03*
X149800000Y-99000000D03*
%TO.N,ADRS_LED*%
X143400000Y-89400000D03*
%TO.N,SWDIO*%
X155800000Y-93100000D03*
X148100000Y-83800000D03*
%TO.N,SWDCLK*%
X143900000Y-81100000D03*
X156500000Y-89700000D03*
%TO.N,PA3*%
X146600000Y-94300000D03*
%TO.N,PA4*%
X150400000Y-103850500D03*
X148400000Y-105900000D03*
X145500000Y-93700000D03*
%TO.N,PA5*%
X144100000Y-93500000D03*
%TO.N,PA2*%
X145700000Y-86600000D03*
%TO.N,SDA*%
X154400000Y-101000000D03*
X146900000Y-87400000D03*
%TO.N,SCL*%
X154367926Y-102249057D03*
X148500000Y-87300000D03*
%TD*%
D16*
%TO.N,+3.3V*%
X140000000Y-105700000D02*
X139900000Y-105800000D01*
X156513704Y-91050000D02*
X155415000Y-91050000D01*
X157367812Y-90195892D02*
X157367812Y-90532188D01*
X139900000Y-105800000D02*
X141500000Y-105800000D01*
X155415000Y-104915000D02*
X156100000Y-105600000D01*
X155415000Y-104550000D02*
X155415000Y-104915000D01*
X157367812Y-90195892D02*
X156513704Y-91050000D01*
X142415000Y-104550000D02*
X142415000Y-104885000D01*
X156200000Y-105700000D02*
X156100000Y-105600000D01*
X142415000Y-104885000D02*
X141600000Y-105700000D01*
X156100000Y-105600000D02*
X156200000Y-105600000D01*
X139550000Y-90450000D02*
X139400000Y-90600000D01*
X141500000Y-105800000D02*
X141600000Y-105700000D01*
X156200000Y-105600000D02*
X156200000Y-105700000D01*
X140585000Y-90450000D02*
X139550000Y-90450000D01*
%TO.N,GND*%
X139000000Y-101865000D02*
X139235000Y-102100000D01*
X139000000Y-99900000D02*
X139000000Y-101865000D01*
X139300000Y-102165000D02*
X140585000Y-103450000D01*
X153585000Y-89285000D02*
X153100000Y-88800000D01*
D17*
X142415000Y-91550000D02*
X143050000Y-91550000D01*
D18*
X145100000Y-102300000D02*
X144400000Y-103000000D01*
D17*
X143050000Y-91550000D02*
X144100000Y-90500000D01*
D18*
X145500000Y-103000000D02*
X145100000Y-102600000D01*
D16*
X154500000Y-103815000D02*
X154500000Y-105800000D01*
X153585000Y-89950000D02*
X153585000Y-89285000D01*
X153585000Y-103450000D02*
X154135000Y-103450000D01*
D18*
X145100000Y-102600000D02*
X145100000Y-102000000D01*
X146100000Y-103000000D02*
X145100000Y-102000000D01*
D16*
X157000000Y-97100000D02*
X157000000Y-94100000D01*
X139235000Y-102100000D02*
X139300000Y-102100000D01*
X157100000Y-97200000D02*
X157000000Y-97100000D01*
D18*
X145100000Y-102000000D02*
X145100000Y-102300000D01*
X146600000Y-103000000D02*
X146100000Y-103000000D01*
D16*
X150900000Y-92000000D02*
X150900000Y-91000000D01*
X154135000Y-103450000D02*
X154500000Y-103815000D01*
X150900000Y-91000000D02*
X153100000Y-88800000D01*
D17*
X144100000Y-90500000D02*
X144200000Y-90400000D01*
D16*
X139300000Y-102100000D02*
X139300000Y-102165000D01*
D19*
%TO.N,Net-(D2-DOUT)*%
X141210000Y-103925000D02*
X141210000Y-102825000D01*
X140400000Y-91735000D02*
X140585000Y-91550000D01*
X140585000Y-104550000D02*
X141210000Y-103925000D01*
X140400000Y-102015000D02*
X140400000Y-91735000D01*
X141210000Y-102825000D02*
X140400000Y-102015000D01*
D16*
%TO.N,ADRS_LED*%
X142415000Y-90450000D02*
X142415000Y-88715000D01*
X142415000Y-90450000D02*
X142415000Y-90385000D01*
X142415000Y-88715000D02*
X142100000Y-88400000D01*
X142415000Y-90385000D02*
X143400000Y-89400000D01*
%TO.N,Net-(D3-DOUT)*%
X144050000Y-104550000D02*
X153585000Y-104550000D01*
X142415000Y-103450000D02*
X142950000Y-103450000D01*
X142950000Y-103450000D02*
X144050000Y-104550000D01*
%TO.N,Net-(D4-DOUT)*%
X154000000Y-91465000D02*
X153585000Y-91050000D01*
X156100000Y-96100000D02*
X154000000Y-94000000D01*
X154000000Y-94000000D02*
X154000000Y-91465000D01*
X155415000Y-102585000D02*
X156100000Y-101900000D01*
X156100000Y-101900000D02*
X156100000Y-96100000D01*
X155415000Y-103450000D02*
X155415000Y-102585000D01*
%TO.N,SWDIO*%
X148100000Y-84800000D02*
X149100000Y-85800000D01*
X151089950Y-85800000D02*
X154765000Y-89475050D01*
X149100000Y-85800000D02*
X151089950Y-85800000D01*
X154765000Y-92765000D02*
X155100000Y-93100000D01*
X155100000Y-93100000D02*
X155800000Y-93100000D01*
X154765000Y-89475050D02*
X154765000Y-92765000D01*
X148100000Y-83800000D02*
X148100000Y-84800000D01*
%TO.N,SWDCLK*%
X156500000Y-89700000D02*
X147900000Y-81100000D01*
X147900000Y-81100000D02*
X143900000Y-81100000D01*
%TO.N,PA3*%
X145700000Y-95200000D02*
X146600000Y-94300000D01*
X145700000Y-96900000D02*
X145700000Y-95200000D01*
X151489950Y-98800000D02*
X150989950Y-98300000D01*
X147100000Y-98300000D02*
X145700000Y-96900000D01*
X153000000Y-98800000D02*
X151489950Y-98800000D01*
X150989950Y-98300000D02*
X147100000Y-98300000D01*
X153000000Y-99900000D02*
X153000000Y-98800000D01*
X146600000Y-94300000D02*
X146600000Y-94400000D01*
%TO.N,PA4*%
X148500000Y-106000000D02*
X150900000Y-106000000D01*
X144200000Y-95000000D02*
X145500000Y-93700000D01*
X144200000Y-100800000D02*
X144200000Y-95000000D01*
X150400000Y-103850500D02*
X150349500Y-103800000D01*
X150349500Y-103800000D02*
X144210050Y-103800000D01*
X143300000Y-101700000D02*
X144200000Y-100800000D01*
X144210050Y-103800000D02*
X143300000Y-102889950D01*
X148400000Y-105900000D02*
X148500000Y-106000000D01*
X143300000Y-102889950D02*
X143300000Y-101700000D01*
%TO.N,PA5*%
X143600000Y-94100000D02*
X144100000Y-93600000D01*
X144100000Y-93600000D02*
X144100000Y-93500000D01*
X144200000Y-93500000D02*
X144200000Y-93500000D01*
X144100000Y-93500000D02*
X144200000Y-93500000D01*
X143000000Y-94100000D02*
X143600000Y-94100000D01*
%TO.N,PA2*%
X145100000Y-87200000D02*
X145100000Y-88000000D01*
X145700000Y-86600000D02*
X145100000Y-87200000D01*
%TO.N,SDA*%
X147700000Y-93900000D02*
X151500000Y-97700000D01*
X154100000Y-97700000D02*
X154400000Y-98000000D01*
X154400000Y-98000000D02*
X154400000Y-101000000D01*
X147700000Y-88500000D02*
X147700000Y-93900000D01*
X151500000Y-97700000D02*
X154100000Y-97700000D01*
X146900000Y-87400000D02*
X146900000Y-87700000D01*
X146900000Y-87700000D02*
X147700000Y-88500000D01*
%TO.N,SCL*%
X151900000Y-96800000D02*
X148725000Y-93625000D01*
X155700000Y-97300000D02*
X155200000Y-96800000D01*
X148725000Y-87525000D02*
X148500000Y-87300000D01*
X155200000Y-96800000D02*
X151900000Y-96800000D01*
X155700000Y-100916983D02*
X155700000Y-97300000D01*
X148725000Y-93625000D02*
X148725000Y-87525000D01*
X154367926Y-102249057D02*
X155700000Y-100916983D01*
%TD*%
%TA.AperFunction,Conductor*%
%TO.N,GND*%
G36*
X152002695Y-78000735D02*
G01*
X152045519Y-78004482D01*
X152171771Y-78016918D01*
X152191685Y-78020541D01*
X152258349Y-78038403D01*
X152351570Y-78066682D01*
X152367971Y-78072958D01*
X152435411Y-78104406D01*
X152438375Y-78105888D01*
X152475969Y-78125982D01*
X152522327Y-78150762D01*
X152528667Y-78154657D01*
X152594828Y-78200983D01*
X152598600Y-78203844D01*
X152670808Y-78263103D01*
X152675309Y-78267182D01*
X152732815Y-78324688D01*
X152736895Y-78329190D01*
X152796154Y-78401398D01*
X152799015Y-78405170D01*
X152845341Y-78471331D01*
X152849236Y-78477671D01*
X152894101Y-78561605D01*
X152895614Y-78564631D01*
X152927040Y-78632027D01*
X152933319Y-78648435D01*
X152961601Y-78741669D01*
X152979454Y-78808299D01*
X152983082Y-78828238D01*
X152995523Y-78954554D01*
X152999264Y-78997302D01*
X152999500Y-79002710D01*
X152999500Y-84968299D01*
X152998077Y-84973142D01*
X152999342Y-84990815D01*
X152999500Y-84995239D01*
X152999500Y-85131127D01*
X153018739Y-85277253D01*
X153018690Y-85277563D01*
X153019058Y-85279672D01*
X153020885Y-85293555D01*
X153021257Y-85297219D01*
X153026647Y-85372580D01*
X153031974Y-85387325D01*
X153032938Y-85387134D01*
X153033729Y-85391112D01*
X153066823Y-85514622D01*
X153065160Y-85584472D01*
X153025997Y-85642334D01*
X152961769Y-85669838D01*
X152892866Y-85658251D01*
X152859367Y-85634396D01*
X148156922Y-80931951D01*
X148151278Y-80925465D01*
X148143956Y-80915770D01*
X148108624Y-80883560D01*
X148106573Y-80881602D01*
X148092797Y-80867826D01*
X148090586Y-80866311D01*
X148083853Y-80860978D01*
X148060933Y-80840084D01*
X148054470Y-80837580D01*
X148029192Y-80824256D01*
X148023481Y-80820344D01*
X148023478Y-80820343D01*
X148023479Y-80820343D01*
X147993302Y-80813244D01*
X147985094Y-80810703D01*
X147956173Y-80799500D01*
X147949249Y-80799500D01*
X147920858Y-80796206D01*
X147914119Y-80794621D01*
X147883409Y-80798905D01*
X147874834Y-80799500D01*
X144487482Y-80799500D01*
X144420443Y-80779815D01*
X144389106Y-80750986D01*
X144328283Y-80671719D01*
X144328282Y-80671718D01*
X144202841Y-80575464D01*
X144056762Y-80514956D01*
X144056760Y-80514955D01*
X143900001Y-80494318D01*
X143899999Y-80494318D01*
X143743239Y-80514955D01*
X143743237Y-80514956D01*
X143597160Y-80575463D01*
X143471718Y-80671718D01*
X143375463Y-80797160D01*
X143314956Y-80943237D01*
X143314955Y-80943239D01*
X143294318Y-81099998D01*
X143294318Y-81100001D01*
X143314955Y-81256760D01*
X143314956Y-81256762D01*
X143375464Y-81402841D01*
X143471718Y-81528282D01*
X143597159Y-81624536D01*
X143743238Y-81685044D01*
X143821619Y-81695363D01*
X143899999Y-81705682D01*
X143900000Y-81705682D01*
X143900001Y-81705682D01*
X143952254Y-81698802D01*
X144056762Y-81685044D01*
X144202841Y-81624536D01*
X144328282Y-81528282D01*
X144389106Y-81449013D01*
X144445534Y-81407811D01*
X144487482Y-81400500D01*
X147724167Y-81400500D01*
X147791206Y-81420185D01*
X147811848Y-81436819D01*
X155562847Y-89187819D01*
X155596332Y-89249142D01*
X155591348Y-89318834D01*
X155549476Y-89374767D01*
X155484012Y-89399184D01*
X155475166Y-89399500D01*
X155140929Y-89399500D01*
X155073890Y-89379815D01*
X155028135Y-89327011D01*
X155027494Y-89325585D01*
X155017451Y-89302840D01*
X155017206Y-89302285D01*
X155012309Y-89297388D01*
X154994563Y-89274984D01*
X154990918Y-89269097D01*
X154966172Y-89250410D01*
X154959694Y-89244773D01*
X151346871Y-85631950D01*
X151341228Y-85625465D01*
X151333906Y-85615770D01*
X151298574Y-85583560D01*
X151296523Y-85581602D01*
X151282747Y-85567826D01*
X151280536Y-85566311D01*
X151273803Y-85560978D01*
X151250883Y-85540084D01*
X151244420Y-85537580D01*
X151219142Y-85524256D01*
X151213431Y-85520344D01*
X151213428Y-85520343D01*
X151213429Y-85520343D01*
X151183252Y-85513244D01*
X151175044Y-85510703D01*
X151146123Y-85499500D01*
X151139199Y-85499500D01*
X151110808Y-85496206D01*
X151104069Y-85494621D01*
X151073359Y-85498905D01*
X151064784Y-85499500D01*
X149275833Y-85499500D01*
X149208794Y-85479815D01*
X149188152Y-85463181D01*
X148436819Y-84711848D01*
X148403334Y-84650525D01*
X148400500Y-84624167D01*
X148400500Y-84387482D01*
X148420185Y-84320443D01*
X148449014Y-84289106D01*
X148528282Y-84228282D01*
X148624536Y-84102841D01*
X148685044Y-83956762D01*
X148705682Y-83800000D01*
X148685044Y-83643238D01*
X148624536Y-83497159D01*
X148528282Y-83371718D01*
X148402841Y-83275464D01*
X148256762Y-83214956D01*
X148256760Y-83214955D01*
X148100001Y-83194318D01*
X148099999Y-83194318D01*
X147943239Y-83214955D01*
X147943237Y-83214956D01*
X147797160Y-83275463D01*
X147671718Y-83371718D01*
X147575463Y-83497160D01*
X147514956Y-83643237D01*
X147514955Y-83643239D01*
X147494318Y-83799998D01*
X147494318Y-83800001D01*
X147514955Y-83956760D01*
X147514956Y-83956762D01*
X147575464Y-84102841D01*
X147671718Y-84228282D01*
X147671719Y-84228283D01*
X147750986Y-84289106D01*
X147792189Y-84345534D01*
X147799500Y-84387482D01*
X147799500Y-84737158D01*
X147798905Y-84745732D01*
X147797227Y-84757763D01*
X147799434Y-84805509D01*
X147799500Y-84808372D01*
X147799500Y-84827845D01*
X147799993Y-84830482D01*
X147800982Y-84839015D01*
X147802415Y-84869991D01*
X147802416Y-84869997D01*
X147805214Y-84876334D01*
X147813664Y-84903620D01*
X147814937Y-84910429D01*
X147814937Y-84910430D01*
X147831260Y-84936793D01*
X147835263Y-84944386D01*
X147847794Y-84972765D01*
X147847795Y-84972766D01*
X147847796Y-84972768D01*
X147852689Y-84977661D01*
X147870435Y-85000065D01*
X147874077Y-85005948D01*
X147874080Y-85005951D01*
X147898826Y-85024639D01*
X147905311Y-85030282D01*
X148843081Y-85968053D01*
X148848723Y-85974537D01*
X148856039Y-85984224D01*
X148856040Y-85984225D01*
X148856042Y-85984228D01*
X148873069Y-85999750D01*
X148891364Y-86016429D01*
X148893412Y-86018384D01*
X148907203Y-86032175D01*
X148908663Y-86033175D01*
X148909419Y-86033693D01*
X148916158Y-86039031D01*
X148939063Y-86059913D01*
X148939065Y-86059914D01*
X148939067Y-86059916D01*
X148945523Y-86062417D01*
X148970807Y-86075743D01*
X148976520Y-86079657D01*
X148991214Y-86083112D01*
X149006698Y-86086755D01*
X149014911Y-86089298D01*
X149043826Y-86100500D01*
X149043827Y-86100500D01*
X149050753Y-86100500D01*
X149079141Y-86103793D01*
X149085882Y-86105379D01*
X149116594Y-86101094D01*
X149125168Y-86100500D01*
X150914117Y-86100500D01*
X150981156Y-86120185D01*
X151001798Y-86136819D01*
X151952798Y-87087819D01*
X151986283Y-87149142D01*
X151981299Y-87218834D01*
X151939427Y-87274767D01*
X151873963Y-87299184D01*
X151865117Y-87299500D01*
X149780247Y-87299500D01*
X149721770Y-87311131D01*
X149721769Y-87311132D01*
X149655447Y-87355447D01*
X149611132Y-87421769D01*
X149611131Y-87421770D01*
X149599500Y-87480247D01*
X149599500Y-88519752D01*
X149611131Y-88578229D01*
X149611132Y-88578230D01*
X149655447Y-88644552D01*
X149721769Y-88688867D01*
X149721770Y-88688868D01*
X149780247Y-88700499D01*
X149780250Y-88700500D01*
X149780252Y-88700500D01*
X152019750Y-88700500D01*
X152019751Y-88700499D01*
X152036544Y-88697159D01*
X152078229Y-88688868D01*
X152078229Y-88688867D01*
X152078231Y-88688867D01*
X152144552Y-88644552D01*
X152188867Y-88578231D01*
X152188867Y-88578229D01*
X152188868Y-88578229D01*
X152200499Y-88519752D01*
X152200500Y-88519750D01*
X152200500Y-87634882D01*
X152220185Y-87567843D01*
X152272989Y-87522088D01*
X152342147Y-87512144D01*
X152405703Y-87541169D01*
X152412166Y-87547187D01*
X153427818Y-88562839D01*
X154428181Y-89563202D01*
X154461666Y-89624525D01*
X154464500Y-89650883D01*
X154464500Y-91205167D01*
X154444815Y-91272206D01*
X154392011Y-91317961D01*
X154322853Y-91327905D01*
X154259297Y-91298880D01*
X154252819Y-91292848D01*
X154247309Y-91287338D01*
X154229563Y-91264934D01*
X154225918Y-91259047D01*
X154201172Y-91240360D01*
X154194694Y-91234723D01*
X154171819Y-91211847D01*
X154138334Y-91150525D01*
X154135500Y-91124167D01*
X154135500Y-90680249D01*
X154135499Y-90680247D01*
X154123868Y-90621770D01*
X154123867Y-90621769D01*
X154079552Y-90555447D01*
X154013230Y-90511132D01*
X154013229Y-90511131D01*
X153954752Y-90499500D01*
X153954748Y-90499500D01*
X153215252Y-90499500D01*
X153215247Y-90499500D01*
X153156770Y-90511131D01*
X153156769Y-90511132D01*
X153090447Y-90555447D01*
X153046132Y-90621769D01*
X153046131Y-90621770D01*
X153034500Y-90680247D01*
X153034500Y-91419752D01*
X153046131Y-91478229D01*
X153046132Y-91478230D01*
X153090447Y-91544552D01*
X153156769Y-91588867D01*
X153156770Y-91588868D01*
X153215247Y-91600499D01*
X153215250Y-91600500D01*
X153215252Y-91600500D01*
X153575500Y-91600500D01*
X153642539Y-91620185D01*
X153688294Y-91672989D01*
X153699500Y-91724500D01*
X153699500Y-92684160D01*
X153679815Y-92751199D01*
X153627011Y-92796954D01*
X153557853Y-92806898D01*
X153551309Y-92805777D01*
X153519752Y-92799500D01*
X153519748Y-92799500D01*
X152480252Y-92799500D01*
X152480247Y-92799500D01*
X152421770Y-92811131D01*
X152421769Y-92811132D01*
X152355447Y-92855447D01*
X152311132Y-92921769D01*
X152311131Y-92921770D01*
X152299500Y-92980247D01*
X152299500Y-95219752D01*
X152311131Y-95278229D01*
X152311132Y-95278230D01*
X152355447Y-95344552D01*
X152421769Y-95388867D01*
X152421770Y-95388868D01*
X152480247Y-95400499D01*
X152480250Y-95400500D01*
X152480252Y-95400500D01*
X153519750Y-95400500D01*
X153519751Y-95400499D01*
X153534568Y-95397552D01*
X153578229Y-95388868D01*
X153578229Y-95388867D01*
X153578231Y-95388867D01*
X153644552Y-95344552D01*
X153688867Y-95278231D01*
X153688867Y-95278229D01*
X153688868Y-95278229D01*
X153699422Y-95225166D01*
X153700500Y-95219748D01*
X153700500Y-94424833D01*
X153720185Y-94357794D01*
X153772989Y-94312039D01*
X153842147Y-94302095D01*
X153905703Y-94331120D01*
X153912181Y-94337152D01*
X155763181Y-96188152D01*
X155796666Y-96249475D01*
X155799500Y-96275833D01*
X155799500Y-96675167D01*
X155779815Y-96742206D01*
X155727011Y-96787961D01*
X155657853Y-96797905D01*
X155594297Y-96768880D01*
X155587819Y-96762848D01*
X155456922Y-96631951D01*
X155451278Y-96625465D01*
X155443956Y-96615770D01*
X155408624Y-96583560D01*
X155406573Y-96581602D01*
X155392797Y-96567826D01*
X155390586Y-96566311D01*
X155383853Y-96560978D01*
X155360933Y-96540084D01*
X155354470Y-96537580D01*
X155329192Y-96524256D01*
X155323481Y-96520344D01*
X155323478Y-96520343D01*
X155323479Y-96520343D01*
X155293302Y-96513244D01*
X155285094Y-96510703D01*
X155256173Y-96499500D01*
X155249249Y-96499500D01*
X155220858Y-96496206D01*
X155214119Y-96494621D01*
X155183409Y-96498905D01*
X155174834Y-96499500D01*
X152075833Y-96499500D01*
X152008794Y-96479815D01*
X151988152Y-96463181D01*
X149061819Y-93536847D01*
X149028334Y-93475524D01*
X149025500Y-93449166D01*
X149025500Y-87625178D01*
X149034939Y-87577725D01*
X149043623Y-87556760D01*
X149085044Y-87456762D01*
X149098802Y-87352254D01*
X149105682Y-87300001D01*
X149105682Y-87299998D01*
X149085821Y-87149142D01*
X149085044Y-87143238D01*
X149024536Y-86997159D01*
X148928282Y-86871718D01*
X148802841Y-86775464D01*
X148757690Y-86756762D01*
X148656762Y-86714956D01*
X148656760Y-86714955D01*
X148500001Y-86694318D01*
X148499999Y-86694318D01*
X148343239Y-86714955D01*
X148343237Y-86714956D01*
X148197160Y-86775463D01*
X148071718Y-86871718D01*
X147975463Y-86997160D01*
X147914956Y-87143237D01*
X147914955Y-87143239D01*
X147894318Y-87299998D01*
X147894318Y-87300001D01*
X147914955Y-87456760D01*
X147914956Y-87456762D01*
X147965060Y-87577725D01*
X147975464Y-87602841D01*
X148071718Y-87728282D01*
X148197159Y-87824536D01*
X148197160Y-87824536D01*
X148197161Y-87824537D01*
X148230438Y-87838321D01*
X148343238Y-87885044D01*
X148343240Y-87885044D01*
X148347952Y-87886996D01*
X148402356Y-87930837D01*
X148424421Y-87997131D01*
X148424500Y-88001557D01*
X148424500Y-93562158D01*
X148423905Y-93570732D01*
X148422227Y-93582763D01*
X148424434Y-93630509D01*
X148424500Y-93633372D01*
X148424500Y-93652845D01*
X148424993Y-93655482D01*
X148425982Y-93664015D01*
X148427415Y-93694991D01*
X148427416Y-93694997D01*
X148430214Y-93701334D01*
X148438664Y-93728620D01*
X148439937Y-93735429D01*
X148439937Y-93735430D01*
X148456260Y-93761793D01*
X148460263Y-93769386D01*
X148472794Y-93797765D01*
X148472795Y-93797766D01*
X148472796Y-93797768D01*
X148477689Y-93802661D01*
X148495435Y-93825065D01*
X148499077Y-93830948D01*
X148499080Y-93830951D01*
X148523826Y-93849639D01*
X148530311Y-93855282D01*
X151643078Y-96968049D01*
X151648721Y-96974533D01*
X151656041Y-96984226D01*
X151656042Y-96984228D01*
X151677314Y-97003620D01*
X151691375Y-97016439D01*
X151693423Y-97018394D01*
X151707203Y-97032174D01*
X151709413Y-97033688D01*
X151716143Y-97039018D01*
X151727016Y-97048930D01*
X151739064Y-97059914D01*
X151739065Y-97059914D01*
X151739067Y-97059916D01*
X151745530Y-97062419D01*
X151770807Y-97075743D01*
X151776519Y-97079656D01*
X151806702Y-97086754D01*
X151814903Y-97089294D01*
X151843827Y-97100500D01*
X151850751Y-97100500D01*
X151879141Y-97103793D01*
X151885881Y-97105379D01*
X151916590Y-97101095D01*
X151925166Y-97100500D01*
X155024167Y-97100500D01*
X155091206Y-97120185D01*
X155111848Y-97136819D01*
X155363181Y-97388152D01*
X155396666Y-97449475D01*
X155399500Y-97475833D01*
X155399500Y-100741149D01*
X155379815Y-100808188D01*
X155363181Y-100828831D01*
X155205158Y-100986853D01*
X155143835Y-101020337D01*
X155074143Y-101015353D01*
X155018210Y-100973481D01*
X154994538Y-100915356D01*
X154985044Y-100843238D01*
X154924536Y-100697159D01*
X154828282Y-100571718D01*
X154828280Y-100571717D01*
X154828280Y-100571716D01*
X154749014Y-100510894D01*
X154707811Y-100454466D01*
X154700500Y-100412518D01*
X154700500Y-98062838D01*
X154701095Y-98054262D01*
X154702771Y-98042239D01*
X154702773Y-98042235D01*
X154700566Y-97994490D01*
X154700500Y-97991627D01*
X154700500Y-97972159D01*
X154700499Y-97972153D01*
X154700009Y-97969533D01*
X154699016Y-97960980D01*
X154698967Y-97959916D01*
X154697585Y-97930008D01*
X154694788Y-97923675D01*
X154686332Y-97896368D01*
X154685061Y-97889567D01*
X154668736Y-97863202D01*
X154664735Y-97855612D01*
X154652206Y-97827235D01*
X154647309Y-97822338D01*
X154629563Y-97799934D01*
X154625918Y-97794047D01*
X154601172Y-97775360D01*
X154594694Y-97769723D01*
X154356922Y-97531951D01*
X154351278Y-97525465D01*
X154343956Y-97515770D01*
X154308624Y-97483560D01*
X154306573Y-97481602D01*
X154292797Y-97467826D01*
X154290586Y-97466311D01*
X154283853Y-97460978D01*
X154260933Y-97440084D01*
X154254470Y-97437580D01*
X154229192Y-97424256D01*
X154223481Y-97420344D01*
X154223478Y-97420343D01*
X154223479Y-97420343D01*
X154193302Y-97413244D01*
X154185094Y-97410703D01*
X154156173Y-97399500D01*
X154149249Y-97399500D01*
X154120858Y-97396206D01*
X154114119Y-97394621D01*
X154083409Y-97398905D01*
X154074834Y-97399500D01*
X151675833Y-97399500D01*
X151608794Y-97379815D01*
X151588152Y-97363181D01*
X148036819Y-93811848D01*
X148003334Y-93750525D01*
X148000500Y-93724167D01*
X148000500Y-88562839D01*
X148001095Y-88554263D01*
X148002771Y-88542240D01*
X148002773Y-88542236D01*
X148000566Y-88494491D01*
X148000500Y-88491628D01*
X148000500Y-88472159D01*
X148000499Y-88472153D01*
X148000009Y-88469533D01*
X147999016Y-88460980D01*
X147998952Y-88459596D01*
X147997585Y-88430009D01*
X147994788Y-88423676D01*
X147986332Y-88396370D01*
X147985061Y-88389567D01*
X147968738Y-88363205D01*
X147964731Y-88355602D01*
X147952207Y-88327237D01*
X147952206Y-88327236D01*
X147952206Y-88327235D01*
X147947309Y-88322338D01*
X147929563Y-88299934D01*
X147925918Y-88294047D01*
X147901172Y-88275360D01*
X147894694Y-88269723D01*
X147454793Y-87829821D01*
X147421308Y-87768499D01*
X147426292Y-87698807D01*
X147427913Y-87694688D01*
X147450360Y-87640496D01*
X147485044Y-87556762D01*
X147505682Y-87400000D01*
X147501525Y-87368428D01*
X147485044Y-87243239D01*
X147485044Y-87243238D01*
X147424536Y-87097159D01*
X147328282Y-86971718D01*
X147202841Y-86875464D01*
X147193797Y-86871718D01*
X147056762Y-86814956D01*
X147056760Y-86814955D01*
X146900001Y-86794318D01*
X146899999Y-86794318D01*
X146743239Y-86814955D01*
X146743237Y-86814956D01*
X146597160Y-86875463D01*
X146561023Y-86903192D01*
X146476517Y-86968036D01*
X146471717Y-86971719D01*
X146445962Y-87005284D01*
X146389534Y-87046486D01*
X146319788Y-87050640D01*
X146258868Y-87016427D01*
X146226115Y-86954709D01*
X146231930Y-86885082D01*
X146233009Y-86882383D01*
X146285044Y-86756762D01*
X146305682Y-86600000D01*
X146285044Y-86443238D01*
X146224536Y-86297159D01*
X146128282Y-86171718D01*
X146002841Y-86075464D01*
X145983889Y-86067614D01*
X145856762Y-86014956D01*
X145856760Y-86014955D01*
X145700001Y-85994318D01*
X145699999Y-85994318D01*
X145543239Y-86014955D01*
X145543237Y-86014956D01*
X145397160Y-86075463D01*
X145271718Y-86171718D01*
X145175463Y-86297160D01*
X145114956Y-86443237D01*
X145114955Y-86443239D01*
X145094318Y-86599998D01*
X145094318Y-86600001D01*
X145107359Y-86699060D01*
X145096593Y-86768095D01*
X145072101Y-86802926D01*
X144931948Y-86943080D01*
X144925464Y-86948722D01*
X144915768Y-86956044D01*
X144883559Y-86991374D01*
X144881585Y-86993442D01*
X144867827Y-87007200D01*
X144867822Y-87007206D01*
X144866306Y-87009420D01*
X144860976Y-87016148D01*
X144840083Y-87039066D01*
X144840083Y-87039067D01*
X144837578Y-87045533D01*
X144824259Y-87070802D01*
X144820345Y-87076515D01*
X144820343Y-87076521D01*
X144813244Y-87106699D01*
X144810702Y-87114907D01*
X144799500Y-87143826D01*
X144799500Y-87150751D01*
X144796206Y-87179141D01*
X144791990Y-87197066D01*
X144789573Y-87196497D01*
X144772082Y-87247278D01*
X144717225Y-87290550D01*
X144670969Y-87299500D01*
X143980247Y-87299500D01*
X143921770Y-87311131D01*
X143921769Y-87311132D01*
X143855447Y-87355447D01*
X143811132Y-87421769D01*
X143811131Y-87421770D01*
X143799500Y-87480247D01*
X143799500Y-88519752D01*
X143811131Y-88578229D01*
X143811132Y-88578230D01*
X143855447Y-88644552D01*
X143921769Y-88688867D01*
X143921770Y-88688868D01*
X143980247Y-88700499D01*
X143980250Y-88700500D01*
X143980252Y-88700500D01*
X146219750Y-88700500D01*
X146219751Y-88700499D01*
X146236544Y-88697159D01*
X146278229Y-88688868D01*
X146278229Y-88688867D01*
X146278231Y-88688867D01*
X146344552Y-88644552D01*
X146388867Y-88578231D01*
X146388867Y-88578229D01*
X146388868Y-88578229D01*
X146400499Y-88519752D01*
X146400500Y-88519750D01*
X146400500Y-88025081D01*
X146420185Y-87958042D01*
X146472989Y-87912287D01*
X146542147Y-87902343D01*
X146589153Y-87922144D01*
X146590119Y-87920472D01*
X146597157Y-87924534D01*
X146597159Y-87924536D01*
X146743238Y-87985044D01*
X146743239Y-87985044D01*
X146749190Y-87987509D01*
X146789418Y-88014389D01*
X147363181Y-88588152D01*
X147396666Y-88649475D01*
X147399500Y-88675833D01*
X147399500Y-93837158D01*
X147398905Y-93845732D01*
X147397227Y-93857763D01*
X147399434Y-93905509D01*
X147399500Y-93908372D01*
X147399500Y-93927845D01*
X147399993Y-93930482D01*
X147400982Y-93939015D01*
X147402415Y-93969991D01*
X147402416Y-93969997D01*
X147405214Y-93976334D01*
X147413664Y-94003620D01*
X147414937Y-94010429D01*
X147414937Y-94010430D01*
X147414939Y-94010433D01*
X147425165Y-94026950D01*
X147431260Y-94036793D01*
X147435263Y-94044386D01*
X147447794Y-94072765D01*
X147447795Y-94072766D01*
X147447796Y-94072768D01*
X147452689Y-94077661D01*
X147470435Y-94100065D01*
X147474077Y-94105948D01*
X147474080Y-94105951D01*
X147498826Y-94124639D01*
X147505311Y-94130282D01*
X149163551Y-95788523D01*
X149197036Y-95849846D01*
X149192052Y-95919538D01*
X149150180Y-95975471D01*
X149123323Y-95990765D01*
X149052538Y-96020085D01*
X148927096Y-96116340D01*
X148830841Y-96241782D01*
X148770070Y-96388495D01*
X148726228Y-96442899D01*
X148659934Y-96464963D01*
X148592235Y-96447683D01*
X148573098Y-96432817D01*
X148503230Y-96386132D01*
X148503229Y-96386131D01*
X148444752Y-96374500D01*
X148444748Y-96374500D01*
X147555252Y-96374500D01*
X147555247Y-96374500D01*
X147496770Y-96386131D01*
X147496769Y-96386132D01*
X147430447Y-96430447D01*
X147386132Y-96496769D01*
X147386131Y-96496770D01*
X147374500Y-96555247D01*
X147374500Y-97444752D01*
X147386131Y-97503229D01*
X147386132Y-97503230D01*
X147430447Y-97569552D01*
X147496769Y-97613867D01*
X147496770Y-97613868D01*
X147555247Y-97625499D01*
X147555250Y-97625500D01*
X147555252Y-97625500D01*
X148444750Y-97625500D01*
X148444751Y-97625499D01*
X148459568Y-97622552D01*
X148503229Y-97613868D01*
X148503229Y-97613867D01*
X148503231Y-97613867D01*
X148569552Y-97569552D01*
X148613867Y-97503231D01*
X148613867Y-97503229D01*
X148613868Y-97503229D01*
X148625499Y-97444752D01*
X148625500Y-97444750D01*
X148625500Y-96945148D01*
X148645185Y-96878109D01*
X148697989Y-96832354D01*
X148767147Y-96822410D01*
X148830703Y-96851435D01*
X148847875Y-96869661D01*
X148867672Y-96895462D01*
X148924861Y-96969992D01*
X148927096Y-96972904D01*
X149052537Y-97069158D01*
X149198616Y-97129666D01*
X149355378Y-97150304D01*
X149370003Y-97148378D01*
X149439036Y-97159142D01*
X149491293Y-97205521D01*
X149510180Y-97272789D01*
X149509128Y-97287502D01*
X149494318Y-97399998D01*
X149494318Y-97400001D01*
X149514955Y-97556760D01*
X149514956Y-97556762D01*
X149575464Y-97702842D01*
X149650027Y-97800014D01*
X149675221Y-97865183D01*
X149661183Y-97933628D01*
X149612369Y-97983617D01*
X149551651Y-97999500D01*
X147275833Y-97999500D01*
X147208794Y-97979815D01*
X147188152Y-97963181D01*
X146036819Y-96811848D01*
X146003334Y-96750525D01*
X146000500Y-96724167D01*
X146000500Y-95375832D01*
X146020185Y-95308793D01*
X146036815Y-95288155D01*
X146397073Y-94927896D01*
X146458394Y-94894413D01*
X146500936Y-94892640D01*
X146600000Y-94905682D01*
X146600001Y-94905682D01*
X146652253Y-94898802D01*
X146756762Y-94885044D01*
X146902841Y-94824536D01*
X147028282Y-94728282D01*
X147124536Y-94602841D01*
X147185044Y-94456762D01*
X147205682Y-94300000D01*
X147204946Y-94294413D01*
X147188931Y-94172765D01*
X147185044Y-94143238D01*
X147124536Y-93997159D01*
X147028282Y-93871718D01*
X146902841Y-93775464D01*
X146878677Y-93765455D01*
X146756762Y-93714956D01*
X146756760Y-93714955D01*
X146600001Y-93694318D01*
X146599999Y-93694318D01*
X146443239Y-93714955D01*
X146443237Y-93714956D01*
X146297156Y-93775465D01*
X146290119Y-93779528D01*
X146288500Y-93776725D01*
X146237428Y-93796438D01*
X146168991Y-93782362D01*
X146119028Y-93733520D01*
X146104240Y-93689047D01*
X146103713Y-93685043D01*
X146085044Y-93543238D01*
X146024536Y-93397159D01*
X145928282Y-93271718D01*
X145802841Y-93175464D01*
X145656762Y-93114956D01*
X145656760Y-93114955D01*
X145500001Y-93094318D01*
X145499999Y-93094318D01*
X145343239Y-93114955D01*
X145343237Y-93114956D01*
X145197160Y-93175463D01*
X145071718Y-93271718D01*
X144975463Y-93397160D01*
X144937570Y-93488642D01*
X144893728Y-93543046D01*
X144827434Y-93565110D01*
X144759735Y-93547830D01*
X144712125Y-93496693D01*
X144700070Y-93457374D01*
X144698989Y-93449166D01*
X144685044Y-93343238D01*
X144624536Y-93197159D01*
X144528282Y-93071718D01*
X144402841Y-92975464D01*
X144314955Y-92939060D01*
X144260553Y-92895220D01*
X144238488Y-92828926D01*
X144255767Y-92761227D01*
X144306904Y-92713616D01*
X144362409Y-92700500D01*
X146219750Y-92700500D01*
X146219751Y-92700499D01*
X146234568Y-92697552D01*
X146278229Y-92688868D01*
X146278229Y-92688867D01*
X146278231Y-92688867D01*
X146344552Y-92644552D01*
X146388867Y-92578231D01*
X146388867Y-92578229D01*
X146388868Y-92578229D01*
X146400499Y-92519752D01*
X146400500Y-92519750D01*
X146400500Y-91480249D01*
X146400499Y-91480247D01*
X146388868Y-91421770D01*
X146388867Y-91421769D01*
X146344552Y-91355447D01*
X146278230Y-91311132D01*
X146278229Y-91311131D01*
X146219752Y-91299500D01*
X146219748Y-91299500D01*
X143980252Y-91299500D01*
X143980247Y-91299500D01*
X143921770Y-91311131D01*
X143921769Y-91311132D01*
X143855447Y-91355447D01*
X143811132Y-91421769D01*
X143811131Y-91421770D01*
X143799500Y-91480247D01*
X143799500Y-92519752D01*
X143811131Y-92578229D01*
X143811132Y-92578230D01*
X143855447Y-92644552D01*
X143896104Y-92671718D01*
X143921769Y-92688867D01*
X143921771Y-92688868D01*
X143928843Y-92691798D01*
X143983246Y-92735639D01*
X144005310Y-92801934D01*
X143988030Y-92869633D01*
X143936892Y-92917243D01*
X143928841Y-92920919D01*
X143834459Y-92960013D01*
X143764990Y-92967482D01*
X143702511Y-92936207D01*
X143683905Y-92914343D01*
X143644552Y-92855447D01*
X143578230Y-92811132D01*
X143578229Y-92811131D01*
X143519752Y-92799500D01*
X143519748Y-92799500D01*
X142480252Y-92799500D01*
X142480247Y-92799500D01*
X142421770Y-92811131D01*
X142421769Y-92811132D01*
X142355447Y-92855447D01*
X142311132Y-92921769D01*
X142311131Y-92921770D01*
X142299500Y-92980247D01*
X142299500Y-95219752D01*
X142311131Y-95278229D01*
X142311132Y-95278230D01*
X142355447Y-95344552D01*
X142421769Y-95388867D01*
X142421770Y-95388868D01*
X142480247Y-95400499D01*
X142480250Y-95400500D01*
X142480252Y-95400500D01*
X143519750Y-95400500D01*
X143519751Y-95400499D01*
X143534568Y-95397552D01*
X143578229Y-95388868D01*
X143578229Y-95388867D01*
X143578231Y-95388867D01*
X143644552Y-95344552D01*
X143672398Y-95302877D01*
X143726010Y-95258073D01*
X143795335Y-95249366D01*
X143858362Y-95279520D01*
X143895082Y-95338963D01*
X143899500Y-95371769D01*
X143899500Y-98628230D01*
X143879815Y-98695269D01*
X143827011Y-98741024D01*
X143757853Y-98750968D01*
X143694297Y-98721943D01*
X143672398Y-98697122D01*
X143644551Y-98655446D01*
X143578230Y-98611132D01*
X143578229Y-98611131D01*
X143519752Y-98599500D01*
X143519748Y-98599500D01*
X142480252Y-98599500D01*
X142480247Y-98599500D01*
X142421770Y-98611131D01*
X142421769Y-98611132D01*
X142355447Y-98655447D01*
X142311132Y-98721769D01*
X142311131Y-98721770D01*
X142299500Y-98780247D01*
X142299500Y-101019752D01*
X142311131Y-101078229D01*
X142311132Y-101078230D01*
X142355447Y-101144552D01*
X142421769Y-101188867D01*
X142421770Y-101188868D01*
X142480247Y-101200499D01*
X142480250Y-101200500D01*
X142480252Y-101200500D01*
X143075166Y-101200500D01*
X143142205Y-101220185D01*
X143187960Y-101272989D01*
X143197904Y-101342147D01*
X143168879Y-101405703D01*
X143162857Y-101412170D01*
X143154379Y-101420649D01*
X143131946Y-101443081D01*
X143125464Y-101448722D01*
X143115768Y-101456044D01*
X143083559Y-101491374D01*
X143081585Y-101493442D01*
X143067827Y-101507200D01*
X143067822Y-101507206D01*
X143066306Y-101509420D01*
X143060976Y-101516148D01*
X143040083Y-101539066D01*
X143040083Y-101539067D01*
X143037578Y-101545533D01*
X143024259Y-101570802D01*
X143020345Y-101576515D01*
X143020343Y-101576521D01*
X143013244Y-101606699D01*
X143010702Y-101614907D01*
X142999500Y-101643826D01*
X142999500Y-101650751D01*
X142996206Y-101679141D01*
X142994621Y-101685877D01*
X142994621Y-101685881D01*
X142998905Y-101716590D01*
X142999500Y-101725166D01*
X142999500Y-102791122D01*
X142979815Y-102858161D01*
X142927011Y-102903916D01*
X142857853Y-102913860D01*
X142851309Y-102912739D01*
X142784752Y-102899500D01*
X142784748Y-102899500D01*
X142045252Y-102899500D01*
X142045247Y-102899500D01*
X141986770Y-102911131D01*
X141986769Y-102911132D01*
X141920447Y-102955447D01*
X141876132Y-103021769D01*
X141876131Y-103021770D01*
X141864500Y-103080247D01*
X141864500Y-103819752D01*
X141876131Y-103878229D01*
X141876132Y-103878231D01*
X141911464Y-103931107D01*
X141932343Y-103997784D01*
X141913859Y-104065165D01*
X141911465Y-104068889D01*
X141876133Y-104121766D01*
X141876131Y-104121770D01*
X141864500Y-104180247D01*
X141864500Y-104919748D01*
X141866631Y-104930463D01*
X141860402Y-105000054D01*
X141832694Y-105042333D01*
X141427235Y-105447793D01*
X141411847Y-105463181D01*
X141350524Y-105496666D01*
X141324166Y-105499500D01*
X140487482Y-105499500D01*
X140420443Y-105479815D01*
X140389106Y-105450986D01*
X140328283Y-105371719D01*
X140307077Y-105355447D01*
X140264628Y-105322874D01*
X140223427Y-105266448D01*
X140219272Y-105196702D01*
X140253485Y-105135781D01*
X140315202Y-105103029D01*
X140340116Y-105100500D01*
X140954750Y-105100500D01*
X140954751Y-105100499D01*
X140969568Y-105097552D01*
X141013229Y-105088868D01*
X141013229Y-105088867D01*
X141013231Y-105088867D01*
X141079552Y-105044552D01*
X141123867Y-104978231D01*
X141123867Y-104978229D01*
X141123868Y-104978229D01*
X141135499Y-104919752D01*
X141135500Y-104919750D01*
X141135500Y-104440477D01*
X141155185Y-104373438D01*
X141171815Y-104352800D01*
X141376990Y-104147624D01*
X141395774Y-104132209D01*
X141408624Y-104123624D01*
X141424076Y-104100500D01*
X141469515Y-104032495D01*
X141478193Y-103988867D01*
X141485500Y-103952133D01*
X141485500Y-103952128D01*
X141490896Y-103925000D01*
X141487882Y-103909845D01*
X141485500Y-103885657D01*
X141485500Y-102864344D01*
X141487883Y-102840151D01*
X141490897Y-102825000D01*
X141485500Y-102797867D01*
X141469515Y-102717505D01*
X141441471Y-102675534D01*
X141423994Y-102649378D01*
X141423992Y-102649376D01*
X141408624Y-102626376D01*
X141408622Y-102626374D01*
X141408621Y-102626373D01*
X141395775Y-102617790D01*
X141376985Y-102602369D01*
X140711819Y-101937202D01*
X140678334Y-101875879D01*
X140675500Y-101849521D01*
X140675500Y-92224500D01*
X140695185Y-92157461D01*
X140747989Y-92111706D01*
X140799500Y-92100500D01*
X140954750Y-92100500D01*
X140954751Y-92100499D01*
X140969568Y-92097552D01*
X141013229Y-92088868D01*
X141013229Y-92088867D01*
X141013231Y-92088867D01*
X141079552Y-92044552D01*
X141123867Y-91978231D01*
X141123867Y-91978229D01*
X141123868Y-91978229D01*
X141135499Y-91919752D01*
X141135500Y-91919750D01*
X141135500Y-91180249D01*
X141135499Y-91180247D01*
X141123868Y-91121770D01*
X141123867Y-91121768D01*
X141088535Y-91068892D01*
X141067656Y-91002215D01*
X141086140Y-90934835D01*
X141088535Y-90931108D01*
X141123867Y-90878231D01*
X141123868Y-90878229D01*
X141135499Y-90819752D01*
X141135500Y-90819750D01*
X141135500Y-90080249D01*
X141135499Y-90080247D01*
X141123868Y-90021770D01*
X141123867Y-90021769D01*
X141079552Y-89955447D01*
X141013230Y-89911132D01*
X141013229Y-89911131D01*
X140954752Y-89899500D01*
X140954748Y-89899500D01*
X140215252Y-89899500D01*
X140215247Y-89899500D01*
X140156770Y-89911131D01*
X140156769Y-89911132D01*
X140090447Y-89955447D01*
X140046132Y-90021769D01*
X140046132Y-90021770D01*
X140040578Y-90049692D01*
X140008193Y-90111603D01*
X139947477Y-90146177D01*
X139918961Y-90149500D01*
X139841419Y-90149500D01*
X139774380Y-90129815D01*
X139765933Y-90123876D01*
X139702842Y-90075464D01*
X139556762Y-90014956D01*
X139556760Y-90014955D01*
X139400001Y-89994318D01*
X139399999Y-89994318D01*
X139243239Y-90014955D01*
X139243237Y-90014956D01*
X139097160Y-90075463D01*
X138971718Y-90171718D01*
X138875463Y-90297160D01*
X138814956Y-90443237D01*
X138814955Y-90443239D01*
X138794318Y-90599998D01*
X138794318Y-90600001D01*
X138814955Y-90756760D01*
X138814956Y-90756762D01*
X138841046Y-90819750D01*
X138875464Y-90902841D01*
X138971718Y-91028282D01*
X139097159Y-91124536D01*
X139243238Y-91185044D01*
X139321619Y-91195363D01*
X139399999Y-91205682D01*
X139400000Y-91205682D01*
X139400001Y-91205682D01*
X139452253Y-91198802D01*
X139556762Y-91185044D01*
X139702841Y-91124536D01*
X139828282Y-91028282D01*
X139828285Y-91028277D01*
X139834029Y-91022535D01*
X139836443Y-91024949D01*
X139880064Y-90993047D01*
X139949806Y-90988837D01*
X140010753Y-91023002D01*
X140043555Y-91084693D01*
X140043721Y-91133893D01*
X140034500Y-91180252D01*
X140034500Y-91919752D01*
X140046131Y-91978229D01*
X140046132Y-91978230D01*
X140097233Y-92054707D01*
X140095569Y-92055818D01*
X140121664Y-92103598D01*
X140124500Y-92129966D01*
X140124500Y-101975655D01*
X140122116Y-101999847D01*
X140119103Y-102015000D01*
X140121923Y-102029179D01*
X140123640Y-102037807D01*
X140123647Y-102037849D01*
X140140483Y-102122490D01*
X140140484Y-102122493D01*
X140140485Y-102122495D01*
X140158860Y-102149995D01*
X140201373Y-102213621D01*
X140201376Y-102213624D01*
X140214221Y-102222206D01*
X140233011Y-102237627D01*
X140898181Y-102902797D01*
X140931666Y-102964120D01*
X140934500Y-102990478D01*
X140934500Y-103759522D01*
X140914815Y-103826561D01*
X140898181Y-103847203D01*
X140782203Y-103963181D01*
X140720880Y-103996666D01*
X140694522Y-103999500D01*
X140215247Y-103999500D01*
X140156770Y-104011131D01*
X140156769Y-104011132D01*
X140090447Y-104055447D01*
X140046132Y-104121769D01*
X140046131Y-104121770D01*
X140034500Y-104180247D01*
X140034500Y-104919752D01*
X140046131Y-104978229D01*
X140046132Y-104978230D01*
X140066493Y-105008702D01*
X140087371Y-105075379D01*
X140068887Y-105142759D01*
X140016908Y-105189450D01*
X139947938Y-105200626D01*
X139947207Y-105200532D01*
X139900003Y-105194318D01*
X139899999Y-105194318D01*
X139743239Y-105214955D01*
X139743237Y-105214956D01*
X139597160Y-105275463D01*
X139471718Y-105371718D01*
X139375463Y-105497160D01*
X139314956Y-105643237D01*
X139314955Y-105643239D01*
X139294318Y-105799998D01*
X139294318Y-105800001D01*
X139314955Y-105956760D01*
X139314956Y-105956762D01*
X139374521Y-106100566D01*
X139375464Y-106102841D01*
X139471718Y-106228282D01*
X139597159Y-106324536D01*
X139743238Y-106385044D01*
X139821619Y-106395363D01*
X139899999Y-106405682D01*
X139900000Y-106405682D01*
X139900001Y-106405682D01*
X139952254Y-106398802D01*
X140056762Y-106385044D01*
X140202841Y-106324536D01*
X140328282Y-106228282D01*
X140389106Y-106149013D01*
X140445534Y-106107811D01*
X140487482Y-106100500D01*
X141437159Y-106100500D01*
X141445733Y-106101095D01*
X141457761Y-106102772D01*
X141457761Y-106102771D01*
X141457765Y-106102773D01*
X141500920Y-106100778D01*
X141505510Y-106100566D01*
X141508373Y-106100500D01*
X141527843Y-106100500D01*
X141527844Y-106100500D01*
X141530468Y-106100009D01*
X141539021Y-106099016D01*
X141540245Y-106098959D01*
X141569992Y-106097585D01*
X141576322Y-106094789D01*
X141603629Y-106086332D01*
X141610433Y-106085061D01*
X141636797Y-106068736D01*
X141644392Y-106064733D01*
X141672765Y-106052206D01*
X141677661Y-106047309D01*
X141700069Y-106029561D01*
X141705952Y-106025919D01*
X141724639Y-106001171D01*
X141730278Y-105994692D01*
X141768210Y-105956760D01*
X141832174Y-105892797D01*
X141832173Y-105892797D01*
X142583056Y-105141913D01*
X142589541Y-105136271D01*
X142599226Y-105128958D01*
X142599228Y-105128958D01*
X142599229Y-105128956D01*
X142603760Y-105125536D01*
X142669125Y-105100853D01*
X142678474Y-105100500D01*
X142784750Y-105100500D01*
X142784751Y-105100499D01*
X142799568Y-105097552D01*
X142843229Y-105088868D01*
X142843229Y-105088867D01*
X142843231Y-105088867D01*
X142909552Y-105044552D01*
X142953867Y-104978231D01*
X142953867Y-104978229D01*
X142953868Y-104978229D01*
X142965499Y-104919752D01*
X142965500Y-104919750D01*
X142965500Y-104189833D01*
X142985185Y-104122794D01*
X143037989Y-104077039D01*
X143107147Y-104067095D01*
X143170703Y-104096120D01*
X143177181Y-104102152D01*
X143793078Y-104718049D01*
X143798721Y-104724533D01*
X143806041Y-104734226D01*
X143806042Y-104734228D01*
X143830659Y-104756669D01*
X143841375Y-104766439D01*
X143843423Y-104768394D01*
X143857203Y-104782174D01*
X143859413Y-104783688D01*
X143866143Y-104789018D01*
X143876370Y-104798341D01*
X143889065Y-104809915D01*
X143889066Y-104809915D01*
X143889067Y-104809916D01*
X143895521Y-104812416D01*
X143920806Y-104825744D01*
X143924619Y-104828355D01*
X143926519Y-104829657D01*
X143956710Y-104836757D01*
X143964905Y-104839295D01*
X143993827Y-104850500D01*
X144000752Y-104850500D01*
X144029140Y-104853793D01*
X144035881Y-104855379D01*
X144066591Y-104851094D01*
X144075166Y-104850500D01*
X152918961Y-104850500D01*
X152986000Y-104870185D01*
X153031755Y-104922989D01*
X153040578Y-104950308D01*
X153046132Y-104978229D01*
X153046132Y-104978230D01*
X153090447Y-105044552D01*
X153156769Y-105088867D01*
X153156770Y-105088868D01*
X153215247Y-105100499D01*
X153215250Y-105100500D01*
X153215252Y-105100500D01*
X153954750Y-105100500D01*
X153954751Y-105100499D01*
X153969568Y-105097552D01*
X154013229Y-105088868D01*
X154013229Y-105088867D01*
X154013231Y-105088867D01*
X154079552Y-105044552D01*
X154123867Y-104978231D01*
X154123867Y-104978229D01*
X154123868Y-104978229D01*
X154135499Y-104919752D01*
X154135500Y-104919750D01*
X154135500Y-104180249D01*
X154135499Y-104180247D01*
X154123868Y-104121770D01*
X154123867Y-104121769D01*
X154079552Y-104055447D01*
X154013230Y-104011132D01*
X154013229Y-104011131D01*
X153954752Y-103999500D01*
X153954748Y-103999500D01*
X153215252Y-103999500D01*
X153215247Y-103999500D01*
X153156770Y-104011131D01*
X153156769Y-104011132D01*
X153090447Y-104055447D01*
X153046132Y-104121769D01*
X153046132Y-104121770D01*
X153040578Y-104149692D01*
X153008193Y-104211603D01*
X152947477Y-104246177D01*
X152918961Y-104249500D01*
X151070285Y-104249500D01*
X151003246Y-104229815D01*
X150957491Y-104177011D01*
X150947547Y-104107853D01*
X150955724Y-104078048D01*
X150973090Y-104036122D01*
X150985044Y-104007262D01*
X151005682Y-103850500D01*
X151002530Y-103826561D01*
X150985044Y-103693739D01*
X150985044Y-103693738D01*
X150924536Y-103547659D01*
X150828282Y-103422218D01*
X150702841Y-103325964D01*
X150556762Y-103265456D01*
X150556760Y-103265455D01*
X150400001Y-103244818D01*
X150399999Y-103244818D01*
X150243239Y-103265455D01*
X150243237Y-103265456D01*
X150097160Y-103325963D01*
X149971716Y-103422219D01*
X149949644Y-103450986D01*
X149893216Y-103492189D01*
X149851268Y-103499500D01*
X144385883Y-103499500D01*
X144318844Y-103479815D01*
X144298202Y-103463181D01*
X143636819Y-102801797D01*
X143603334Y-102740474D01*
X143600500Y-102714116D01*
X143600500Y-101875831D01*
X143620185Y-101808792D01*
X143636814Y-101788155D01*
X144368059Y-101056910D01*
X144374532Y-101051279D01*
X144384224Y-101043959D01*
X144384228Y-101043958D01*
X144416459Y-101008600D01*
X144418367Y-101006602D01*
X144432174Y-100992797D01*
X144433684Y-100990592D01*
X144439023Y-100983851D01*
X144441763Y-100980844D01*
X144459916Y-100960933D01*
X144462416Y-100954478D01*
X144475749Y-100929182D01*
X144479656Y-100923481D01*
X144486757Y-100893285D01*
X144489292Y-100885101D01*
X144500500Y-100856173D01*
X144500500Y-100849248D01*
X144503795Y-100820855D01*
X144505378Y-100814123D01*
X144505379Y-100814119D01*
X144501095Y-100783408D01*
X144500500Y-100774833D01*
X144500500Y-100500001D01*
X148094318Y-100500001D01*
X148114955Y-100656760D01*
X148114956Y-100656762D01*
X148171185Y-100792512D01*
X148175464Y-100802841D01*
X148271718Y-100928282D01*
X148397159Y-101024536D01*
X148543238Y-101085044D01*
X148613522Y-101094297D01*
X148699999Y-101105682D01*
X148700000Y-101105682D01*
X148700001Y-101105682D01*
X148752253Y-101098802D01*
X148856762Y-101085044D01*
X149002841Y-101024536D01*
X149074513Y-100969539D01*
X149139682Y-100944345D01*
X149208127Y-100958383D01*
X149225487Y-100969540D01*
X149297157Y-101024535D01*
X149297158Y-101024535D01*
X149297159Y-101024536D01*
X149443238Y-101085044D01*
X149600000Y-101105682D01*
X149607317Y-101104718D01*
X149676350Y-101115482D01*
X149728607Y-101161860D01*
X149747495Y-101229128D01*
X149727017Y-101295929D01*
X149692397Y-101330758D01*
X149655447Y-101355447D01*
X149611132Y-101421769D01*
X149611131Y-101421770D01*
X149599500Y-101480247D01*
X149599500Y-102519752D01*
X149611131Y-102578229D01*
X149611132Y-102578230D01*
X149655447Y-102644552D01*
X149721769Y-102688867D01*
X149721770Y-102688868D01*
X149780247Y-102700499D01*
X149780250Y-102700500D01*
X149780252Y-102700500D01*
X152019750Y-102700500D01*
X152019751Y-102700499D01*
X152034568Y-102697552D01*
X152078229Y-102688868D01*
X152078229Y-102688867D01*
X152078231Y-102688867D01*
X152144552Y-102644552D01*
X152188867Y-102578231D01*
X152188867Y-102578229D01*
X152188868Y-102578229D01*
X152200499Y-102519752D01*
X152200500Y-102519750D01*
X152200500Y-101480249D01*
X152200499Y-101480247D01*
X152188868Y-101421770D01*
X152188867Y-101421769D01*
X152144552Y-101355447D01*
X152078230Y-101311132D01*
X152078229Y-101311131D01*
X152019752Y-101299500D01*
X152019748Y-101299500D01*
X150762409Y-101299500D01*
X150695370Y-101279815D01*
X150649615Y-101227011D01*
X150639671Y-101157853D01*
X150668696Y-101094297D01*
X150714955Y-101060939D01*
X150802841Y-101024536D01*
X150928282Y-100928282D01*
X151024536Y-100802841D01*
X151085044Y-100656762D01*
X151105682Y-100500000D01*
X151099687Y-100454466D01*
X151085044Y-100343239D01*
X151085044Y-100343238D01*
X151024536Y-100197159D01*
X150928282Y-100071718D01*
X150802841Y-99975464D01*
X150656762Y-99914956D01*
X150656760Y-99914955D01*
X150500001Y-99894318D01*
X150499999Y-99894318D01*
X150343239Y-99914955D01*
X150343237Y-99914956D01*
X150197157Y-99975464D01*
X150125486Y-100030460D01*
X150060317Y-100055654D01*
X149991872Y-100041615D01*
X149974514Y-100030460D01*
X149902842Y-99975464D01*
X149756762Y-99914956D01*
X149756760Y-99914955D01*
X149600001Y-99894318D01*
X149599999Y-99894318D01*
X149443239Y-99914955D01*
X149443237Y-99914956D01*
X149297157Y-99975464D01*
X149225486Y-100030460D01*
X149160317Y-100055654D01*
X149091872Y-100041615D01*
X149074514Y-100030460D01*
X149002842Y-99975464D01*
X148856762Y-99914956D01*
X148856760Y-99914955D01*
X148700001Y-99894318D01*
X148699999Y-99894318D01*
X148543239Y-99914955D01*
X148543237Y-99914956D01*
X148397160Y-99975463D01*
X148271718Y-100071718D01*
X148175463Y-100197160D01*
X148114956Y-100343237D01*
X148114955Y-100343239D01*
X148094318Y-100499998D01*
X148094318Y-100500001D01*
X144500500Y-100500001D01*
X144500500Y-95175832D01*
X144520185Y-95108793D01*
X144536814Y-95088156D01*
X145297074Y-94327896D01*
X145358395Y-94294413D01*
X145400936Y-94292640D01*
X145500000Y-94305682D01*
X145500001Y-94305682D01*
X145552254Y-94298802D01*
X145656762Y-94285044D01*
X145802841Y-94224536D01*
X145802845Y-94224532D01*
X145809881Y-94220472D01*
X145811510Y-94223293D01*
X145862425Y-94203574D01*
X145930878Y-94217569D01*
X145980899Y-94266351D01*
X145995759Y-94310951D01*
X146007359Y-94399059D01*
X145996594Y-94468095D01*
X145972101Y-94502926D01*
X145531948Y-94943080D01*
X145525464Y-94948722D01*
X145515768Y-94956044D01*
X145483559Y-94991374D01*
X145481585Y-94993442D01*
X145467827Y-95007200D01*
X145467822Y-95007206D01*
X145466306Y-95009420D01*
X145460976Y-95016148D01*
X145440083Y-95039066D01*
X145440083Y-95039067D01*
X145437578Y-95045533D01*
X145424259Y-95070802D01*
X145420345Y-95076515D01*
X145420343Y-95076521D01*
X145413244Y-95106699D01*
X145410702Y-95114907D01*
X145399500Y-95143826D01*
X145399500Y-95150751D01*
X145396206Y-95179141D01*
X145394621Y-95185877D01*
X145394621Y-95185881D01*
X145398905Y-95216590D01*
X145399500Y-95225166D01*
X145399500Y-96837158D01*
X145398905Y-96845732D01*
X145397227Y-96857763D01*
X145399434Y-96905509D01*
X145399500Y-96908372D01*
X145399500Y-96927845D01*
X145399993Y-96930482D01*
X145400982Y-96939015D01*
X145402415Y-96969991D01*
X145402416Y-96969997D01*
X145405214Y-96976334D01*
X145413664Y-97003620D01*
X145414937Y-97010429D01*
X145414937Y-97010430D01*
X145414939Y-97010433D01*
X145430844Y-97036122D01*
X145431260Y-97036793D01*
X145435263Y-97044386D01*
X145447794Y-97072765D01*
X145447795Y-97072766D01*
X145447796Y-97072768D01*
X145452689Y-97077661D01*
X145470435Y-97100065D01*
X145474077Y-97105948D01*
X145474080Y-97105951D01*
X145498826Y-97124639D01*
X145505311Y-97130282D01*
X146843078Y-98468049D01*
X146848721Y-98474533D01*
X146856041Y-98484226D01*
X146856042Y-98484228D01*
X146880659Y-98506669D01*
X146891375Y-98516439D01*
X146893423Y-98518394D01*
X146907203Y-98532174D01*
X146909413Y-98533688D01*
X146916143Y-98539018D01*
X146927016Y-98548930D01*
X146939064Y-98559914D01*
X146939065Y-98559914D01*
X146939067Y-98559916D01*
X146945530Y-98562419D01*
X146970807Y-98575743D01*
X146976519Y-98579656D01*
X147006702Y-98586754D01*
X147014903Y-98589294D01*
X147043827Y-98600500D01*
X147050751Y-98600500D01*
X147079141Y-98603793D01*
X147085881Y-98605379D01*
X147116590Y-98601095D01*
X147125166Y-98600500D01*
X150814117Y-98600500D01*
X150881156Y-98620185D01*
X150901798Y-98636819D01*
X151233028Y-98968049D01*
X151238671Y-98974533D01*
X151245991Y-98984226D01*
X151245992Y-98984228D01*
X151270609Y-99006669D01*
X151281325Y-99016439D01*
X151283373Y-99018394D01*
X151297153Y-99032174D01*
X151299363Y-99033688D01*
X151306093Y-99039018D01*
X151329017Y-99059916D01*
X151334818Y-99062163D01*
X151335478Y-99062419D01*
X151360759Y-99075745D01*
X151366470Y-99079657D01*
X151396653Y-99086756D01*
X151404861Y-99089298D01*
X151433775Y-99100500D01*
X151433777Y-99100500D01*
X151440702Y-99100500D01*
X151469090Y-99103793D01*
X151475831Y-99105379D01*
X151506541Y-99101094D01*
X151515116Y-99100500D01*
X152175500Y-99100500D01*
X152242539Y-99120185D01*
X152288294Y-99172989D01*
X152299500Y-99224500D01*
X152299500Y-101019752D01*
X152311131Y-101078229D01*
X152311132Y-101078230D01*
X152355447Y-101144552D01*
X152421769Y-101188867D01*
X152421770Y-101188868D01*
X152480247Y-101200499D01*
X152480250Y-101200500D01*
X152480252Y-101200500D01*
X153519750Y-101200500D01*
X153519751Y-101200499D01*
X153539418Y-101196587D01*
X153578228Y-101188868D01*
X153578228Y-101188867D01*
X153578231Y-101188867D01*
X153644552Y-101144552D01*
X153644552Y-101144550D01*
X153648424Y-101141964D01*
X153715101Y-101121086D01*
X153782482Y-101139570D01*
X153829172Y-101191548D01*
X153831877Y-101197613D01*
X153875464Y-101302841D01*
X153971718Y-101428282D01*
X153971719Y-101428283D01*
X154084880Y-101515114D01*
X154126083Y-101571542D01*
X154130238Y-101641288D01*
X154096026Y-101702208D01*
X154071401Y-101720873D01*
X154065092Y-101724515D01*
X153939644Y-101820775D01*
X153843389Y-101946217D01*
X153782882Y-102092294D01*
X153782881Y-102092296D01*
X153762244Y-102249055D01*
X153762244Y-102249058D01*
X153782881Y-102405817D01*
X153782882Y-102405819D01*
X153842660Y-102550137D01*
X153843390Y-102551898D01*
X153939644Y-102677339D01*
X154065085Y-102773593D01*
X154211164Y-102834101D01*
X154289544Y-102844419D01*
X154367925Y-102854739D01*
X154367926Y-102854739D01*
X154367927Y-102854739D01*
X154421279Y-102847715D01*
X154524688Y-102834101D01*
X154670767Y-102773593D01*
X154796208Y-102677339D01*
X154892124Y-102552337D01*
X154948552Y-102511135D01*
X155018298Y-102506980D01*
X155079218Y-102541192D01*
X155111971Y-102602909D01*
X155114500Y-102627824D01*
X155114500Y-102783961D01*
X155094815Y-102851000D01*
X155042011Y-102896755D01*
X155014692Y-102905578D01*
X154986770Y-102911132D01*
X154986769Y-102911132D01*
X154920447Y-102955447D01*
X154876132Y-103021769D01*
X154876131Y-103021770D01*
X154864500Y-103080247D01*
X154864500Y-103819752D01*
X154876131Y-103878229D01*
X154876132Y-103878231D01*
X154911464Y-103931107D01*
X154932343Y-103997784D01*
X154913859Y-104065165D01*
X154911465Y-104068889D01*
X154876133Y-104121766D01*
X154876131Y-104121770D01*
X154864500Y-104180247D01*
X154864500Y-104919752D01*
X154876131Y-104978229D01*
X154876132Y-104978230D01*
X154920447Y-105044552D01*
X154986769Y-105088867D01*
X154986770Y-105088868D01*
X155045247Y-105100499D01*
X155045250Y-105100500D01*
X155045252Y-105100500D01*
X155120438Y-105100500D01*
X155187477Y-105120185D01*
X155195151Y-105125536D01*
X155208718Y-105135781D01*
X155213826Y-105139638D01*
X155220303Y-105145274D01*
X155397905Y-105322876D01*
X155560467Y-105485438D01*
X155593952Y-105546761D01*
X155595726Y-105589297D01*
X155594318Y-105599996D01*
X155594318Y-105600001D01*
X155614955Y-105756760D01*
X155614956Y-105756762D01*
X155674287Y-105900001D01*
X155675464Y-105902841D01*
X155771718Y-106028282D01*
X155897159Y-106124536D01*
X156043238Y-106185044D01*
X156121619Y-106195363D01*
X156199999Y-106205682D01*
X156200000Y-106205682D01*
X156200001Y-106205682D01*
X156252253Y-106198802D01*
X156356762Y-106185044D01*
X156502841Y-106124536D01*
X156628282Y-106028282D01*
X156724536Y-105902841D01*
X156785044Y-105756762D01*
X156805682Y-105600000D01*
X156805681Y-105599996D01*
X156788793Y-105471718D01*
X156785044Y-105443238D01*
X156724536Y-105297159D01*
X156628282Y-105171718D01*
X156502841Y-105075464D01*
X156356762Y-105014956D01*
X156356760Y-105014955D01*
X156200001Y-104994318D01*
X156199998Y-104994318D01*
X156105684Y-105006734D01*
X156036649Y-104995968D01*
X155984394Y-104949588D01*
X155965500Y-104883795D01*
X155965500Y-104180249D01*
X155965499Y-104180247D01*
X155953868Y-104121770D01*
X155953867Y-104121769D01*
X155918534Y-104068890D01*
X155897656Y-104002213D01*
X155916140Y-103934833D01*
X155918497Y-103931163D01*
X155953867Y-103878231D01*
X155959384Y-103850498D01*
X155965499Y-103819752D01*
X155965500Y-103819750D01*
X155965500Y-103080249D01*
X155965499Y-103080247D01*
X155953868Y-103021770D01*
X155953867Y-103021769D01*
X155909552Y-102955447D01*
X155843230Y-102911132D01*
X155815308Y-102905578D01*
X155753397Y-102873193D01*
X155718823Y-102812477D01*
X155715500Y-102783961D01*
X155715500Y-102760832D01*
X155735185Y-102693793D01*
X155751815Y-102673155D01*
X156268059Y-102156910D01*
X156274532Y-102151279D01*
X156284224Y-102143959D01*
X156284228Y-102143958D01*
X156316459Y-102108600D01*
X156318367Y-102106602D01*
X156332174Y-102092797D01*
X156333684Y-102090592D01*
X156339023Y-102083851D01*
X156341763Y-102080844D01*
X156359916Y-102060933D01*
X156362416Y-102054478D01*
X156375749Y-102029182D01*
X156379656Y-102023481D01*
X156386757Y-101993285D01*
X156389292Y-101985101D01*
X156400500Y-101956173D01*
X156400500Y-101949248D01*
X156403795Y-101920855D01*
X156405378Y-101914123D01*
X156405379Y-101914119D01*
X156401095Y-101883408D01*
X156400500Y-101874833D01*
X156400500Y-101324500D01*
X156420185Y-101257461D01*
X156472989Y-101211706D01*
X156524500Y-101200500D01*
X157519750Y-101200500D01*
X157519751Y-101200499D01*
X157534568Y-101197552D01*
X157578229Y-101188868D01*
X157578229Y-101188867D01*
X157578231Y-101188867D01*
X157644552Y-101144552D01*
X157688867Y-101078231D01*
X157688867Y-101078229D01*
X157688868Y-101078229D01*
X157697552Y-101034568D01*
X157700500Y-101019748D01*
X157700500Y-98780252D01*
X157700500Y-98780251D01*
X157700500Y-98780249D01*
X157700499Y-98780247D01*
X157688868Y-98721770D01*
X157688867Y-98721769D01*
X157644552Y-98655447D01*
X157578230Y-98611132D01*
X157578229Y-98611131D01*
X157519752Y-98599500D01*
X157519748Y-98599500D01*
X156524500Y-98599500D01*
X156457461Y-98579815D01*
X156411706Y-98527011D01*
X156400500Y-98475500D01*
X156400500Y-96162837D01*
X156401096Y-96154258D01*
X156402773Y-96142237D01*
X156400565Y-96094488D01*
X156400499Y-96091621D01*
X156400500Y-96072156D01*
X156400006Y-96069518D01*
X156399016Y-96060980D01*
X156397585Y-96030008D01*
X156394786Y-96023670D01*
X156386333Y-95996373D01*
X156385061Y-95989567D01*
X156368740Y-95963207D01*
X156364734Y-95955608D01*
X156352206Y-95927234D01*
X156347309Y-95922337D01*
X156329561Y-95899931D01*
X156325919Y-95894048D01*
X156301175Y-95875362D01*
X156294692Y-95869720D01*
X154336819Y-93911846D01*
X154303334Y-93850523D01*
X154300500Y-93824165D01*
X154300500Y-93024833D01*
X154320185Y-92957794D01*
X154372989Y-92912039D01*
X154442147Y-92902095D01*
X154505703Y-92931120D01*
X154512181Y-92937152D01*
X154517689Y-92942660D01*
X154535431Y-92965057D01*
X154539081Y-92970952D01*
X154539082Y-92970953D01*
X154563826Y-92989639D01*
X154570304Y-92995275D01*
X154831788Y-93256760D01*
X154843081Y-93268053D01*
X154848723Y-93274537D01*
X154856039Y-93284224D01*
X154856040Y-93284225D01*
X154856042Y-93284228D01*
X154881727Y-93307644D01*
X154891364Y-93316429D01*
X154893412Y-93318384D01*
X154907203Y-93332175D01*
X154908663Y-93333175D01*
X154909419Y-93333693D01*
X154916155Y-93339029D01*
X154920774Y-93343239D01*
X154939063Y-93359913D01*
X154939065Y-93359914D01*
X154939067Y-93359916D01*
X154945523Y-93362417D01*
X154970807Y-93375743D01*
X154976520Y-93379657D01*
X154991214Y-93383112D01*
X155006698Y-93386755D01*
X155014911Y-93389298D01*
X155043826Y-93400500D01*
X155043827Y-93400500D01*
X155050753Y-93400500D01*
X155079141Y-93403793D01*
X155085882Y-93405379D01*
X155116594Y-93401094D01*
X155125168Y-93400500D01*
X155212518Y-93400500D01*
X155279557Y-93420185D01*
X155310892Y-93449013D01*
X155335137Y-93480608D01*
X155350421Y-93500528D01*
X155371718Y-93528282D01*
X155497159Y-93624536D01*
X155643238Y-93685044D01*
X155713681Y-93694318D01*
X155799999Y-93705682D01*
X155800000Y-93705682D01*
X155800001Y-93705682D01*
X155881161Y-93694997D01*
X155956762Y-93685044D01*
X156102841Y-93624536D01*
X156228282Y-93528282D01*
X156324536Y-93402841D01*
X156385044Y-93256762D01*
X156405682Y-93100000D01*
X156385044Y-92943238D01*
X156324536Y-92797159D01*
X156228282Y-92671718D01*
X156102841Y-92575464D01*
X155956762Y-92514956D01*
X155956760Y-92514955D01*
X155800001Y-92494318D01*
X155799999Y-92494318D01*
X155643239Y-92514955D01*
X155643237Y-92514956D01*
X155497160Y-92575463D01*
X155493554Y-92578230D01*
X155412365Y-92640529D01*
X155371717Y-92671719D01*
X155338382Y-92715162D01*
X155281953Y-92756364D01*
X155212207Y-92760518D01*
X155152326Y-92727355D01*
X155101819Y-92676848D01*
X155068334Y-92615525D01*
X155065500Y-92589167D01*
X155065500Y-91724500D01*
X155085185Y-91657461D01*
X155137989Y-91611706D01*
X155189500Y-91600500D01*
X155784750Y-91600500D01*
X155784751Y-91600499D01*
X155799568Y-91597552D01*
X155843229Y-91588868D01*
X155843229Y-91588867D01*
X155843231Y-91588867D01*
X155909552Y-91544552D01*
X155953867Y-91478231D01*
X155955765Y-91468686D01*
X155959422Y-91450308D01*
X155991807Y-91388397D01*
X156052523Y-91353823D01*
X156081039Y-91350500D01*
X156450863Y-91350500D01*
X156459437Y-91351095D01*
X156471465Y-91352772D01*
X156471465Y-91352771D01*
X156471469Y-91352773D01*
X156514624Y-91350778D01*
X156519214Y-91350566D01*
X156522077Y-91350500D01*
X156541547Y-91350500D01*
X156541548Y-91350500D01*
X156544172Y-91350009D01*
X156552725Y-91349016D01*
X156553949Y-91348959D01*
X156583696Y-91347585D01*
X156590026Y-91344789D01*
X156617333Y-91336332D01*
X156624137Y-91335061D01*
X156650501Y-91318736D01*
X156658096Y-91314733D01*
X156686469Y-91302206D01*
X156691365Y-91297309D01*
X156713773Y-91279561D01*
X156719656Y-91275919D01*
X156738353Y-91251158D01*
X156743970Y-91244703D01*
X157142095Y-90846578D01*
X157203416Y-90813095D01*
X157263708Y-90814995D01*
X157339602Y-90836589D01*
X157339603Y-90836589D01*
X157339604Y-90836588D01*
X157339605Y-90836589D01*
X157451472Y-90826223D01*
X157552040Y-90776146D01*
X157552042Y-90776142D01*
X157558713Y-90771106D01*
X157585991Y-90755495D01*
X157670653Y-90720428D01*
X157796094Y-90624174D01*
X157796095Y-90624171D01*
X157800013Y-90621166D01*
X157865182Y-90595971D01*
X157933627Y-90610009D01*
X157983617Y-90658823D01*
X157999500Y-90719541D01*
X157999500Y-104997975D01*
X157999367Y-105002032D01*
X157994017Y-105083648D01*
X157981015Y-105265438D01*
X157979980Y-105273118D01*
X157956846Y-105389420D01*
X157925472Y-105533646D01*
X157923597Y-105540401D01*
X157895576Y-105622952D01*
X157883208Y-105659388D01*
X157883195Y-105659425D01*
X157833841Y-105791741D01*
X157831355Y-105797499D01*
X157774421Y-105912952D01*
X157707828Y-106034907D01*
X157704961Y-106039641D01*
X157633461Y-106146649D01*
X157631543Y-106149359D01*
X157549744Y-106258631D01*
X157546723Y-106262357D01*
X157461529Y-106359502D01*
X157458755Y-106362464D01*
X157362464Y-106458755D01*
X157359502Y-106461529D01*
X157262357Y-106546723D01*
X157258631Y-106549744D01*
X157149359Y-106631543D01*
X157146649Y-106633461D01*
X157039641Y-106704961D01*
X157034907Y-106707828D01*
X156912952Y-106774421D01*
X156797499Y-106831355D01*
X156791741Y-106833841D01*
X156670956Y-106878893D01*
X156659418Y-106883197D01*
X156540401Y-106923597D01*
X156533646Y-106925472D01*
X156389420Y-106956846D01*
X156273118Y-106979980D01*
X156265438Y-106981015D01*
X156083648Y-106994017D01*
X156032582Y-106997364D01*
X156002025Y-106999367D01*
X155997976Y-106999500D01*
X140002024Y-106999500D01*
X139997974Y-106999367D01*
X139959954Y-106996875D01*
X139916350Y-106994017D01*
X139734560Y-106981015D01*
X139726880Y-106979980D01*
X139610579Y-106956846D01*
X139466352Y-106925472D01*
X139459596Y-106923597D01*
X139427881Y-106912831D01*
X139340578Y-106883196D01*
X139305768Y-106870212D01*
X139208257Y-106833841D01*
X139202499Y-106831355D01*
X139087047Y-106774421D01*
X138965091Y-106707828D01*
X138960357Y-106704962D01*
X138853349Y-106633461D01*
X138850639Y-106631543D01*
X138810592Y-106601564D01*
X138741353Y-106549732D01*
X138737648Y-106546729D01*
X138706886Y-106519752D01*
X143799500Y-106519752D01*
X143811131Y-106578229D01*
X143811132Y-106578230D01*
X143855447Y-106644552D01*
X143921769Y-106688867D01*
X143921770Y-106688868D01*
X143980247Y-106700499D01*
X143980250Y-106700500D01*
X143980252Y-106700500D01*
X146219750Y-106700500D01*
X146219751Y-106700499D01*
X146234568Y-106697552D01*
X146278229Y-106688868D01*
X146278229Y-106688867D01*
X146278231Y-106688867D01*
X146344552Y-106644552D01*
X146388867Y-106578231D01*
X146388867Y-106578229D01*
X146388868Y-106578229D01*
X146400499Y-106519752D01*
X146400500Y-106519750D01*
X146400500Y-105900001D01*
X147794318Y-105900001D01*
X147814955Y-106056760D01*
X147814956Y-106056762D01*
X147853310Y-106149358D01*
X147875464Y-106202841D01*
X147971718Y-106328282D01*
X148097159Y-106424536D01*
X148243238Y-106485044D01*
X148321619Y-106495363D01*
X148399999Y-106505682D01*
X148400000Y-106505682D01*
X148400001Y-106505682D01*
X148452253Y-106498802D01*
X148556762Y-106485044D01*
X148702841Y-106424536D01*
X148828282Y-106328282D01*
X148828283Y-106328279D01*
X148831093Y-106326124D01*
X148896263Y-106300930D01*
X148906580Y-106300500D01*
X149475500Y-106300500D01*
X149542539Y-106320185D01*
X149588294Y-106372989D01*
X149599500Y-106424500D01*
X149599500Y-106519752D01*
X149611131Y-106578229D01*
X149611132Y-106578230D01*
X149655447Y-106644552D01*
X149721769Y-106688867D01*
X149721770Y-106688868D01*
X149780247Y-106700499D01*
X149780250Y-106700500D01*
X149780252Y-106700500D01*
X152019750Y-106700500D01*
X152019751Y-106700499D01*
X152034568Y-106697552D01*
X152078229Y-106688868D01*
X152078229Y-106688867D01*
X152078231Y-106688867D01*
X152144552Y-106644552D01*
X152188867Y-106578231D01*
X152188867Y-106578229D01*
X152188868Y-106578229D01*
X152200499Y-106519752D01*
X152200500Y-106519750D01*
X152200500Y-105480249D01*
X152200499Y-105480247D01*
X152188868Y-105421770D01*
X152188867Y-105421769D01*
X152144552Y-105355447D01*
X152078230Y-105311132D01*
X152078229Y-105311131D01*
X152019752Y-105299500D01*
X152019748Y-105299500D01*
X149780252Y-105299500D01*
X149780247Y-105299500D01*
X149721770Y-105311131D01*
X149721769Y-105311132D01*
X149655447Y-105355447D01*
X149611132Y-105421769D01*
X149611131Y-105421770D01*
X149599500Y-105480247D01*
X149599500Y-105575500D01*
X149579815Y-105642539D01*
X149527011Y-105688294D01*
X149475500Y-105699500D01*
X149049781Y-105699500D01*
X148982742Y-105679815D01*
X148936987Y-105627011D01*
X148935220Y-105622952D01*
X148924537Y-105597161D01*
X148924536Y-105597160D01*
X148924536Y-105597159D01*
X148828282Y-105471718D01*
X148702841Y-105375464D01*
X148693797Y-105371718D01*
X148556762Y-105314956D01*
X148556760Y-105314955D01*
X148400001Y-105294318D01*
X148399999Y-105294318D01*
X148243239Y-105314955D01*
X148243237Y-105314956D01*
X148097160Y-105375463D01*
X147971718Y-105471718D01*
X147875463Y-105597160D01*
X147814956Y-105743237D01*
X147814955Y-105743239D01*
X147794318Y-105899998D01*
X147794318Y-105900001D01*
X146400500Y-105900001D01*
X146400500Y-105480249D01*
X146400499Y-105480247D01*
X146388868Y-105421770D01*
X146388867Y-105421769D01*
X146344552Y-105355447D01*
X146278230Y-105311132D01*
X146278229Y-105311131D01*
X146219752Y-105299500D01*
X146219748Y-105299500D01*
X143980252Y-105299500D01*
X143980247Y-105299500D01*
X143921770Y-105311131D01*
X143921769Y-105311132D01*
X143855447Y-105355447D01*
X143811132Y-105421769D01*
X143811131Y-105421770D01*
X143799500Y-105480247D01*
X143799500Y-106519752D01*
X138706886Y-106519752D01*
X138640492Y-106461526D01*
X138637549Y-106458769D01*
X138541228Y-106362448D01*
X138538469Y-106359502D01*
X138511089Y-106328281D01*
X138453265Y-106262345D01*
X138450271Y-106258652D01*
X138368454Y-106149358D01*
X138366537Y-106146649D01*
X138295032Y-106039634D01*
X138292170Y-106034906D01*
X138225578Y-105912952D01*
X138168643Y-105797499D01*
X138166157Y-105791741D01*
X138131752Y-105699500D01*
X138116805Y-105659425D01*
X138076395Y-105540383D01*
X138074531Y-105533666D01*
X138043153Y-105389420D01*
X138029916Y-105322876D01*
X138020015Y-105273100D01*
X138018985Y-105265459D01*
X138005986Y-105083708D01*
X138002938Y-105037198D01*
X138000633Y-105002019D01*
X138000500Y-104997964D01*
X138000500Y-95219752D01*
X138299500Y-95219752D01*
X138311131Y-95278229D01*
X138311132Y-95278230D01*
X138355447Y-95344552D01*
X138421769Y-95388867D01*
X138421770Y-95388868D01*
X138480247Y-95400499D01*
X138480250Y-95400500D01*
X138480252Y-95400500D01*
X139519750Y-95400500D01*
X139519751Y-95400499D01*
X139534568Y-95397552D01*
X139578229Y-95388868D01*
X139578229Y-95388867D01*
X139578231Y-95388867D01*
X139644552Y-95344552D01*
X139688867Y-95278231D01*
X139688867Y-95278229D01*
X139688868Y-95278229D01*
X139699422Y-95225166D01*
X139700500Y-95219748D01*
X139700500Y-92980252D01*
X139700500Y-92980249D01*
X139700499Y-92980247D01*
X139688868Y-92921770D01*
X139688867Y-92921769D01*
X139644552Y-92855447D01*
X139578230Y-92811132D01*
X139578229Y-92811131D01*
X139519752Y-92799500D01*
X139519748Y-92799500D01*
X138480252Y-92799500D01*
X138480247Y-92799500D01*
X138421770Y-92811131D01*
X138421769Y-92811132D01*
X138355447Y-92855447D01*
X138311132Y-92921769D01*
X138311131Y-92921770D01*
X138299500Y-92980247D01*
X138299500Y-95219752D01*
X138000500Y-95219752D01*
X138000500Y-89002035D01*
X138000567Y-89000001D01*
X140194318Y-89000001D01*
X140214955Y-89156760D01*
X140214956Y-89156762D01*
X140250775Y-89243238D01*
X140275464Y-89302841D01*
X140371718Y-89428282D01*
X140497159Y-89524536D01*
X140643238Y-89585044D01*
X140682478Y-89590210D01*
X140799999Y-89605682D01*
X140800000Y-89605682D01*
X140800001Y-89605682D01*
X140852253Y-89598802D01*
X140956762Y-89585044D01*
X141102841Y-89524536D01*
X141228282Y-89428282D01*
X141324536Y-89302841D01*
X141356272Y-89226221D01*
X141400111Y-89171821D01*
X141466405Y-89149755D01*
X141534104Y-89167034D01*
X141549497Y-89177823D01*
X141569373Y-89194135D01*
X141569376Y-89194137D01*
X141674657Y-89250410D01*
X141734499Y-89282396D01*
X141913666Y-89336746D01*
X141913668Y-89336747D01*
X141938341Y-89339177D01*
X142002654Y-89345511D01*
X142067441Y-89371672D01*
X142107800Y-89428706D01*
X142114500Y-89468914D01*
X142114500Y-89783961D01*
X142094815Y-89851000D01*
X142042011Y-89896755D01*
X142014692Y-89905578D01*
X141986770Y-89911132D01*
X141986769Y-89911132D01*
X141920447Y-89955447D01*
X141876132Y-90021769D01*
X141876131Y-90021770D01*
X141864500Y-90080247D01*
X141864500Y-90819752D01*
X141876131Y-90878229D01*
X141876132Y-90878230D01*
X141920447Y-90944552D01*
X141986769Y-90988867D01*
X141986770Y-90988868D01*
X142045247Y-91000499D01*
X142045250Y-91000500D01*
X142045252Y-91000500D01*
X142784750Y-91000500D01*
X142784751Y-91000499D01*
X142799568Y-90997552D01*
X142843229Y-90988868D01*
X142843229Y-90988867D01*
X142843231Y-90988867D01*
X142909552Y-90944552D01*
X142953867Y-90878231D01*
X142953867Y-90878229D01*
X142953868Y-90878229D01*
X142965499Y-90819752D01*
X142965500Y-90819750D01*
X142965500Y-90310832D01*
X142985185Y-90243793D01*
X143001815Y-90223155D01*
X143197073Y-90027896D01*
X143258394Y-89994413D01*
X143300936Y-89992640D01*
X143400000Y-90005682D01*
X143400001Y-90005682D01*
X143452253Y-89998802D01*
X143556762Y-89985044D01*
X143702841Y-89924536D01*
X143828282Y-89828282D01*
X143924536Y-89702841D01*
X143985044Y-89556762D01*
X144005682Y-89400000D01*
X143998508Y-89345511D01*
X143988793Y-89271718D01*
X143985044Y-89243238D01*
X143924536Y-89097159D01*
X143828282Y-88971718D01*
X143702841Y-88875464D01*
X143630028Y-88845304D01*
X143556762Y-88814956D01*
X143556760Y-88814955D01*
X143400001Y-88794318D01*
X143399999Y-88794318D01*
X143243239Y-88814955D01*
X143243238Y-88814956D01*
X143169970Y-88845304D01*
X143100501Y-88852772D01*
X143038022Y-88821496D01*
X143002370Y-88761407D01*
X143003859Y-88694746D01*
X143005643Y-88688868D01*
X143036747Y-88586331D01*
X143055099Y-88400000D01*
X143036747Y-88213669D01*
X142982396Y-88034499D01*
X142957326Y-87987596D01*
X142894137Y-87869376D01*
X142894135Y-87869373D01*
X142775357Y-87724642D01*
X142630626Y-87605864D01*
X142630623Y-87605862D01*
X142465502Y-87517604D01*
X142286333Y-87463253D01*
X142286331Y-87463252D01*
X142100000Y-87444901D01*
X141913668Y-87463252D01*
X141913666Y-87463253D01*
X141734497Y-87517604D01*
X141569376Y-87605862D01*
X141569373Y-87605864D01*
X141424642Y-87724642D01*
X141305864Y-87869373D01*
X141305862Y-87869376D01*
X141217604Y-88034497D01*
X141163253Y-88213666D01*
X141163252Y-88213668D01*
X141152499Y-88322855D01*
X141126338Y-88387642D01*
X141069304Y-88428001D01*
X140999504Y-88431118D01*
X140981650Y-88425264D01*
X140956762Y-88414956D01*
X140956759Y-88414955D01*
X140956760Y-88414955D01*
X140800001Y-88394318D01*
X140799999Y-88394318D01*
X140643239Y-88414955D01*
X140643237Y-88414956D01*
X140497160Y-88475463D01*
X140371718Y-88571718D01*
X140275463Y-88697160D01*
X140214956Y-88843237D01*
X140214955Y-88843239D01*
X140194318Y-88999998D01*
X140194318Y-89000001D01*
X138000567Y-89000001D01*
X138000633Y-88997980D01*
X138002393Y-88971103D01*
X138005989Y-88916244D01*
X138018986Y-88734536D01*
X138020014Y-88726903D01*
X138043153Y-88610579D01*
X138044118Y-88606141D01*
X138074533Y-88466323D01*
X138076392Y-88459625D01*
X138116815Y-88340543D01*
X138166159Y-88208251D01*
X138168633Y-88202520D01*
X138225583Y-88087036D01*
X138292179Y-87965076D01*
X138295019Y-87960384D01*
X138366563Y-87853311D01*
X138368428Y-87850676D01*
X138450291Y-87741321D01*
X138453244Y-87737678D01*
X138538503Y-87640459D01*
X138541198Y-87637581D01*
X138637581Y-87541198D01*
X138640459Y-87538503D01*
X138737678Y-87453244D01*
X138741321Y-87450291D01*
X138850676Y-87368428D01*
X138853311Y-87366563D01*
X138960384Y-87295019D01*
X138965076Y-87292179D01*
X139087036Y-87225583D01*
X139202520Y-87168633D01*
X139208251Y-87166159D01*
X139340543Y-87116815D01*
X139459625Y-87076392D01*
X139466323Y-87074533D01*
X139610548Y-87043158D01*
X139726903Y-87020014D01*
X139734536Y-87018986D01*
X139916244Y-87005989D01*
X139969211Y-87002517D01*
X139997981Y-87000633D01*
X140002036Y-87000500D01*
X140968299Y-87000500D01*
X140973139Y-87001921D01*
X140990801Y-87000658D01*
X140995225Y-87000500D01*
X141131113Y-87000500D01*
X141131120Y-87000500D01*
X141277255Y-86981260D01*
X141277563Y-86981308D01*
X141279643Y-86980946D01*
X141293580Y-86979111D01*
X141297227Y-86978741D01*
X141372616Y-86973349D01*
X141387327Y-86968036D01*
X141387134Y-86967062D01*
X141391108Y-86966271D01*
X141391107Y-86966271D01*
X141391116Y-86966270D01*
X141552542Y-86923016D01*
X141553031Y-86923027D01*
X141555784Y-86922147D01*
X141583970Y-86914595D01*
X141586782Y-86913913D01*
X141636064Y-86903192D01*
X141642967Y-86898999D01*
X141644415Y-86898398D01*
X141644419Y-86898398D01*
X141813320Y-86828436D01*
X141814359Y-86828324D01*
X141819310Y-86825955D01*
X141850912Y-86812865D01*
X141877433Y-86801881D01*
X141891095Y-86796784D01*
X141896642Y-86792300D01*
X142057459Y-86699453D01*
X142059210Y-86699028D01*
X142059671Y-86698684D01*
X142065828Y-86694621D01*
X142113803Y-86666924D01*
X142116013Y-86665228D01*
X142128388Y-86657170D01*
X142133333Y-86651937D01*
X142281143Y-86538517D01*
X142283681Y-86537536D01*
X142284958Y-86536260D01*
X142291047Y-86530918D01*
X142321851Y-86507282D01*
X142334927Y-86494205D01*
X142345141Y-86485354D01*
X142348630Y-86480503D01*
X142480503Y-86348630D01*
X142483975Y-86346733D01*
X142494206Y-86334927D01*
X142507276Y-86321857D01*
X142507276Y-86321856D01*
X142507282Y-86321851D01*
X142530918Y-86291047D01*
X142536260Y-86284958D01*
X142536744Y-86284473D01*
X142538516Y-86281145D01*
X142651937Y-86133334D01*
X142655774Y-86130532D01*
X142665228Y-86116013D01*
X142666924Y-86113803D01*
X142694621Y-86065828D01*
X142698565Y-86059849D01*
X142699452Y-86057461D01*
X142792300Y-85896643D01*
X142796048Y-85893070D01*
X142801881Y-85877433D01*
X142812865Y-85850912D01*
X142825955Y-85819310D01*
X142828092Y-85814845D01*
X142828435Y-85813322D01*
X142898398Y-85644419D01*
X142898398Y-85644415D01*
X142898999Y-85642967D01*
X142902686Y-85638391D01*
X142913913Y-85586782D01*
X142914595Y-85583970D01*
X142922147Y-85555784D01*
X142922951Y-85553270D01*
X142923015Y-85552545D01*
X142966270Y-85391116D01*
X142966271Y-85391107D01*
X142967062Y-85387134D01*
X142968448Y-85387409D01*
X142973033Y-85377037D01*
X142978741Y-85297227D01*
X142979114Y-85293555D01*
X142980946Y-85279643D01*
X142981281Y-85277720D01*
X142981260Y-85277256D01*
X143000500Y-85131120D01*
X143000500Y-85000000D01*
X143000500Y-84999500D01*
X143000500Y-84995224D01*
X143000658Y-84990800D01*
X143001768Y-84975276D01*
X143000500Y-84968298D01*
X143000500Y-79800001D01*
X151494318Y-79800001D01*
X151514955Y-79956760D01*
X151514956Y-79956762D01*
X151575464Y-80102841D01*
X151671718Y-80228282D01*
X151797159Y-80324536D01*
X151943238Y-80385044D01*
X152021619Y-80395363D01*
X152099999Y-80405682D01*
X152100000Y-80405682D01*
X152100001Y-80405682D01*
X152152254Y-80398802D01*
X152256762Y-80385044D01*
X152402841Y-80324536D01*
X152528282Y-80228282D01*
X152624536Y-80102841D01*
X152685044Y-79956762D01*
X152705682Y-79800000D01*
X152685044Y-79643238D01*
X152624536Y-79497159D01*
X152528282Y-79371718D01*
X152402841Y-79275464D01*
X152256762Y-79214956D01*
X152256760Y-79214955D01*
X152100001Y-79194318D01*
X152099999Y-79194318D01*
X151943239Y-79214955D01*
X151943237Y-79214956D01*
X151797160Y-79275463D01*
X151671718Y-79371718D01*
X151575463Y-79497160D01*
X151514956Y-79643237D01*
X151514955Y-79643239D01*
X151494318Y-79799998D01*
X151494318Y-79800001D01*
X143000500Y-79800001D01*
X143000500Y-79002704D01*
X143000736Y-78997298D01*
X143004482Y-78954479D01*
X143016918Y-78828221D01*
X143020542Y-78808309D01*
X143038402Y-78741653D01*
X143066683Y-78648424D01*
X143072953Y-78632037D01*
X143104420Y-78564558D01*
X143105872Y-78561653D01*
X143150764Y-78477666D01*
X143154657Y-78471331D01*
X143187837Y-78423945D01*
X143200994Y-78405155D01*
X143203827Y-78401420D01*
X143263122Y-78329168D01*
X143267162Y-78324710D01*
X143324710Y-78267162D01*
X143329168Y-78263122D01*
X143401420Y-78203827D01*
X143405155Y-78200994D01*
X143471334Y-78154654D01*
X143477666Y-78150764D01*
X143561653Y-78105872D01*
X143564558Y-78104420D01*
X143632037Y-78072953D01*
X143648424Y-78066683D01*
X143741653Y-78038402D01*
X143808309Y-78020542D01*
X143828223Y-78016918D01*
X143954542Y-78004477D01*
X143997305Y-78000735D01*
X144002706Y-78000500D01*
X151997293Y-78000500D01*
X152002695Y-78000735D01*
G37*
%TD.AperFunction*%
%TD*%
M02*
