%TF.GenerationSoftware,KiCad,Pcbnew,7.0.6*%
%TF.CreationDate,2023-08-09T20:57:22-04:00*%
%TF.ProjectId,miniclick,6d696e69-636c-4696-936b-2e6b69636164,rev?*%
%TF.SameCoordinates,Original*%
%TF.FileFunction,Paste,Bot*%
%TF.FilePolarity,Positive*%
%FSLAX46Y46*%
G04 Gerber Fmt 4.6, Leading zero omitted, Abs format (unit mm)*
G04 Created by KiCad (PCBNEW 7.0.6) date 2023-08-09 20:57:22*
%MOMM*%
%LPD*%
G01*
G04 APERTURE LIST*
G04 Aperture macros list*
%AMRoundRect*
0 Rectangle with rounded corners*
0 $1 Rounding radius*
0 $2 $3 $4 $5 $6 $7 $8 $9 X,Y pos of 4 corners*
0 Add a 4 corners polygon primitive as box body*
4,1,4,$2,$3,$4,$5,$6,$7,$8,$9,$2,$3,0*
0 Add four circle primitives for the rounded corners*
1,1,$1+$1,$2,$3*
1,1,$1+$1,$4,$5*
1,1,$1+$1,$6,$7*
1,1,$1+$1,$8,$9*
0 Add four rect primitives between the rounded corners*
20,1,$1+$1,$2,$3,$4,$5,0*
20,1,$1+$1,$4,$5,$6,$7,0*
20,1,$1+$1,$6,$7,$8,$9,0*
20,1,$1+$1,$8,$9,$2,$3,0*%
G04 Aperture macros list end*
%ADD10RoundRect,0.150000X-0.625000X0.150000X-0.625000X-0.150000X0.625000X-0.150000X0.625000X0.150000X0*%
%ADD11RoundRect,0.250000X-0.650000X0.350000X-0.650000X-0.350000X0.650000X-0.350000X0.650000X0.350000X0*%
%ADD12RoundRect,0.135000X0.185000X-0.135000X0.185000X0.135000X-0.185000X0.135000X-0.185000X-0.135000X0*%
%ADD13R,2.400000X0.740000*%
%ADD14RoundRect,0.140000X0.021213X-0.219203X0.219203X-0.021213X-0.021213X0.219203X-0.219203X0.021213X0*%
%ADD15RoundRect,0.135000X0.135000X0.185000X-0.135000X0.185000X-0.135000X-0.185000X0.135000X-0.185000X0*%
%ADD16RoundRect,0.150000X0.625000X-0.150000X0.625000X0.150000X-0.625000X0.150000X-0.625000X-0.150000X0*%
%ADD17RoundRect,0.250000X0.650000X-0.350000X0.650000X0.350000X-0.650000X0.350000X-0.650000X-0.350000X0*%
%ADD18RoundRect,0.250000X0.000000X-0.388909X0.388909X0.000000X0.000000X0.388909X-0.388909X0.000000X0*%
%ADD19RoundRect,0.062500X-0.203293X-0.291682X0.291682X0.203293X0.203293X0.291682X-0.291682X-0.203293X0*%
%ADD20RoundRect,0.062500X0.203293X-0.291682X0.291682X-0.203293X-0.203293X0.291682X-0.291682X0.203293X0*%
%ADD21RoundRect,0.243750X0.456250X-0.243750X0.456250X0.243750X-0.456250X0.243750X-0.456250X-0.243750X0*%
G04 APERTURE END LIST*
D10*
%TO.C,J1*%
X153000000Y-100000000D03*
X153000000Y-101000000D03*
X153000000Y-102000000D03*
X153000000Y-103000000D03*
D11*
X156875000Y-98700000D03*
X156875000Y-104300000D03*
%TD*%
D12*
%TO.C,R2*%
X153000000Y-92410000D03*
X153000000Y-91390000D03*
%TD*%
D13*
%TO.C,J3*%
X149950000Y-79860000D03*
X146050000Y-79860000D03*
X149950000Y-81130000D03*
X146050000Y-81130000D03*
X149950000Y-82400000D03*
X146050000Y-82400000D03*
X149950000Y-83670000D03*
X146050000Y-83670000D03*
X149950000Y-84940000D03*
X146050000Y-84940000D03*
%TD*%
D14*
%TO.C,C3*%
X149460589Y-94639411D03*
X150139411Y-93960589D03*
%TD*%
D15*
%TO.C,R1*%
X142110000Y-90200000D03*
X141090000Y-90200000D03*
%TD*%
D16*
%TO.C,J2*%
X143000000Y-103000000D03*
X143000000Y-102000000D03*
X143000000Y-101000000D03*
X143000000Y-100000000D03*
D17*
X139125000Y-104300000D03*
X139125000Y-98700000D03*
%TD*%
D14*
%TO.C,C2*%
X150460589Y-95639411D03*
X151139411Y-94960589D03*
%TD*%
D18*
%TO.C,U1*%
X147080761Y-91000000D03*
X148000000Y-91919239D03*
X148000000Y-90080761D03*
X148919239Y-91000000D03*
D19*
X147513864Y-93253903D03*
X147160311Y-92900349D03*
X146806757Y-92546796D03*
X146453204Y-92193243D03*
X146099651Y-91839689D03*
X145746097Y-91486136D03*
D20*
X145746097Y-90513864D03*
X146099651Y-90160311D03*
X146453204Y-89806757D03*
X146806757Y-89453204D03*
X147160311Y-89099651D03*
X147513864Y-88746097D03*
D19*
X148486136Y-88746097D03*
X148839689Y-89099651D03*
X149193243Y-89453204D03*
X149546796Y-89806757D03*
X149900349Y-90160311D03*
X150253903Y-90513864D03*
D20*
X150253903Y-91486136D03*
X149900349Y-91839689D03*
X149546796Y-92193243D03*
X149193243Y-92546796D03*
X148839689Y-92900349D03*
X148486136Y-93253903D03*
%TD*%
D21*
%TO.C,D1*%
X141600000Y-94037500D03*
X141600000Y-92162500D03*
%TD*%
M02*
