%TF.GenerationSoftware,KiCad,Pcbnew,7.0.6*%
%TF.CreationDate,2023-08-27T19:49:05-04:00*%
%TF.ProjectId,miniclick,6d696e69-636c-4696-936b-2e6b69636164,rev?*%
%TF.SameCoordinates,Original*%
%TF.FileFunction,Copper,L4,Bot*%
%TF.FilePolarity,Positive*%
%FSLAX46Y46*%
G04 Gerber Fmt 4.6, Leading zero omitted, Abs format (unit mm)*
G04 Created by KiCad (PCBNEW 7.0.6) date 2023-08-27 19:49:05*
%MOMM*%
%LPD*%
G01*
G04 APERTURE LIST*
G04 Aperture macros list*
%AMRoundRect*
0 Rectangle with rounded corners*
0 $1 Rounding radius*
0 $2 $3 $4 $5 $6 $7 $8 $9 X,Y pos of 4 corners*
0 Add a 4 corners polygon primitive as box body*
4,1,4,$2,$3,$4,$5,$6,$7,$8,$9,$2,$3,0*
0 Add four circle primitives for the rounded corners*
1,1,$1+$1,$2,$3*
1,1,$1+$1,$4,$5*
1,1,$1+$1,$6,$7*
1,1,$1+$1,$8,$9*
0 Add four rect primitives between the rounded corners*
20,1,$1+$1,$2,$3,$4,$5,0*
20,1,$1+$1,$4,$5,$6,$7,0*
20,1,$1+$1,$6,$7,$8,$9,0*
20,1,$1+$1,$8,$9,$2,$3,0*%
%AMRotRect*
0 Rectangle, with rotation*
0 The origin of the aperture is its center*
0 $1 length*
0 $2 width*
0 $3 Rotation angle, in degrees counterclockwise*
0 Add horizontal line*
21,1,$1,$2,0,0,$3*%
G04 Aperture macros list end*
%TA.AperFunction,SMDPad,CuDef*%
%ADD10RoundRect,0.135000X0.135000X0.185000X-0.135000X0.185000X-0.135000X-0.185000X0.135000X-0.185000X0*%
%TD*%
%TA.AperFunction,SMDPad,CuDef*%
%ADD11RoundRect,0.243750X0.456250X-0.243750X0.456250X0.243750X-0.456250X0.243750X-0.456250X-0.243750X0*%
%TD*%
%TA.AperFunction,ComponentPad*%
%ADD12R,1.350000X1.350000*%
%TD*%
%TA.AperFunction,SMDPad,CuDef*%
%ADD13RoundRect,0.150000X-0.625000X0.150000X-0.625000X-0.150000X0.625000X-0.150000X0.625000X0.150000X0*%
%TD*%
%TA.AperFunction,SMDPad,CuDef*%
%ADD14RoundRect,0.250000X-0.650000X0.350000X-0.650000X-0.350000X0.650000X-0.350000X0.650000X0.350000X0*%
%TD*%
%TA.AperFunction,SMDPad,CuDef*%
%ADD15C,1.500000*%
%TD*%
%TA.AperFunction,SMDPad,CuDef*%
%ADD16RoundRect,0.135000X0.185000X-0.135000X0.185000X0.135000X-0.185000X0.135000X-0.185000X-0.135000X0*%
%TD*%
%TA.AperFunction,SMDPad,CuDef*%
%ADD17RoundRect,0.140000X0.021213X-0.219203X0.219203X-0.021213X-0.021213X0.219203X-0.219203X0.021213X0*%
%TD*%
%TA.AperFunction,SMDPad,CuDef*%
%ADD18RoundRect,0.150000X0.625000X-0.150000X0.625000X0.150000X-0.625000X0.150000X-0.625000X-0.150000X0*%
%TD*%
%TA.AperFunction,SMDPad,CuDef*%
%ADD19RoundRect,0.250000X0.650000X-0.350000X0.650000X0.350000X-0.650000X0.350000X-0.650000X-0.350000X0*%
%TD*%
%TA.AperFunction,SMDPad,CuDef*%
%ADD20RoundRect,0.062500X-0.203293X-0.291682X0.291682X0.203293X0.203293X0.291682X-0.291682X-0.203293X0*%
%TD*%
%TA.AperFunction,SMDPad,CuDef*%
%ADD21RoundRect,0.062500X0.203293X-0.291682X0.291682X-0.203293X-0.203293X0.291682X-0.291682X0.203293X0*%
%TD*%
%TA.AperFunction,SMDPad,CuDef*%
%ADD22RotRect,2.600000X2.600000X45.000000*%
%TD*%
%TA.AperFunction,ViaPad*%
%ADD23C,0.800000*%
%TD*%
%TA.AperFunction,Conductor*%
%ADD24C,0.250000*%
%TD*%
%TA.AperFunction,Conductor*%
%ADD25C,0.200000*%
%TD*%
%TA.AperFunction,Conductor*%
%ADD26C,0.600000*%
%TD*%
%TA.AperFunction,Conductor*%
%ADD27C,0.300000*%
%TD*%
G04 APERTURE END LIST*
D10*
%TO.P,R3,2*%
%TO.N,Net-(D6-A)*%
X141090000Y-90200000D03*
%TO.P,R3,1*%
%TO.N,LED*%
X142110000Y-90200000D03*
%TD*%
D11*
%TO.P,D6,2,A*%
%TO.N,Net-(D6-A)*%
X141600000Y-92162500D03*
%TO.P,D6,1,K*%
%TO.N,GND*%
X141600000Y-94037500D03*
%TD*%
D12*
%TO.P,J4,1,Pin_1*%
%TO.N,unconnected-(J4-Pin_1-Pad1)*%
X148000000Y-97000000D03*
%TD*%
D13*
%TO.P,J1,1,Pin_1*%
%TO.N,GND*%
X153000000Y-100000000D03*
%TO.P,J1,2,Pin_2*%
%TO.N,+3.3V*%
X153000000Y-101000000D03*
%TO.P,J1,3,Pin_3*%
%TO.N,SDA*%
X153000000Y-102000000D03*
%TO.P,J1,4,Pin_4*%
%TO.N,SCL*%
X153000000Y-103000000D03*
D14*
%TO.P,J1,MP*%
%TO.N,N/C*%
X156875000Y-98700000D03*
X156875000Y-104300000D03*
%TD*%
D15*
%TO.P,TP1,1,1*%
%TO.N,nRST*%
X154940000Y-88900000D03*
%TD*%
D16*
%TO.P,R2,1*%
%TO.N,+3.3V*%
X153000000Y-92410000D03*
%TO.P,R2,2*%
%TO.N,SWDCLK*%
X153000000Y-91390000D03*
%TD*%
D17*
%TO.P,C3,1*%
%TO.N,+3.3V*%
X149460589Y-94639411D03*
%TO.P,C3,2*%
%TO.N,GND*%
X150139411Y-93960589D03*
%TD*%
D15*
%TO.P,TP2,1,1*%
%TO.N,+3.3V*%
X147320000Y-101600000D03*
%TD*%
%TO.P,TP5,1,1*%
%TO.N,SWDCLK*%
X154940000Y-91440000D03*
%TD*%
D10*
%TO.P,R1,1*%
%TO.N,+3.3V*%
X139920000Y-90200000D03*
%TO.P,R1,2*%
%TO.N,Net-(D1-A)*%
X138900000Y-90200000D03*
%TD*%
D18*
%TO.P,J2,1,Pin_1*%
%TO.N,GND*%
X143000000Y-103000000D03*
%TO.P,J2,2,Pin_2*%
%TO.N,+3.3V*%
X143000000Y-102000000D03*
%TO.P,J2,3,Pin_3*%
%TO.N,SDA*%
X143000000Y-101000000D03*
%TO.P,J2,4,Pin_4*%
%TO.N,SCL*%
X143000000Y-100000000D03*
D19*
%TO.P,J2,MP*%
%TO.N,N/C*%
X139125000Y-104300000D03*
X139125000Y-98700000D03*
%TD*%
D17*
%TO.P,C2,1*%
%TO.N,+3.3V*%
X150460589Y-95639411D03*
%TO.P,C2,2*%
%TO.N,GND*%
X151139411Y-94960589D03*
%TD*%
D15*
%TO.P,TP4,1,1*%
%TO.N,SWDIO*%
X154940000Y-93980000D03*
%TD*%
D20*
%TO.P,U1,1,PA02*%
%TO.N,unconnected-(U1-PA02-Pad1)*%
X147513864Y-93253903D03*
%TO.P,U1,2,PA03*%
%TO.N,unconnected-(U1-PA03-Pad2)*%
X147160311Y-92900349D03*
%TO.P,U1,3,PA04*%
%TO.N,unconnected-(U1-PA04-Pad3)*%
X146806757Y-92546796D03*
%TO.P,U1,4,PA05*%
%TO.N,unconnected-(U1-PA05-Pad4)*%
X146453204Y-92193243D03*
%TO.P,U1,5,PA06*%
%TO.N,PA4*%
X146099651Y-91839689D03*
%TO.P,U1,6,PA07*%
%TO.N,PA5*%
X145746097Y-91486136D03*
D21*
%TO.P,U1,7,PA08*%
%TO.N,PA6*%
X145746097Y-90513864D03*
%TO.P,U1,8,PA09*%
%TO.N,LED*%
X146099651Y-90160311D03*
%TO.P,U1,9,PA10*%
%TO.N,ADRS_LED*%
X146453204Y-89806757D03*
%TO.P,U1,10,PA11*%
%TO.N,PA2*%
X146806757Y-89453204D03*
%TO.P,U1,11,PA14*%
%TO.N,SDA*%
X147160311Y-89099651D03*
%TO.P,U1,12,PA15*%
%TO.N,SCL*%
X147513864Y-88746097D03*
D20*
%TO.P,U1,13,PA16*%
%TO.N,unconnected-(U1-PA16-Pad13)*%
X148486136Y-88746097D03*
%TO.P,U1,14,PA17*%
%TO.N,unconnected-(U1-PA17-Pad14)*%
X148839689Y-89099651D03*
%TO.P,U1,15,PA22*%
%TO.N,unconnected-(U1-PA22-Pad15)*%
X149193243Y-89453204D03*
%TO.P,U1,16,PA23*%
%TO.N,unconnected-(U1-PA23-Pad16)*%
X149546796Y-89806757D03*
%TO.P,U1,17,PA27*%
%TO.N,unconnected-(U1-PA27-Pad17)*%
X149900349Y-90160311D03*
%TO.P,U1,18,PA28/~{RST}*%
%TO.N,nRST*%
X150253903Y-90513864D03*
D21*
%TO.P,U1,19,PA30/SWCLK*%
%TO.N,SWDCLK*%
X150253903Y-91486136D03*
%TO.P,U1,20,PA31/SWDIO*%
%TO.N,SWDIO*%
X149900349Y-91839689D03*
%TO.P,U1,21,PA24*%
%TO.N,unconnected-(U1-PA24-Pad21)*%
X149546796Y-92193243D03*
%TO.P,U1,22,PA25*%
%TO.N,unconnected-(U1-PA25-Pad22)*%
X149193243Y-92546796D03*
%TO.P,U1,23,GND*%
%TO.N,GND*%
X148839689Y-92900349D03*
%TO.P,U1,24,VDD*%
%TO.N,+3.3V*%
X148486136Y-93253903D03*
D22*
%TO.P,U1,25*%
%TO.N,N/C*%
X148000000Y-91000000D03*
%TD*%
D11*
%TO.P,D1,1,K*%
%TO.N,GND*%
X139500000Y-94037500D03*
%TO.P,D1,2,A*%
%TO.N,Net-(D1-A)*%
X139500000Y-92162500D03*
%TD*%
D15*
%TO.P,TP3,1,1*%
%TO.N,GND*%
X147320000Y-99060000D03*
%TD*%
D23*
%TO.N,+3.3V*%
X150500000Y-100500000D03*
X149355378Y-96544622D03*
X157367812Y-90195892D03*
X148700000Y-100500000D03*
X149600000Y-100500000D03*
X139900000Y-105800000D03*
X150100000Y-97400000D03*
X140800000Y-89000000D03*
X156200000Y-105600000D03*
%TO.N,GND*%
X141200000Y-101800000D03*
X150700000Y-99000000D03*
X153100000Y-88800000D03*
X154500000Y-105800000D03*
X141600000Y-95700000D03*
X157100000Y-97200000D03*
X152900000Y-96000000D03*
X143400000Y-91200000D03*
X146600000Y-103000000D03*
X148900000Y-103000000D03*
X139300000Y-102100000D03*
X145500000Y-103000000D03*
X148900000Y-99000000D03*
X154700000Y-96000000D03*
X144400000Y-103000000D03*
X149800000Y-99000000D03*
%TO.N,ADRS_LED*%
X143702701Y-89162299D03*
%TO.N,PA6*%
X144100000Y-93500000D03*
%TO.N,PA4*%
X146600000Y-94300000D03*
%TO.N,PA5*%
X150400000Y-103850500D03*
X148400000Y-105900000D03*
X145000000Y-94100000D03*
%TO.N,PA2*%
X143400000Y-87500000D03*
%TO.N,SDA*%
X154400000Y-101000000D03*
X146844293Y-87984490D03*
%TO.N,SCL*%
X154367926Y-102249057D03*
X149062968Y-87907868D03*
%TD*%
D24*
%TO.N,PA4*%
X145774022Y-93474022D02*
X146600000Y-94300000D01*
X145774022Y-92165318D02*
X145774022Y-93474022D01*
X146099651Y-91839689D02*
X145774022Y-92165318D01*
%TO.N,PA5*%
X145000000Y-92232233D02*
X145000000Y-94100000D01*
X145746097Y-91486136D02*
X145000000Y-92232233D01*
%TO.N,PA6*%
X144100000Y-92159961D02*
X144100000Y-93500000D01*
X145746097Y-90513864D02*
X144100000Y-92159961D01*
%TO.N,LED*%
X145016978Y-90200000D02*
X142110000Y-90200000D01*
X145382296Y-89834682D02*
X145016978Y-90200000D01*
X145774022Y-89834682D02*
X145382296Y-89834682D01*
X146099651Y-90160311D02*
X145774022Y-89834682D01*
%TO.N,ADRS_LED*%
X145808746Y-89162299D02*
X143702701Y-89162299D01*
X146453204Y-89806757D02*
X145808746Y-89162299D01*
%TO.N,PA2*%
X144853553Y-87500000D02*
X146806757Y-89453204D01*
X143400000Y-87500000D02*
X144853553Y-87500000D01*
%TO.N,Net-(D6-A)*%
X141600000Y-92000000D02*
X141090000Y-91490000D01*
X141600000Y-92162500D02*
X141600000Y-92000000D01*
X141090000Y-91490000D02*
X141090000Y-90200000D01*
%TO.N,+3.3V*%
X140300000Y-89000000D02*
X140800000Y-89000000D01*
X139920000Y-90200000D02*
X139920000Y-89380000D01*
X139920000Y-89380000D02*
X140300000Y-89000000D01*
%TO.N,Net-(D1-A)*%
X138900000Y-91562500D02*
X139500000Y-92162500D01*
X138900000Y-90200000D02*
X138900000Y-91562500D01*
D25*
%TO.N,nRST*%
X153326136Y-90513864D02*
X154940000Y-88900000D01*
%TO.N,SDA*%
X146859683Y-88799023D02*
X147160311Y-89099651D01*
X146844293Y-87984490D02*
X146859683Y-87999880D01*
X146859683Y-87999880D02*
X146859683Y-88799023D01*
X146844293Y-87984490D02*
X146859683Y-87969100D01*
%TO.N,SCL*%
X148352093Y-87907868D02*
X147513864Y-88746097D01*
X149062968Y-87907868D02*
X148352093Y-87907868D01*
X149062968Y-87907868D02*
X148907868Y-87907868D01*
%TO.N,+3.3V*%
X155990000Y-91573704D02*
X155990000Y-91874925D01*
X157367812Y-90195892D02*
X155990000Y-91573704D01*
D26*
X148700000Y-100500000D02*
X149600000Y-100500000D01*
D27*
X140800000Y-89000000D02*
X140800000Y-89100000D01*
D25*
X153080000Y-92490000D02*
X153000000Y-92410000D01*
D26*
X149600000Y-100500000D02*
X150500000Y-100500000D01*
D25*
X155374925Y-92490000D02*
X153080000Y-92490000D01*
X155990000Y-91874925D02*
X155374925Y-92490000D01*
D26*
%TO.N,GND*%
X150760000Y-99060000D02*
X150700000Y-99000000D01*
D27*
X141600000Y-94037500D02*
X141600000Y-95700000D01*
D26*
X146600000Y-103000000D02*
X145900000Y-103000000D01*
X151860000Y-99060000D02*
X150760000Y-99060000D01*
D25*
X149899929Y-93960589D02*
X150139411Y-93960589D01*
D26*
X148900000Y-99000000D02*
X148840000Y-99060000D01*
D25*
X152500000Y-96000000D02*
X151460589Y-94960589D01*
D26*
X149740000Y-99060000D02*
X148960000Y-99060000D01*
X150700000Y-99000000D02*
X150640000Y-99060000D01*
X149800000Y-99000000D02*
X149740000Y-99060000D01*
X143000000Y-103000000D02*
X144400000Y-103000000D01*
D25*
X152900000Y-96000000D02*
X152500000Y-96000000D01*
X148839689Y-92900349D02*
X149899929Y-93960589D01*
D26*
X144400000Y-103000000D02*
X145500000Y-103000000D01*
X152100000Y-99100000D02*
X151900000Y-99100000D01*
D25*
X154700000Y-96000000D02*
X152900000Y-96000000D01*
D26*
X150640000Y-99060000D02*
X149860000Y-99060000D01*
D25*
X151460589Y-94960589D02*
X151139411Y-94960589D01*
D26*
X153000000Y-100000000D02*
X152100000Y-99100000D01*
X148960000Y-99060000D02*
X148900000Y-99000000D01*
X151900000Y-99100000D02*
X151860000Y-99060000D01*
X145500000Y-103000000D02*
X146600000Y-103000000D01*
D25*
X150139411Y-93960589D02*
X151139411Y-94960589D01*
D27*
X141600000Y-95700000D02*
X141700000Y-95800000D01*
D26*
X148840000Y-99060000D02*
X147320000Y-99060000D01*
X149860000Y-99060000D02*
X149800000Y-99000000D01*
D25*
%TO.N,SWDIO*%
X152040660Y-93980000D02*
X149900349Y-91839689D01*
X154940000Y-93980000D02*
X152040660Y-93980000D01*
%TO.N,SWDCLK*%
X153000000Y-91390000D02*
X152903864Y-91486136D01*
X154940000Y-91440000D02*
X153050000Y-91440000D01*
X152903864Y-91486136D02*
X150253903Y-91486136D01*
X153050000Y-91440000D02*
X153000000Y-91390000D01*
%TO.N,nRST*%
X150253903Y-90513864D02*
X153326136Y-90513864D01*
%TO.N,PA5*%
X148400000Y-105850500D02*
X148400000Y-105900000D01*
X150400000Y-103850500D02*
X148400000Y-105850500D01*
%TO.N,SDA*%
X145700000Y-105200000D02*
X143788604Y-105200000D01*
X153000000Y-102000000D02*
X153627033Y-102000000D01*
X148900000Y-102000000D02*
X145700000Y-105200000D01*
X153627033Y-102000000D02*
X154400000Y-101227033D01*
X141925000Y-101375000D02*
X142300000Y-101000000D01*
X142300000Y-101000000D02*
X143000000Y-101000000D01*
X153000000Y-102000000D02*
X148900000Y-102000000D01*
X141925000Y-103336396D02*
X141925000Y-101375000D01*
X143788604Y-105200000D02*
X141925000Y-103336396D01*
X154400000Y-101227033D02*
X154400000Y-101000000D01*
%TO.N,SCL*%
X140400000Y-103500000D02*
X143000000Y-106100000D01*
X154367926Y-102249057D02*
X154075000Y-102249057D01*
X150100000Y-103000000D02*
X153000000Y-103000000D01*
X154075000Y-102249057D02*
X154075000Y-102336396D01*
X143000000Y-100000000D02*
X141900000Y-100000000D01*
X154075000Y-102336396D02*
X153411396Y-103000000D01*
X153411396Y-103000000D02*
X153000000Y-103000000D01*
X141900000Y-100000000D02*
X140400000Y-101500000D01*
X143000000Y-106100000D02*
X147000000Y-106100000D01*
X147000000Y-106100000D02*
X150100000Y-103000000D01*
X140400000Y-101500000D02*
X140400000Y-103500000D01*
%TD*%
%TA.AperFunction,Conductor*%
%TO.N,+3.3V*%
G36*
X151615677Y-100019685D02*
G01*
X151636319Y-100036319D01*
X152300000Y-100700000D01*
X153676000Y-100700000D01*
X153743039Y-100719685D01*
X153788794Y-100772489D01*
X153800000Y-100824000D01*
X153800000Y-100952773D01*
X153799469Y-100960875D01*
X153794318Y-100999999D01*
X153794318Y-101000000D01*
X153799469Y-101039124D01*
X153800000Y-101047225D01*
X153800000Y-101176000D01*
X153780315Y-101243039D01*
X153727511Y-101288794D01*
X153676000Y-101300000D01*
X149499999Y-101300000D01*
X147427027Y-102385843D01*
X147369490Y-102400000D01*
X146647226Y-102400000D01*
X146639127Y-102399469D01*
X146600000Y-102394318D01*
X146560872Y-102399469D01*
X146552774Y-102400000D01*
X145547226Y-102400000D01*
X145539127Y-102399469D01*
X145500000Y-102394318D01*
X145460872Y-102399469D01*
X145452774Y-102400000D01*
X144447226Y-102400000D01*
X144439127Y-102399469D01*
X144400000Y-102394318D01*
X144360872Y-102399469D01*
X144352774Y-102400000D01*
X142349500Y-102400000D01*
X142282461Y-102380315D01*
X142236706Y-102327511D01*
X142225500Y-102276000D01*
X142225500Y-101724000D01*
X142245185Y-101656961D01*
X142297989Y-101611206D01*
X142349500Y-101600000D01*
X144200000Y-101600000D01*
X147876445Y-100010186D01*
X147925662Y-100000000D01*
X151548638Y-100000000D01*
X151615677Y-100019685D01*
G37*
%TD.AperFunction*%
%TD*%
%TA.AperFunction,Conductor*%
%TO.N,+3.3V*%
G36*
X148409812Y-93006866D02*
G01*
X148432446Y-93023616D01*
X148897084Y-93457278D01*
X149789401Y-94290108D01*
X149948069Y-94448775D01*
X149948073Y-94448778D01*
X149948077Y-94448782D01*
X149952294Y-94452481D01*
X149955252Y-94455252D01*
X150644750Y-95144750D01*
X150647525Y-95147712D01*
X150651212Y-95151916D01*
X150651224Y-95151931D01*
X150872757Y-95373463D01*
X150948069Y-95448775D01*
X150952294Y-95452481D01*
X150955252Y-95455252D01*
X150963681Y-95463681D01*
X150997166Y-95525004D01*
X151000000Y-95551362D01*
X151000000Y-97776000D01*
X150980315Y-97843039D01*
X150927511Y-97888794D01*
X150876000Y-97900000D01*
X150345871Y-97900000D01*
X150278832Y-97880315D01*
X150265173Y-97870148D01*
X148943302Y-96737116D01*
X148905212Y-96678541D01*
X148900000Y-96642968D01*
X148900000Y-94300000D01*
X148891207Y-94290108D01*
X148150912Y-93457276D01*
X148121087Y-93394095D01*
X148128460Y-93328848D01*
X148232713Y-93068215D01*
X148275887Y-93013284D01*
X148341907Y-92990413D01*
X148409812Y-93006866D01*
G37*
%TD.AperFunction*%
%TD*%
M02*
