%TF.GenerationSoftware,KiCad,Pcbnew,7.0.6*%
%TF.CreationDate,2023-08-27T19:49:05-04:00*%
%TF.ProjectId,miniclick,6d696e69-636c-4696-936b-2e6b69636164,rev?*%
%TF.SameCoordinates,Original*%
%TF.FileFunction,Copper,L2,Inr*%
%TF.FilePolarity,Positive*%
%FSLAX46Y46*%
G04 Gerber Fmt 4.6, Leading zero omitted, Abs format (unit mm)*
G04 Created by KiCad (PCBNEW 7.0.6) date 2023-08-27 19:49:05*
%MOMM*%
%LPD*%
G01*
G04 APERTURE LIST*
%TA.AperFunction,ComponentPad*%
%ADD10R,1.350000X1.350000*%
%TD*%
%TA.AperFunction,ViaPad*%
%ADD11C,0.800000*%
%TD*%
G04 APERTURE END LIST*
D10*
%TO.N,unconnected-(J4-Pin_1-Pad1)*%
%TO.C,J4*%
X148000000Y-97000000D03*
%TD*%
D11*
%TO.N,+3.3V*%
X150500000Y-100500000D03*
X149355378Y-96544622D03*
X157367812Y-90195892D03*
X148700000Y-100500000D03*
X149600000Y-100500000D03*
X139900000Y-105800000D03*
X150100000Y-97400000D03*
X140800000Y-89000000D03*
X156200000Y-105600000D03*
%TO.N,GND*%
X141200000Y-101800000D03*
X150700000Y-99000000D03*
X153100000Y-88800000D03*
X154500000Y-105800000D03*
X141600000Y-95700000D03*
X157100000Y-97200000D03*
X152900000Y-96000000D03*
X143400000Y-91200000D03*
X146600000Y-103000000D03*
X148900000Y-103000000D03*
X139300000Y-102100000D03*
X145500000Y-103000000D03*
X148900000Y-99000000D03*
X154700000Y-96000000D03*
X144400000Y-103000000D03*
X149800000Y-99000000D03*
%TO.N,ADRS_LED*%
X143702701Y-89162299D03*
%TO.N,PA6*%
X144100000Y-93500000D03*
%TO.N,PA4*%
X146600000Y-94300000D03*
%TO.N,PA5*%
X150400000Y-103850500D03*
X148400000Y-105900000D03*
X145000000Y-94100000D03*
%TO.N,PA2*%
X143400000Y-87500000D03*
%TO.N,SDA*%
X154400000Y-101000000D03*
X146844293Y-87984490D03*
%TO.N,SCL*%
X154367926Y-102249057D03*
X149062968Y-87907868D03*
%TD*%
%TA.AperFunction,Conductor*%
%TO.N,+3.3V*%
G36*
X142511823Y-87020185D02*
G01*
X142557578Y-87072989D01*
X142567522Y-87142147D01*
X142562715Y-87162818D01*
X142519755Y-87295036D01*
X142514326Y-87311744D01*
X142494540Y-87500000D01*
X142514326Y-87688256D01*
X142514327Y-87688259D01*
X142572818Y-87868277D01*
X142572821Y-87868284D01*
X142667467Y-88032216D01*
X142794001Y-88172746D01*
X142794129Y-88172888D01*
X142936250Y-88276145D01*
X142947270Y-88284151D01*
X143030046Y-88321005D01*
X143083280Y-88366254D01*
X143103601Y-88433103D01*
X143084556Y-88500327D01*
X143071758Y-88517254D01*
X142970167Y-88630084D01*
X142875522Y-88794014D01*
X142875519Y-88794021D01*
X142817028Y-88974039D01*
X142817027Y-88974043D01*
X142797241Y-89162299D01*
X142817027Y-89350555D01*
X142817028Y-89350558D01*
X142875519Y-89530576D01*
X142875522Y-89530583D01*
X142970168Y-89694515D01*
X143096830Y-89835186D01*
X143096830Y-89835187D01*
X143249966Y-89946447D01*
X143249971Y-89946450D01*
X143422893Y-90023441D01*
X143422898Y-90023443D01*
X143608055Y-90062799D01*
X143608056Y-90062799D01*
X143797345Y-90062799D01*
X143797347Y-90062799D01*
X143982504Y-90023443D01*
X144155431Y-89946450D01*
X144308572Y-89835187D01*
X144435234Y-89694515D01*
X144529880Y-89530583D01*
X144588375Y-89350555D01*
X144608161Y-89162299D01*
X144588375Y-88974043D01*
X144529880Y-88794015D01*
X144435234Y-88630083D01*
X144308572Y-88489411D01*
X144308571Y-88489410D01*
X144155435Y-88378150D01*
X144155433Y-88378149D01*
X144072655Y-88341293D01*
X144019419Y-88296042D01*
X143999098Y-88229193D01*
X144018144Y-88161969D01*
X144030934Y-88145052D01*
X144132533Y-88032216D01*
X144227179Y-87868284D01*
X144285674Y-87688256D01*
X144305460Y-87500000D01*
X144285674Y-87311744D01*
X144249476Y-87200339D01*
X144237285Y-87162818D01*
X144235290Y-87092977D01*
X144271370Y-87033144D01*
X144334071Y-87002316D01*
X144355216Y-87000500D01*
X146284985Y-87000500D01*
X146352024Y-87020185D01*
X146397779Y-87072989D01*
X146407723Y-87142147D01*
X146378698Y-87205703D01*
X146357870Y-87224818D01*
X146238422Y-87311601D01*
X146111759Y-87452275D01*
X146017114Y-87616205D01*
X146017111Y-87616212D01*
X145958620Y-87796230D01*
X145958619Y-87796234D01*
X145938833Y-87984490D01*
X145958619Y-88172746D01*
X145958620Y-88172749D01*
X146017111Y-88352767D01*
X146017114Y-88352774D01*
X146111760Y-88516706D01*
X146213846Y-88630084D01*
X146238422Y-88657378D01*
X146391558Y-88768638D01*
X146391563Y-88768641D01*
X146564485Y-88845632D01*
X146564490Y-88845634D01*
X146749647Y-88884990D01*
X146749648Y-88884990D01*
X146938937Y-88884990D01*
X146938939Y-88884990D01*
X147124096Y-88845634D01*
X147297023Y-88768641D01*
X147450164Y-88657378D01*
X147576826Y-88516706D01*
X147671472Y-88352774D01*
X147729967Y-88172746D01*
X147749753Y-87984490D01*
X147729967Y-87796234D01*
X147671472Y-87616206D01*
X147576826Y-87452274D01*
X147450164Y-87311602D01*
X147427363Y-87295036D01*
X147330716Y-87224818D01*
X147288050Y-87169488D01*
X147282071Y-87099875D01*
X147314677Y-87038080D01*
X147375515Y-87003723D01*
X147403601Y-87000500D01*
X148398199Y-87000500D01*
X148465238Y-87020185D01*
X148510993Y-87072989D01*
X148520937Y-87142147D01*
X148491912Y-87205703D01*
X148471085Y-87224817D01*
X148470045Y-87225573D01*
X148457096Y-87234980D01*
X148330434Y-87375653D01*
X148235789Y-87539583D01*
X148235786Y-87539590D01*
X148190766Y-87678149D01*
X148177294Y-87719612D01*
X148157508Y-87907868D01*
X148177294Y-88096124D01*
X148177295Y-88096127D01*
X148235786Y-88276145D01*
X148235789Y-88276152D01*
X148330435Y-88440084D01*
X148457097Y-88580756D01*
X148610233Y-88692016D01*
X148610238Y-88692019D01*
X148783160Y-88769010D01*
X148783165Y-88769012D01*
X148968322Y-88808368D01*
X148968323Y-88808368D01*
X149157612Y-88808368D01*
X149157614Y-88808368D01*
X149196983Y-88800000D01*
X152194540Y-88800000D01*
X152214326Y-88988256D01*
X152214327Y-88988259D01*
X152272818Y-89168277D01*
X152272821Y-89168284D01*
X152367467Y-89332216D01*
X152494128Y-89472888D01*
X152494129Y-89472888D01*
X152647265Y-89584148D01*
X152647270Y-89584151D01*
X152820192Y-89661142D01*
X152820197Y-89661144D01*
X153005354Y-89700500D01*
X153005355Y-89700500D01*
X153194644Y-89700500D01*
X153194646Y-89700500D01*
X153379803Y-89661144D01*
X153552730Y-89584151D01*
X153705871Y-89472888D01*
X153832533Y-89332216D01*
X153927179Y-89168284D01*
X153985674Y-88988256D01*
X154005460Y-88800000D01*
X153985674Y-88611744D01*
X153927179Y-88431716D01*
X153832533Y-88267784D01*
X153705871Y-88127112D01*
X153705870Y-88127111D01*
X153552734Y-88015851D01*
X153552729Y-88015848D01*
X153379807Y-87938857D01*
X153379802Y-87938855D01*
X153234001Y-87907865D01*
X153194646Y-87899500D01*
X153005354Y-87899500D01*
X152972897Y-87906398D01*
X152820197Y-87938855D01*
X152820192Y-87938857D01*
X152647270Y-88015848D01*
X152647265Y-88015851D01*
X152494129Y-88127111D01*
X152367466Y-88267785D01*
X152272821Y-88431715D01*
X152272818Y-88431722D01*
X152214327Y-88611740D01*
X152214326Y-88611744D01*
X152194540Y-88800000D01*
X149196983Y-88800000D01*
X149342771Y-88769012D01*
X149515698Y-88692019D01*
X149668839Y-88580756D01*
X149795501Y-88440084D01*
X149890147Y-88276152D01*
X149948642Y-88096124D01*
X149968428Y-87907868D01*
X149948642Y-87719612D01*
X149890147Y-87539584D01*
X149795501Y-87375652D01*
X149668839Y-87234980D01*
X149654852Y-87224818D01*
X149612186Y-87169489D01*
X149606207Y-87099876D01*
X149638812Y-87038081D01*
X149699650Y-87003723D01*
X149727737Y-87000500D01*
X154999901Y-87000500D01*
X155997964Y-87000500D01*
X156002019Y-87000633D01*
X156037198Y-87002938D01*
X156083708Y-87005986D01*
X156265459Y-87018985D01*
X156273100Y-87020015D01*
X156363918Y-87038080D01*
X156389420Y-87043153D01*
X156415023Y-87048722D01*
X156533666Y-87074531D01*
X156540383Y-87076395D01*
X156659437Y-87116809D01*
X156756671Y-87153076D01*
X156791741Y-87166157D01*
X156797499Y-87168643D01*
X156912952Y-87225578D01*
X157034906Y-87292170D01*
X157039634Y-87295032D01*
X157064640Y-87311740D01*
X157146649Y-87366537D01*
X157149358Y-87368454D01*
X157258652Y-87450271D01*
X157262345Y-87453265D01*
X157359502Y-87538469D01*
X157362448Y-87541228D01*
X157458769Y-87637549D01*
X157461526Y-87640492D01*
X157546729Y-87737648D01*
X157549732Y-87741353D01*
X157590813Y-87796230D01*
X157631543Y-87850639D01*
X157633461Y-87853349D01*
X157704962Y-87960357D01*
X157707828Y-87965091D01*
X157774421Y-88087047D01*
X157831355Y-88202499D01*
X157833841Y-88208257D01*
X157859166Y-88276152D01*
X157883196Y-88340578D01*
X157887336Y-88352774D01*
X157923597Y-88459596D01*
X157925472Y-88466352D01*
X157956846Y-88610579D01*
X157979980Y-88726880D01*
X157981015Y-88734560D01*
X157994017Y-88916350D01*
X157996564Y-88955207D01*
X157998730Y-88988259D01*
X157999367Y-88997966D01*
X157999500Y-89002023D01*
X157999500Y-96530188D01*
X157979815Y-96597227D01*
X157927011Y-96642982D01*
X157857853Y-96652926D01*
X157794297Y-96623901D01*
X157783351Y-96613161D01*
X157705871Y-96527112D01*
X157705870Y-96527111D01*
X157552734Y-96415851D01*
X157552729Y-96415848D01*
X157379807Y-96338857D01*
X157379802Y-96338855D01*
X157234001Y-96307865D01*
X157194646Y-96299500D01*
X157005354Y-96299500D01*
X156972897Y-96306398D01*
X156820197Y-96338855D01*
X156820192Y-96338857D01*
X156647270Y-96415848D01*
X156647265Y-96415851D01*
X156494129Y-96527111D01*
X156367466Y-96667785D01*
X156272821Y-96831715D01*
X156272818Y-96831722D01*
X156214327Y-97011740D01*
X156214326Y-97011744D01*
X156194540Y-97200000D01*
X156214326Y-97388256D01*
X156214327Y-97388259D01*
X156272818Y-97568277D01*
X156272821Y-97568284D01*
X156367467Y-97732216D01*
X156412727Y-97782482D01*
X156494129Y-97872888D01*
X156647265Y-97984148D01*
X156647270Y-97984151D01*
X156820192Y-98061142D01*
X156820197Y-98061144D01*
X157005354Y-98100500D01*
X157005355Y-98100500D01*
X157194644Y-98100500D01*
X157194646Y-98100500D01*
X157379803Y-98061144D01*
X157552730Y-97984151D01*
X157705871Y-97872888D01*
X157783350Y-97786838D01*
X157842837Y-97750190D01*
X157912694Y-97751521D01*
X157970742Y-97790407D01*
X157998552Y-97854504D01*
X157999500Y-97869811D01*
X157999500Y-104997975D01*
X157999367Y-105002032D01*
X157994017Y-105083648D01*
X157981015Y-105265438D01*
X157979980Y-105273118D01*
X157956846Y-105389420D01*
X157925472Y-105533646D01*
X157923597Y-105540401D01*
X157899380Y-105611744D01*
X157883208Y-105659388D01*
X157883195Y-105659425D01*
X157833841Y-105791741D01*
X157831355Y-105797499D01*
X157774421Y-105912952D01*
X157707828Y-106034907D01*
X157704961Y-106039641D01*
X157633461Y-106146649D01*
X157631543Y-106149359D01*
X157549744Y-106258631D01*
X157546723Y-106262357D01*
X157461529Y-106359502D01*
X157458755Y-106362464D01*
X157362464Y-106458755D01*
X157359502Y-106461529D01*
X157262357Y-106546723D01*
X157258631Y-106549744D01*
X157149359Y-106631543D01*
X157146649Y-106633461D01*
X157039641Y-106704961D01*
X157034907Y-106707828D01*
X156912952Y-106774421D01*
X156797499Y-106831355D01*
X156791741Y-106833841D01*
X156683219Y-106874320D01*
X156659418Y-106883197D01*
X156540401Y-106923597D01*
X156533646Y-106925472D01*
X156389420Y-106956846D01*
X156273118Y-106979980D01*
X156265438Y-106981015D01*
X156083648Y-106994017D01*
X156032582Y-106997364D01*
X156002025Y-106999367D01*
X155997976Y-106999500D01*
X148727821Y-106999500D01*
X148660782Y-106979815D01*
X148615027Y-106927011D01*
X148605083Y-106857853D01*
X148634108Y-106794297D01*
X148677385Y-106762221D01*
X148805988Y-106704962D01*
X148852730Y-106684151D01*
X149005871Y-106572888D01*
X149132533Y-106432216D01*
X149227179Y-106268284D01*
X149285674Y-106088256D01*
X149305460Y-105900000D01*
X149294950Y-105800000D01*
X153594540Y-105800000D01*
X153614326Y-105988256D01*
X153614327Y-105988259D01*
X153672818Y-106168277D01*
X153672821Y-106168284D01*
X153767467Y-106332216D01*
X153840980Y-106413860D01*
X153894129Y-106472888D01*
X154047265Y-106584148D01*
X154047270Y-106584151D01*
X154220192Y-106661142D01*
X154220197Y-106661144D01*
X154405354Y-106700500D01*
X154405355Y-106700500D01*
X154594644Y-106700500D01*
X154594646Y-106700500D01*
X154779803Y-106661144D01*
X154952730Y-106584151D01*
X155105871Y-106472888D01*
X155232533Y-106332216D01*
X155327179Y-106168284D01*
X155385674Y-105988256D01*
X155405460Y-105800000D01*
X155385674Y-105611744D01*
X155327179Y-105431716D01*
X155232533Y-105267784D01*
X155105871Y-105127112D01*
X155090369Y-105115849D01*
X154952734Y-105015851D01*
X154952729Y-105015848D01*
X154779807Y-104938857D01*
X154779802Y-104938855D01*
X154634000Y-104907865D01*
X154594646Y-104899500D01*
X154405354Y-104899500D01*
X154372897Y-104906398D01*
X154220197Y-104938855D01*
X154220192Y-104938857D01*
X154047270Y-105015848D01*
X154047265Y-105015851D01*
X153894129Y-105127111D01*
X153767466Y-105267785D01*
X153672821Y-105431715D01*
X153672818Y-105431722D01*
X153614327Y-105611740D01*
X153614326Y-105611744D01*
X153594540Y-105800000D01*
X149294950Y-105800000D01*
X149285674Y-105711744D01*
X149227179Y-105531716D01*
X149132533Y-105367784D01*
X149005871Y-105227112D01*
X149005870Y-105227111D01*
X148852734Y-105115851D01*
X148852729Y-105115848D01*
X148679807Y-105038857D01*
X148679802Y-105038855D01*
X148506558Y-105002032D01*
X148494646Y-104999500D01*
X148305354Y-104999500D01*
X148293442Y-105002032D01*
X148120197Y-105038855D01*
X148120192Y-105038857D01*
X147947270Y-105115848D01*
X147947265Y-105115851D01*
X147794129Y-105227111D01*
X147667466Y-105367785D01*
X147572821Y-105531715D01*
X147572818Y-105531722D01*
X147514327Y-105711740D01*
X147514326Y-105711744D01*
X147494540Y-105900000D01*
X147514326Y-106088256D01*
X147514327Y-106088259D01*
X147572818Y-106268277D01*
X147572821Y-106268284D01*
X147667467Y-106432216D01*
X147735057Y-106507282D01*
X147794129Y-106572888D01*
X147947265Y-106684148D01*
X147947270Y-106684151D01*
X148122615Y-106762221D01*
X148175852Y-106807471D01*
X148196173Y-106874320D01*
X148177127Y-106941544D01*
X148124761Y-106987799D01*
X148072179Y-106999500D01*
X140002024Y-106999500D01*
X139997974Y-106999367D01*
X139959954Y-106996875D01*
X139916350Y-106994017D01*
X139734560Y-106981015D01*
X139726880Y-106979980D01*
X139610579Y-106956846D01*
X139466352Y-106925472D01*
X139459596Y-106923597D01*
X139427881Y-106912831D01*
X139340578Y-106883196D01*
X139305768Y-106870212D01*
X139208257Y-106833841D01*
X139202499Y-106831355D01*
X139087047Y-106774421D01*
X138965091Y-106707828D01*
X138960357Y-106704962D01*
X138853349Y-106633461D01*
X138850639Y-106631543D01*
X138787326Y-106584148D01*
X138741353Y-106549732D01*
X138737648Y-106546729D01*
X138640492Y-106461526D01*
X138637549Y-106458769D01*
X138541228Y-106362448D01*
X138538469Y-106359502D01*
X138514540Y-106332216D01*
X138453265Y-106262345D01*
X138450271Y-106258652D01*
X138368454Y-106149358D01*
X138366537Y-106146649D01*
X138295036Y-106039641D01*
X138292170Y-106034906D01*
X138225578Y-105912952D01*
X138168643Y-105797499D01*
X138166157Y-105791741D01*
X138153076Y-105756671D01*
X138116805Y-105659425D01*
X138076395Y-105540383D01*
X138074531Y-105533666D01*
X138043153Y-105389420D01*
X138038641Y-105366738D01*
X138020015Y-105273100D01*
X138018985Y-105265459D01*
X138005986Y-105083708D01*
X138001539Y-105015848D01*
X138000633Y-105002019D01*
X138000500Y-104997964D01*
X138000500Y-102100000D01*
X138394540Y-102100000D01*
X138414326Y-102288256D01*
X138414327Y-102288259D01*
X138472818Y-102468277D01*
X138472821Y-102468284D01*
X138567467Y-102632216D01*
X138694129Y-102772887D01*
X138694129Y-102772888D01*
X138847265Y-102884148D01*
X138847270Y-102884151D01*
X139020192Y-102961142D01*
X139020197Y-102961144D01*
X139205354Y-103000500D01*
X139205355Y-103000500D01*
X139394644Y-103000500D01*
X139394646Y-103000500D01*
X139396998Y-103000000D01*
X143494540Y-103000000D01*
X143514326Y-103188256D01*
X143514327Y-103188259D01*
X143572818Y-103368277D01*
X143572821Y-103368284D01*
X143667467Y-103532216D01*
X143784545Y-103662244D01*
X143794129Y-103672888D01*
X143947265Y-103784148D01*
X143947270Y-103784151D01*
X144120192Y-103861142D01*
X144120197Y-103861144D01*
X144305354Y-103900500D01*
X144305355Y-103900500D01*
X144494644Y-103900500D01*
X144494646Y-103900500D01*
X144679803Y-103861144D01*
X144852730Y-103784151D01*
X144877114Y-103766434D01*
X144942919Y-103742954D01*
X145010973Y-103758778D01*
X145022879Y-103766429D01*
X145047266Y-103784148D01*
X145047269Y-103784150D01*
X145047270Y-103784151D01*
X145220192Y-103861142D01*
X145220197Y-103861144D01*
X145405354Y-103900500D01*
X145405355Y-103900500D01*
X145594644Y-103900500D01*
X145594646Y-103900500D01*
X145779803Y-103861144D01*
X145952730Y-103784151D01*
X145977114Y-103766434D01*
X146042919Y-103742954D01*
X146110973Y-103758778D01*
X146122879Y-103766429D01*
X146147266Y-103784148D01*
X146147269Y-103784150D01*
X146147270Y-103784151D01*
X146320192Y-103861142D01*
X146320197Y-103861144D01*
X146505354Y-103900500D01*
X146505355Y-103900500D01*
X146694644Y-103900500D01*
X146694646Y-103900500D01*
X146879803Y-103861144D01*
X147052730Y-103784151D01*
X147205871Y-103672888D01*
X147332533Y-103532216D01*
X147427179Y-103368284D01*
X147485674Y-103188256D01*
X147505460Y-103000000D01*
X147994540Y-103000000D01*
X148014326Y-103188256D01*
X148014327Y-103188259D01*
X148072818Y-103368277D01*
X148072821Y-103368284D01*
X148167467Y-103532216D01*
X148284545Y-103662244D01*
X148294129Y-103672888D01*
X148447265Y-103784148D01*
X148447270Y-103784151D01*
X148620192Y-103861142D01*
X148620197Y-103861144D01*
X148805354Y-103900500D01*
X148805355Y-103900500D01*
X148994644Y-103900500D01*
X148994646Y-103900500D01*
X149179803Y-103861144D01*
X149325623Y-103796219D01*
X149394871Y-103786935D01*
X149458148Y-103816562D01*
X149495362Y-103875697D01*
X149499378Y-103896531D01*
X149514326Y-104038756D01*
X149514327Y-104038759D01*
X149572818Y-104218777D01*
X149572821Y-104218784D01*
X149667467Y-104382716D01*
X149794129Y-104523388D01*
X149947265Y-104634648D01*
X149947270Y-104634651D01*
X150120192Y-104711642D01*
X150120197Y-104711644D01*
X150305354Y-104751000D01*
X150305355Y-104751000D01*
X150494644Y-104751000D01*
X150494646Y-104751000D01*
X150679803Y-104711644D01*
X150852730Y-104634651D01*
X151005871Y-104523388D01*
X151132533Y-104382716D01*
X151227179Y-104218784D01*
X151285674Y-104038756D01*
X151305460Y-103850500D01*
X151285674Y-103662244D01*
X151227179Y-103482216D01*
X151132533Y-103318284D01*
X151005871Y-103177612D01*
X151005870Y-103177611D01*
X150852734Y-103066351D01*
X150852729Y-103066348D01*
X150679807Y-102989357D01*
X150679802Y-102989355D01*
X150513281Y-102953961D01*
X150494646Y-102950000D01*
X150305354Y-102950000D01*
X150286719Y-102953961D01*
X150120199Y-102989355D01*
X149974377Y-103054280D01*
X149905127Y-103063564D01*
X149841850Y-103033936D01*
X149804637Y-102974801D01*
X149800622Y-102953975D01*
X149785674Y-102811744D01*
X149731112Y-102643823D01*
X149727181Y-102631722D01*
X149727180Y-102631721D01*
X149727179Y-102631716D01*
X149632533Y-102467784D01*
X149505871Y-102327112D01*
X149505870Y-102327111D01*
X149398438Y-102249057D01*
X153462466Y-102249057D01*
X153482252Y-102437313D01*
X153482253Y-102437316D01*
X153540744Y-102617334D01*
X153540747Y-102617341D01*
X153635393Y-102781273D01*
X153728025Y-102884151D01*
X153762055Y-102921945D01*
X153915191Y-103033205D01*
X153915196Y-103033208D01*
X154088118Y-103110199D01*
X154088123Y-103110201D01*
X154273280Y-103149557D01*
X154273281Y-103149557D01*
X154462570Y-103149557D01*
X154462572Y-103149557D01*
X154647729Y-103110201D01*
X154820656Y-103033208D01*
X154973797Y-102921945D01*
X155100459Y-102781273D01*
X155195105Y-102617341D01*
X155253600Y-102437313D01*
X155273386Y-102249057D01*
X155253600Y-102060801D01*
X155195105Y-101880773D01*
X155109051Y-101731722D01*
X155100459Y-101716840D01*
X155099570Y-101715617D01*
X155099274Y-101714788D01*
X155097210Y-101711213D01*
X155097863Y-101710835D01*
X155076087Y-101649812D01*
X155091910Y-101581757D01*
X155107733Y-101559758D01*
X155132533Y-101532216D01*
X155227179Y-101368284D01*
X155285674Y-101188256D01*
X155305460Y-101000000D01*
X155285674Y-100811744D01*
X155227179Y-100631716D01*
X155132533Y-100467784D01*
X155005871Y-100327112D01*
X155005870Y-100327111D01*
X154852734Y-100215851D01*
X154852729Y-100215848D01*
X154679807Y-100138857D01*
X154679802Y-100138855D01*
X154534000Y-100107865D01*
X154494646Y-100099500D01*
X154305354Y-100099500D01*
X154272897Y-100106398D01*
X154120197Y-100138855D01*
X154120192Y-100138857D01*
X153947270Y-100215848D01*
X153947265Y-100215851D01*
X153794129Y-100327111D01*
X153667466Y-100467785D01*
X153572821Y-100631715D01*
X153572818Y-100631722D01*
X153514327Y-100811740D01*
X153514326Y-100811744D01*
X153494540Y-101000000D01*
X153514326Y-101188256D01*
X153514327Y-101188259D01*
X153572818Y-101368277D01*
X153572821Y-101368284D01*
X153667468Y-101532219D01*
X153668357Y-101533442D01*
X153668652Y-101534269D01*
X153670716Y-101537844D01*
X153670062Y-101538221D01*
X153691838Y-101599248D01*
X153676013Y-101667302D01*
X153660191Y-101689299D01*
X153635394Y-101716839D01*
X153635390Y-101716844D01*
X153540747Y-101880772D01*
X153540744Y-101880779D01*
X153505823Y-101988256D01*
X153482252Y-102060801D01*
X153462466Y-102249057D01*
X149398438Y-102249057D01*
X149352734Y-102215851D01*
X149352729Y-102215848D01*
X149179807Y-102138857D01*
X149179802Y-102138855D01*
X149034001Y-102107865D01*
X148994646Y-102099500D01*
X148805354Y-102099500D01*
X148772897Y-102106398D01*
X148620197Y-102138855D01*
X148620192Y-102138857D01*
X148447270Y-102215848D01*
X148447265Y-102215851D01*
X148294129Y-102327111D01*
X148167466Y-102467785D01*
X148072821Y-102631715D01*
X148072818Y-102631722D01*
X148014327Y-102811740D01*
X148014326Y-102811744D01*
X147994540Y-103000000D01*
X147505460Y-103000000D01*
X147485674Y-102811744D01*
X147431112Y-102643823D01*
X147427181Y-102631722D01*
X147427180Y-102631721D01*
X147427179Y-102631716D01*
X147332533Y-102467784D01*
X147205871Y-102327112D01*
X147205870Y-102327111D01*
X147052734Y-102215851D01*
X147052729Y-102215848D01*
X146879807Y-102138857D01*
X146879802Y-102138855D01*
X146734000Y-102107865D01*
X146694646Y-102099500D01*
X146505354Y-102099500D01*
X146472897Y-102106398D01*
X146320197Y-102138855D01*
X146320192Y-102138857D01*
X146147270Y-102215848D01*
X146147265Y-102215851D01*
X146122885Y-102233565D01*
X146057079Y-102257045D01*
X145989025Y-102241219D01*
X145977115Y-102233565D01*
X145952734Y-102215851D01*
X145952729Y-102215848D01*
X145779807Y-102138857D01*
X145779802Y-102138855D01*
X145634000Y-102107865D01*
X145594646Y-102099500D01*
X145405354Y-102099500D01*
X145372897Y-102106398D01*
X145220197Y-102138855D01*
X145220192Y-102138857D01*
X145047270Y-102215848D01*
X145047265Y-102215851D01*
X145022885Y-102233565D01*
X144957079Y-102257045D01*
X144889025Y-102241219D01*
X144877115Y-102233565D01*
X144852734Y-102215851D01*
X144852729Y-102215848D01*
X144679807Y-102138857D01*
X144679802Y-102138855D01*
X144534000Y-102107865D01*
X144494646Y-102099500D01*
X144305354Y-102099500D01*
X144272897Y-102106398D01*
X144120197Y-102138855D01*
X144120192Y-102138857D01*
X143947270Y-102215848D01*
X143947265Y-102215851D01*
X143794129Y-102327111D01*
X143667466Y-102467785D01*
X143572821Y-102631715D01*
X143572818Y-102631722D01*
X143514327Y-102811740D01*
X143514326Y-102811744D01*
X143494540Y-103000000D01*
X139396998Y-103000000D01*
X139579803Y-102961144D01*
X139752730Y-102884151D01*
X139905871Y-102772888D01*
X140032533Y-102632216D01*
X140127179Y-102468284D01*
X140185674Y-102288256D01*
X140185674Y-102288248D01*
X140187024Y-102281903D01*
X140189267Y-102282379D01*
X140211833Y-102227489D01*
X140269118Y-102187488D01*
X140338936Y-102184807D01*
X140399121Y-102220299D01*
X140415979Y-102243037D01*
X140467466Y-102332214D01*
X140467465Y-102332214D01*
X140594129Y-102472888D01*
X140747265Y-102584148D01*
X140747270Y-102584151D01*
X140920192Y-102661142D01*
X140920197Y-102661144D01*
X141105354Y-102700500D01*
X141105355Y-102700500D01*
X141294644Y-102700500D01*
X141294646Y-102700500D01*
X141479803Y-102661144D01*
X141652730Y-102584151D01*
X141805871Y-102472888D01*
X141932533Y-102332216D01*
X142027179Y-102168284D01*
X142085674Y-101988256D01*
X142105460Y-101800000D01*
X142085674Y-101611744D01*
X142027179Y-101431716D01*
X141932533Y-101267784D01*
X141805871Y-101127112D01*
X141805870Y-101127111D01*
X141652734Y-101015851D01*
X141652729Y-101015848D01*
X141479807Y-100938857D01*
X141479802Y-100938855D01*
X141334001Y-100907865D01*
X141294646Y-100899500D01*
X141105354Y-100899500D01*
X141072897Y-100906398D01*
X140920197Y-100938855D01*
X140920192Y-100938857D01*
X140747270Y-101015848D01*
X140747265Y-101015851D01*
X140594129Y-101127111D01*
X140467466Y-101267785D01*
X140372821Y-101431715D01*
X140372818Y-101431722D01*
X140314326Y-101611742D01*
X140312976Y-101618097D01*
X140310740Y-101617621D01*
X140288134Y-101672550D01*
X140230832Y-101712528D01*
X140161013Y-101715179D01*
X140100843Y-101679663D01*
X140084020Y-101656962D01*
X140055011Y-101606717D01*
X140032533Y-101567784D01*
X139905871Y-101427112D01*
X139905870Y-101427111D01*
X139752734Y-101315851D01*
X139752729Y-101315848D01*
X139579807Y-101238857D01*
X139579802Y-101238855D01*
X139434001Y-101207865D01*
X139394646Y-101199500D01*
X139205354Y-101199500D01*
X139172897Y-101206398D01*
X139020197Y-101238855D01*
X139020192Y-101238857D01*
X138847270Y-101315848D01*
X138847265Y-101315851D01*
X138694129Y-101427111D01*
X138567466Y-101567785D01*
X138472821Y-101731715D01*
X138472818Y-101731722D01*
X138424389Y-101880772D01*
X138414326Y-101911744D01*
X138394540Y-102100000D01*
X138000500Y-102100000D01*
X138000500Y-97722870D01*
X146824500Y-97722870D01*
X146824501Y-97722876D01*
X146830908Y-97782483D01*
X146881202Y-97917328D01*
X146881206Y-97917335D01*
X146967452Y-98032544D01*
X146967455Y-98032547D01*
X147082664Y-98118793D01*
X147082671Y-98118797D01*
X147217517Y-98169091D01*
X147217516Y-98169091D01*
X147224444Y-98169835D01*
X147277127Y-98175500D01*
X148152134Y-98175499D01*
X148219172Y-98195183D01*
X148264927Y-98247987D01*
X148274871Y-98317146D01*
X148245846Y-98380702D01*
X148244283Y-98382471D01*
X148167466Y-98467785D01*
X148072821Y-98631715D01*
X148072818Y-98631722D01*
X148014327Y-98811740D01*
X148014326Y-98811744D01*
X147994540Y-99000000D01*
X148014326Y-99188256D01*
X148014327Y-99188259D01*
X148072818Y-99368277D01*
X148072821Y-99368284D01*
X148167467Y-99532216D01*
X148294128Y-99672888D01*
X148294129Y-99672888D01*
X148447265Y-99784148D01*
X148447270Y-99784151D01*
X148620192Y-99861142D01*
X148620197Y-99861144D01*
X148805354Y-99900500D01*
X148805355Y-99900500D01*
X148994644Y-99900500D01*
X148994646Y-99900500D01*
X149179803Y-99861144D01*
X149299564Y-99807821D01*
X149368813Y-99798536D01*
X149400434Y-99807821D01*
X149520197Y-99861144D01*
X149705354Y-99900500D01*
X149705355Y-99900500D01*
X149894644Y-99900500D01*
X149894646Y-99900500D01*
X150079803Y-99861144D01*
X150199564Y-99807821D01*
X150268813Y-99798536D01*
X150300434Y-99807821D01*
X150420197Y-99861144D01*
X150605354Y-99900500D01*
X150605355Y-99900500D01*
X150794644Y-99900500D01*
X150794646Y-99900500D01*
X150979803Y-99861144D01*
X151152730Y-99784151D01*
X151305871Y-99672888D01*
X151432533Y-99532216D01*
X151527179Y-99368284D01*
X151585674Y-99188256D01*
X151605460Y-99000000D01*
X151585674Y-98811744D01*
X151527179Y-98631716D01*
X151432533Y-98467784D01*
X151305871Y-98327112D01*
X151292154Y-98317146D01*
X151152734Y-98215851D01*
X151152729Y-98215848D01*
X150979807Y-98138857D01*
X150979802Y-98138855D01*
X150834000Y-98107865D01*
X150794646Y-98099500D01*
X150605354Y-98099500D01*
X150582348Y-98104390D01*
X150420197Y-98138855D01*
X150420191Y-98138857D01*
X150300432Y-98192177D01*
X150231182Y-98201461D01*
X150199562Y-98192176D01*
X150079807Y-98138857D01*
X150079802Y-98138855D01*
X149934001Y-98107865D01*
X149894646Y-98099500D01*
X149705354Y-98099500D01*
X149682348Y-98104390D01*
X149520197Y-98138855D01*
X149520196Y-98138855D01*
X149400435Y-98192177D01*
X149331185Y-98201461D01*
X149299565Y-98192177D01*
X149179804Y-98138856D01*
X149173823Y-98137585D01*
X149112342Y-98104390D01*
X149078567Y-98043226D01*
X149083221Y-97973512D01*
X149100339Y-97941985D01*
X149118796Y-97917331D01*
X149169091Y-97782483D01*
X149175500Y-97722873D01*
X149175499Y-96277128D01*
X149169091Y-96217517D01*
X149158178Y-96188259D01*
X149118797Y-96082671D01*
X149118793Y-96082664D01*
X149056910Y-96000000D01*
X151994540Y-96000000D01*
X152014326Y-96188256D01*
X152014327Y-96188259D01*
X152072818Y-96368277D01*
X152072821Y-96368284D01*
X152167467Y-96532216D01*
X152276155Y-96652926D01*
X152294129Y-96672888D01*
X152447265Y-96784148D01*
X152447270Y-96784151D01*
X152620192Y-96861142D01*
X152620197Y-96861144D01*
X152805354Y-96900500D01*
X152805355Y-96900500D01*
X152994644Y-96900500D01*
X152994646Y-96900500D01*
X153179803Y-96861144D01*
X153352730Y-96784151D01*
X153505871Y-96672888D01*
X153632533Y-96532216D01*
X153692613Y-96428153D01*
X153743179Y-96379939D01*
X153811786Y-96366715D01*
X153876651Y-96392683D01*
X153907386Y-96428153D01*
X153967467Y-96532216D01*
X154076155Y-96652926D01*
X154094129Y-96672888D01*
X154247265Y-96784148D01*
X154247270Y-96784151D01*
X154420192Y-96861142D01*
X154420197Y-96861144D01*
X154605354Y-96900500D01*
X154605355Y-96900500D01*
X154794644Y-96900500D01*
X154794646Y-96900500D01*
X154979803Y-96861144D01*
X155152730Y-96784151D01*
X155305871Y-96672888D01*
X155432533Y-96532216D01*
X155527179Y-96368284D01*
X155585674Y-96188256D01*
X155605460Y-96000000D01*
X155585674Y-95811744D01*
X155531112Y-95643823D01*
X155527181Y-95631722D01*
X155527180Y-95631721D01*
X155527179Y-95631716D01*
X155432533Y-95467784D01*
X155305871Y-95327112D01*
X155305870Y-95327111D01*
X155152734Y-95215851D01*
X155152729Y-95215848D01*
X154979807Y-95138857D01*
X154979802Y-95138855D01*
X154834001Y-95107865D01*
X154794646Y-95099500D01*
X154605354Y-95099500D01*
X154572897Y-95106398D01*
X154420197Y-95138855D01*
X154420192Y-95138857D01*
X154247270Y-95215848D01*
X154247265Y-95215851D01*
X154094129Y-95327111D01*
X153967465Y-95467785D01*
X153907387Y-95571845D01*
X153856820Y-95620061D01*
X153788213Y-95633284D01*
X153723348Y-95607316D01*
X153692613Y-95571845D01*
X153632534Y-95467785D01*
X153510016Y-95331716D01*
X153505871Y-95327112D01*
X153505870Y-95327111D01*
X153352734Y-95215851D01*
X153352729Y-95215848D01*
X153179807Y-95138857D01*
X153179802Y-95138855D01*
X153034000Y-95107865D01*
X152994646Y-95099500D01*
X152805354Y-95099500D01*
X152772897Y-95106398D01*
X152620197Y-95138855D01*
X152620192Y-95138857D01*
X152447270Y-95215848D01*
X152447265Y-95215851D01*
X152294129Y-95327111D01*
X152167466Y-95467785D01*
X152072821Y-95631715D01*
X152072818Y-95631722D01*
X152014327Y-95811740D01*
X152014326Y-95811744D01*
X151994540Y-96000000D01*
X149056910Y-96000000D01*
X149032547Y-95967455D01*
X149032544Y-95967452D01*
X148917335Y-95881206D01*
X148917328Y-95881202D01*
X148782482Y-95830908D01*
X148782483Y-95830908D01*
X148722883Y-95824501D01*
X148722881Y-95824500D01*
X148722873Y-95824500D01*
X148722864Y-95824500D01*
X147277129Y-95824500D01*
X147277123Y-95824501D01*
X147217516Y-95830908D01*
X147082671Y-95881202D01*
X147082664Y-95881206D01*
X146967455Y-95967452D01*
X146967452Y-95967455D01*
X146881206Y-96082664D01*
X146881202Y-96082671D01*
X146830908Y-96217517D01*
X146824501Y-96277116D01*
X146824501Y-96277123D01*
X146824500Y-96277135D01*
X146824500Y-97722870D01*
X138000500Y-97722870D01*
X138000500Y-95700000D01*
X140694540Y-95700000D01*
X140714326Y-95888256D01*
X140714327Y-95888259D01*
X140772818Y-96068277D01*
X140772821Y-96068284D01*
X140867467Y-96232216D01*
X140963487Y-96338857D01*
X140994129Y-96372888D01*
X141147265Y-96484148D01*
X141147270Y-96484151D01*
X141320192Y-96561142D01*
X141320197Y-96561144D01*
X141505354Y-96600500D01*
X141505355Y-96600500D01*
X141694644Y-96600500D01*
X141694646Y-96600500D01*
X141879803Y-96561144D01*
X142052730Y-96484151D01*
X142205871Y-96372888D01*
X142332533Y-96232216D01*
X142427179Y-96068284D01*
X142485674Y-95888256D01*
X142505460Y-95700000D01*
X142485674Y-95511744D01*
X142427179Y-95331716D01*
X142332533Y-95167784D01*
X142205871Y-95027112D01*
X142169243Y-95000500D01*
X142052734Y-94915851D01*
X142052729Y-94915848D01*
X141879807Y-94838857D01*
X141879802Y-94838855D01*
X141734001Y-94807865D01*
X141694646Y-94799500D01*
X141505354Y-94799500D01*
X141472897Y-94806398D01*
X141320197Y-94838855D01*
X141320192Y-94838857D01*
X141147270Y-94915848D01*
X141147265Y-94915851D01*
X140994129Y-95027111D01*
X140867466Y-95167785D01*
X140772821Y-95331715D01*
X140772818Y-95331722D01*
X140728609Y-95467785D01*
X140714326Y-95511744D01*
X140694540Y-95700000D01*
X138000500Y-95700000D01*
X138000500Y-93500000D01*
X143194540Y-93500000D01*
X143214326Y-93688256D01*
X143214327Y-93688259D01*
X143272818Y-93868277D01*
X143272821Y-93868284D01*
X143367467Y-94032216D01*
X143439071Y-94111740D01*
X143494129Y-94172888D01*
X143647265Y-94284148D01*
X143647270Y-94284151D01*
X143820192Y-94361142D01*
X143820197Y-94361144D01*
X144005354Y-94400500D01*
X144062115Y-94400500D01*
X144129154Y-94420185D01*
X144167161Y-94464047D01*
X144169571Y-94462656D01*
X144267465Y-94632214D01*
X144394129Y-94772888D01*
X144547265Y-94884148D01*
X144547270Y-94884151D01*
X144720192Y-94961142D01*
X144720197Y-94961144D01*
X144905354Y-95000500D01*
X144905355Y-95000500D01*
X145094644Y-95000500D01*
X145094646Y-95000500D01*
X145279803Y-94961144D01*
X145452730Y-94884151D01*
X145605871Y-94772888D01*
X145630191Y-94745877D01*
X145689675Y-94709230D01*
X145759532Y-94710559D01*
X145817581Y-94749445D01*
X145829727Y-94766849D01*
X145867467Y-94832216D01*
X145994129Y-94972888D01*
X146147265Y-95084148D01*
X146147270Y-95084151D01*
X146320192Y-95161142D01*
X146320197Y-95161144D01*
X146505354Y-95200500D01*
X146505355Y-95200500D01*
X146694644Y-95200500D01*
X146694646Y-95200500D01*
X146879803Y-95161144D01*
X147052730Y-95084151D01*
X147205871Y-94972888D01*
X147332533Y-94832216D01*
X147427179Y-94668284D01*
X147485674Y-94488256D01*
X147505460Y-94300000D01*
X147485674Y-94111744D01*
X147427179Y-93931716D01*
X147332533Y-93767784D01*
X147205871Y-93627112D01*
X147205870Y-93627111D01*
X147052734Y-93515851D01*
X147052729Y-93515848D01*
X146879807Y-93438857D01*
X146879802Y-93438855D01*
X146734000Y-93407865D01*
X146694646Y-93399500D01*
X146505354Y-93399500D01*
X146472897Y-93406398D01*
X146320197Y-93438855D01*
X146320192Y-93438857D01*
X146147270Y-93515848D01*
X146147265Y-93515851D01*
X145994129Y-93627111D01*
X145994127Y-93627113D01*
X145969807Y-93654123D01*
X145910320Y-93690770D01*
X145840463Y-93689439D01*
X145782416Y-93650551D01*
X145770272Y-93633149D01*
X145751471Y-93600586D01*
X145732533Y-93567784D01*
X145685769Y-93515848D01*
X145605870Y-93427111D01*
X145452734Y-93315851D01*
X145452729Y-93315848D01*
X145279807Y-93238857D01*
X145279802Y-93238855D01*
X145134001Y-93207865D01*
X145094646Y-93199500D01*
X145094645Y-93199500D01*
X145037885Y-93199500D01*
X144970846Y-93179815D01*
X144932838Y-93135952D01*
X144930429Y-93137344D01*
X144832534Y-92967785D01*
X144705870Y-92827111D01*
X144552734Y-92715851D01*
X144552729Y-92715848D01*
X144379807Y-92638857D01*
X144379802Y-92638855D01*
X144234001Y-92607865D01*
X144194646Y-92599500D01*
X144005354Y-92599500D01*
X143972897Y-92606398D01*
X143820197Y-92638855D01*
X143820192Y-92638857D01*
X143647270Y-92715848D01*
X143647265Y-92715851D01*
X143494129Y-92827111D01*
X143367466Y-92967785D01*
X143272821Y-93131715D01*
X143272818Y-93131722D01*
X143214327Y-93311740D01*
X143214326Y-93311744D01*
X143194540Y-93500000D01*
X138000500Y-93500000D01*
X138000500Y-91200000D01*
X142494540Y-91200000D01*
X142514326Y-91388256D01*
X142514327Y-91388259D01*
X142572818Y-91568277D01*
X142572821Y-91568284D01*
X142667467Y-91732216D01*
X142794128Y-91872888D01*
X142794129Y-91872888D01*
X142947265Y-91984148D01*
X142947270Y-91984151D01*
X143120192Y-92061142D01*
X143120197Y-92061144D01*
X143305354Y-92100500D01*
X143305355Y-92100500D01*
X143494644Y-92100500D01*
X143494646Y-92100500D01*
X143679803Y-92061144D01*
X143852730Y-91984151D01*
X144005871Y-91872888D01*
X144132533Y-91732216D01*
X144227179Y-91568284D01*
X144285674Y-91388256D01*
X144305460Y-91200000D01*
X144285674Y-91011744D01*
X144227179Y-90831716D01*
X144132533Y-90667784D01*
X144005871Y-90527112D01*
X144005870Y-90527111D01*
X143852734Y-90415851D01*
X143852729Y-90415848D01*
X143679807Y-90338857D01*
X143679802Y-90338855D01*
X143534001Y-90307865D01*
X143494646Y-90299500D01*
X143305354Y-90299500D01*
X143272897Y-90306398D01*
X143120197Y-90338855D01*
X143120192Y-90338857D01*
X142947270Y-90415848D01*
X142947265Y-90415851D01*
X142794129Y-90527111D01*
X142667466Y-90667785D01*
X142572821Y-90831715D01*
X142572818Y-90831722D01*
X142514327Y-91011740D01*
X142514326Y-91011744D01*
X142494540Y-91200000D01*
X138000500Y-91200000D01*
X138000500Y-89002035D01*
X138000633Y-88997980D01*
X138002393Y-88971103D01*
X138005989Y-88916244D01*
X138018986Y-88734536D01*
X138020014Y-88726903D01*
X138043153Y-88610579D01*
X138044118Y-88606141D01*
X138074533Y-88466323D01*
X138076392Y-88459625D01*
X138116815Y-88340543D01*
X138166159Y-88208251D01*
X138168633Y-88202520D01*
X138225583Y-88087036D01*
X138292179Y-87965076D01*
X138295019Y-87960384D01*
X138366563Y-87853311D01*
X138368428Y-87850676D01*
X138450291Y-87741321D01*
X138453244Y-87737678D01*
X138538503Y-87640459D01*
X138541198Y-87637581D01*
X138637581Y-87541198D01*
X138640459Y-87538503D01*
X138737678Y-87453244D01*
X138741321Y-87450291D01*
X138850676Y-87368428D01*
X138853311Y-87366563D01*
X138960384Y-87295019D01*
X138965076Y-87292179D01*
X139087036Y-87225583D01*
X139202520Y-87168633D01*
X139208251Y-87166159D01*
X139340543Y-87116815D01*
X139459625Y-87076392D01*
X139466323Y-87074533D01*
X139610548Y-87043158D01*
X139726903Y-87020014D01*
X139734536Y-87018986D01*
X139916244Y-87005989D01*
X139969211Y-87002517D01*
X139997981Y-87000633D01*
X140002036Y-87000500D01*
X142444784Y-87000500D01*
X142511823Y-87020185D01*
G37*
%TD.AperFunction*%
%TD*%
M02*
