%TF.GenerationSoftware,KiCad,Pcbnew,7.0.6*%
%TF.CreationDate,2023-08-27T19:49:05-04:00*%
%TF.ProjectId,miniclick,6d696e69-636c-4696-936b-2e6b69636164,rev?*%
%TF.SameCoordinates,Original*%
%TF.FileFunction,Legend,Bot*%
%TF.FilePolarity,Positive*%
%FSLAX46Y46*%
G04 Gerber Fmt 4.6, Leading zero omitted, Abs format (unit mm)*
G04 Created by KiCad (PCBNEW 7.0.6) date 2023-08-27 19:49:05*
%MOMM*%
%LPD*%
G01*
G04 APERTURE LIST*
%ADD10C,0.150000*%
%ADD11C,0.300000*%
%ADD12C,0.120000*%
G04 APERTURE END LIST*
D10*
X146200000Y-96500000D02*
X142400000Y-96500000D01*
X142400001Y-96500000D02*
G75*
G03*
X143092199Y-94897961I2199999J0D01*
G01*
X145599999Y-97799999D02*
G75*
G03*
X143600000Y-97799999I-999999J1299999D01*
G01*
D11*
X157600828Y-88954510D02*
X156600828Y-88954510D01*
X156886542Y-88954510D02*
X156743685Y-89025939D01*
X156743685Y-89025939D02*
X156672257Y-89097368D01*
X156672257Y-89097368D02*
X156600828Y-89240225D01*
X156600828Y-89240225D02*
X156600828Y-89383082D01*
X157600828Y-95054510D02*
X156600828Y-95054510D01*
X156100828Y-95054510D02*
X156172257Y-94983082D01*
X156172257Y-94983082D02*
X156243685Y-95054510D01*
X156243685Y-95054510D02*
X156172257Y-95125939D01*
X156172257Y-95125939D02*
X156100828Y-95054510D01*
X156100828Y-95054510D02*
X156243685Y-95054510D01*
X157600828Y-95983082D02*
X157529400Y-95840225D01*
X157529400Y-95840225D02*
X157457971Y-95768796D01*
X157457971Y-95768796D02*
X157315114Y-95697368D01*
X157315114Y-95697368D02*
X156886542Y-95697368D01*
X156886542Y-95697368D02*
X156743685Y-95768796D01*
X156743685Y-95768796D02*
X156672257Y-95840225D01*
X156672257Y-95840225D02*
X156600828Y-95983082D01*
X156600828Y-95983082D02*
X156600828Y-96197368D01*
X156600828Y-96197368D02*
X156672257Y-96340225D01*
X156672257Y-96340225D02*
X156743685Y-96411654D01*
X156743685Y-96411654D02*
X156886542Y-96483082D01*
X156886542Y-96483082D02*
X157315114Y-96483082D01*
X157315114Y-96483082D02*
X157457971Y-96411654D01*
X157457971Y-96411654D02*
X157529400Y-96340225D01*
X157529400Y-96340225D02*
X157600828Y-96197368D01*
X157600828Y-96197368D02*
X157600828Y-95983082D01*
X157629400Y-91497368D02*
X157700828Y-91354510D01*
X157700828Y-91354510D02*
X157700828Y-91068796D01*
X157700828Y-91068796D02*
X157629400Y-90925939D01*
X157629400Y-90925939D02*
X157557971Y-90854510D01*
X157557971Y-90854510D02*
X157415114Y-90783082D01*
X157415114Y-90783082D02*
X156986542Y-90783082D01*
X156986542Y-90783082D02*
X156843685Y-90854510D01*
X156843685Y-90854510D02*
X156772257Y-90925939D01*
X156772257Y-90925939D02*
X156700828Y-91068796D01*
X156700828Y-91068796D02*
X156700828Y-91354510D01*
X156700828Y-91354510D02*
X156772257Y-91497368D01*
X157700828Y-92140224D02*
X156200828Y-92140224D01*
X157129400Y-92283082D02*
X157700828Y-92711653D01*
X156700828Y-92711653D02*
X157272257Y-92140224D01*
G36*
X150821314Y-103009775D02*
G01*
X148949885Y-103009775D01*
X148949885Y-102074060D01*
X149164171Y-102074060D01*
X149184267Y-102149060D01*
X149239171Y-102203964D01*
X149314171Y-102224060D01*
X149735600Y-102224060D01*
X149735600Y-102645489D01*
X149755696Y-102720489D01*
X149810600Y-102775393D01*
X149885600Y-102795489D01*
X149960600Y-102775393D01*
X150015504Y-102720489D01*
X150035600Y-102645489D01*
X150035600Y-102224060D01*
X150457028Y-102224060D01*
X150532028Y-102203964D01*
X150586932Y-102149060D01*
X150607028Y-102074060D01*
X150586932Y-101999060D01*
X150532028Y-101944156D01*
X150457028Y-101924060D01*
X150035600Y-101924060D01*
X150035600Y-101502632D01*
X150015504Y-101427632D01*
X149960600Y-101372728D01*
X149885600Y-101352632D01*
X149810600Y-101372728D01*
X149755696Y-101427632D01*
X149735600Y-101502632D01*
X149735600Y-101924060D01*
X149314171Y-101924060D01*
X149239171Y-101944156D01*
X149184267Y-101999060D01*
X149164171Y-102074060D01*
X148949885Y-102074060D01*
X148949885Y-99645489D01*
X149735600Y-99645489D01*
X149755696Y-99720489D01*
X149810600Y-99775393D01*
X149885600Y-99795489D01*
X149960600Y-99775393D01*
X150015504Y-99720489D01*
X150035600Y-99645489D01*
X150035600Y-98502632D01*
X150015504Y-98427632D01*
X149960600Y-98372728D01*
X149885600Y-98352632D01*
X149810600Y-98372728D01*
X149755696Y-98427632D01*
X149735600Y-98502632D01*
X149735600Y-99645489D01*
X148949885Y-99645489D01*
X148949885Y-98138346D01*
X150821314Y-98138346D01*
X150821314Y-103009775D01*
G37*
D12*
%TO.C,R3*%
X141753641Y-90580000D02*
X141446359Y-90580000D01*
X141753641Y-89820000D02*
X141446359Y-89820000D01*
%TO.C,D6*%
X142560000Y-92100000D02*
X142560000Y-94785000D01*
X142560000Y-94785000D02*
X140640000Y-94785000D01*
X140640000Y-94785000D02*
X140640000Y-92100000D01*
%TO.C,J1*%
X155715000Y-98390000D02*
X153215000Y-98390000D01*
X153215000Y-98390000D02*
X153215000Y-99440000D01*
X153215000Y-99440000D02*
X152225000Y-99440000D01*
X157685000Y-99560000D02*
X157685000Y-103440000D01*
X155715000Y-104610000D02*
X153215000Y-104610000D01*
X153215000Y-104610000D02*
X153215000Y-103560000D01*
%TO.C,TP1*%
X155890000Y-88900000D02*
G75*
G03*
X155890000Y-88900000I-950000J0D01*
G01*
%TO.C,R2*%
X152620000Y-92053641D02*
X152620000Y-91746359D01*
X153380000Y-92053641D02*
X153380000Y-91746359D01*
%TO.C,C3*%
X149469190Y-94121693D02*
X149621693Y-93969190D01*
X149978307Y-94630810D02*
X150130810Y-94478307D01*
%TO.C,TP2*%
X148270000Y-101600000D02*
G75*
G03*
X148270000Y-101600000I-950000J0D01*
G01*
%TO.C,TP5*%
X155890000Y-91440000D02*
G75*
G03*
X155890000Y-91440000I-950000J0D01*
G01*
%TO.C,R1*%
X139563641Y-90580000D02*
X139256359Y-90580000D01*
X139563641Y-89820000D02*
X139256359Y-89820000D01*
%TO.C,J2*%
X140285000Y-104610000D02*
X142785000Y-104610000D01*
X142785000Y-104610000D02*
X142785000Y-103560000D01*
X142785000Y-103560000D02*
X143775000Y-103560000D01*
X138315000Y-103440000D02*
X138315000Y-99560000D01*
X140285000Y-98390000D02*
X142785000Y-98390000D01*
X142785000Y-98390000D02*
X142785000Y-99440000D01*
%TO.C,C2*%
X150469190Y-95121693D02*
X150621693Y-94969190D01*
X150978307Y-95630810D02*
X151130810Y-95478307D01*
%TO.C,TP4*%
X155890000Y-93980000D02*
G75*
G03*
X155890000Y-93980000I-950000J0D01*
G01*
%TO.C,U1*%
X145016009Y-91000000D02*
X145351885Y-91335876D01*
X145351885Y-90664124D02*
X145016009Y-91000000D01*
X148335876Y-93648115D02*
X148000000Y-93983991D01*
X147664124Y-88351885D02*
X148000000Y-88016009D01*
X150648115Y-91335876D02*
X150983991Y-91000000D01*
X148000000Y-88016009D02*
X148335876Y-88351885D01*
X150983991Y-91000000D02*
X150648115Y-90664124D01*
%TO.C,D1*%
X138540000Y-94785000D02*
X138540000Y-92100000D01*
X140460000Y-94785000D02*
X138540000Y-94785000D01*
X140460000Y-92100000D02*
X140460000Y-94785000D01*
%TO.C,TP3*%
X148270000Y-99060000D02*
G75*
G03*
X148270000Y-99060000I-950000J0D01*
G01*
%TD*%
M02*
