%TF.GenerationSoftware,KiCad,Pcbnew,7.0.6*%
%TF.CreationDate,2023-08-27T19:49:05-04:00*%
%TF.ProjectId,miniclick,6d696e69-636c-4696-936b-2e6b69636164,rev?*%
%TF.SameCoordinates,Original*%
%TF.FileFunction,Copper,L3,Inr*%
%TF.FilePolarity,Positive*%
%FSLAX46Y46*%
G04 Gerber Fmt 4.6, Leading zero omitted, Abs format (unit mm)*
G04 Created by KiCad (PCBNEW 7.0.6) date 2023-08-27 19:49:05*
%MOMM*%
%LPD*%
G01*
G04 APERTURE LIST*
%TA.AperFunction,ComponentPad*%
%ADD10R,1.350000X1.350000*%
%TD*%
%TA.AperFunction,ViaPad*%
%ADD11C,0.800000*%
%TD*%
G04 APERTURE END LIST*
D10*
%TO.N,unconnected-(J4-Pin_1-Pad1)*%
%TO.C,J4*%
X148000000Y-97000000D03*
%TD*%
D11*
%TO.N,+3.3V*%
X150500000Y-100500000D03*
X149355378Y-96544622D03*
X157367812Y-90195892D03*
X148700000Y-100500000D03*
X149600000Y-100500000D03*
X139900000Y-105800000D03*
X150100000Y-97400000D03*
X140800000Y-89000000D03*
X156200000Y-105600000D03*
%TO.N,GND*%
X141200000Y-101800000D03*
X150700000Y-99000000D03*
X153100000Y-88800000D03*
X154500000Y-105800000D03*
X141600000Y-95700000D03*
X157100000Y-97200000D03*
X152900000Y-96000000D03*
X143400000Y-91200000D03*
X146600000Y-103000000D03*
X148900000Y-103000000D03*
X139300000Y-102100000D03*
X145500000Y-103000000D03*
X148900000Y-99000000D03*
X154700000Y-96000000D03*
X144400000Y-103000000D03*
X149800000Y-99000000D03*
%TO.N,ADRS_LED*%
X143702701Y-89162299D03*
%TO.N,PA6*%
X144100000Y-93500000D03*
%TO.N,PA4*%
X146600000Y-94300000D03*
%TO.N,PA5*%
X150400000Y-103850500D03*
X148400000Y-105900000D03*
X145000000Y-94100000D03*
%TO.N,PA2*%
X143400000Y-87500000D03*
%TO.N,SDA*%
X154400000Y-101000000D03*
X146844293Y-87984490D03*
%TO.N,SCL*%
X154367926Y-102249057D03*
X149062968Y-87907868D03*
%TD*%
%TA.AperFunction,Conductor*%
%TO.N,GND*%
G36*
X142511823Y-87020185D02*
G01*
X142557578Y-87072989D01*
X142567522Y-87142147D01*
X142562715Y-87162818D01*
X142519755Y-87295036D01*
X142514326Y-87311744D01*
X142494540Y-87500000D01*
X142514326Y-87688256D01*
X142514327Y-87688259D01*
X142572818Y-87868277D01*
X142572821Y-87868284D01*
X142667467Y-88032216D01*
X142794001Y-88172746D01*
X142794129Y-88172888D01*
X142936250Y-88276145D01*
X142947270Y-88284151D01*
X143030046Y-88321005D01*
X143083280Y-88366254D01*
X143103601Y-88433103D01*
X143084556Y-88500327D01*
X143071758Y-88517254D01*
X142970167Y-88630084D01*
X142875522Y-88794014D01*
X142875519Y-88794021D01*
X142817028Y-88974039D01*
X142817027Y-88974043D01*
X142797241Y-89162299D01*
X142817027Y-89350555D01*
X142817028Y-89350558D01*
X142875519Y-89530576D01*
X142875522Y-89530583D01*
X142970168Y-89694515D01*
X143050874Y-89784148D01*
X143096830Y-89835187D01*
X143249966Y-89946447D01*
X143249971Y-89946450D01*
X143422893Y-90023441D01*
X143422898Y-90023443D01*
X143608055Y-90062799D01*
X143608056Y-90062799D01*
X143797345Y-90062799D01*
X143797347Y-90062799D01*
X143982504Y-90023443D01*
X144155431Y-89946450D01*
X144308572Y-89835187D01*
X144435234Y-89694515D01*
X144529880Y-89530583D01*
X144588375Y-89350555D01*
X144608161Y-89162299D01*
X144588375Y-88974043D01*
X144529880Y-88794015D01*
X144435234Y-88630083D01*
X144308572Y-88489411D01*
X144308571Y-88489410D01*
X144155435Y-88378150D01*
X144155433Y-88378149D01*
X144072655Y-88341293D01*
X144019419Y-88296042D01*
X143999098Y-88229193D01*
X144018144Y-88161969D01*
X144030934Y-88145052D01*
X144132533Y-88032216D01*
X144227179Y-87868284D01*
X144285674Y-87688256D01*
X144305460Y-87500000D01*
X144285674Y-87311744D01*
X144249476Y-87200339D01*
X144237285Y-87162818D01*
X144235290Y-87092977D01*
X144271370Y-87033144D01*
X144334071Y-87002316D01*
X144355216Y-87000500D01*
X146284985Y-87000500D01*
X146352024Y-87020185D01*
X146397779Y-87072989D01*
X146407723Y-87142147D01*
X146378698Y-87205703D01*
X146357870Y-87224818D01*
X146238422Y-87311601D01*
X146111759Y-87452275D01*
X146017114Y-87616205D01*
X146017111Y-87616212D01*
X145958620Y-87796230D01*
X145958619Y-87796234D01*
X145938833Y-87984490D01*
X145958619Y-88172746D01*
X145958620Y-88172749D01*
X146017111Y-88352767D01*
X146017114Y-88352774D01*
X146111760Y-88516706D01*
X146213846Y-88630084D01*
X146238422Y-88657378D01*
X146391558Y-88768638D01*
X146391563Y-88768641D01*
X146564485Y-88845632D01*
X146564490Y-88845634D01*
X146749647Y-88884990D01*
X146749648Y-88884990D01*
X146938937Y-88884990D01*
X146938939Y-88884990D01*
X147124096Y-88845634D01*
X147297023Y-88768641D01*
X147450164Y-88657378D01*
X147576826Y-88516706D01*
X147671472Y-88352774D01*
X147729967Y-88172746D01*
X147749753Y-87984490D01*
X147729967Y-87796234D01*
X147671472Y-87616206D01*
X147576826Y-87452274D01*
X147450164Y-87311602D01*
X147427363Y-87295036D01*
X147330716Y-87224818D01*
X147288050Y-87169488D01*
X147282071Y-87099875D01*
X147314677Y-87038080D01*
X147375515Y-87003723D01*
X147403601Y-87000500D01*
X148398199Y-87000500D01*
X148465238Y-87020185D01*
X148510993Y-87072989D01*
X148520937Y-87142147D01*
X148491912Y-87205703D01*
X148471085Y-87224817D01*
X148470045Y-87225573D01*
X148457096Y-87234980D01*
X148330434Y-87375653D01*
X148235789Y-87539583D01*
X148235786Y-87539590D01*
X148190766Y-87678149D01*
X148177294Y-87719612D01*
X148157508Y-87907868D01*
X148177294Y-88096124D01*
X148177295Y-88096127D01*
X148235786Y-88276145D01*
X148235789Y-88276152D01*
X148330435Y-88440084D01*
X148457097Y-88580756D01*
X148610233Y-88692016D01*
X148610238Y-88692019D01*
X148783160Y-88769010D01*
X148783165Y-88769012D01*
X148968322Y-88808368D01*
X148968323Y-88808368D01*
X149157612Y-88808368D01*
X149157614Y-88808368D01*
X149342771Y-88769012D01*
X149515698Y-88692019D01*
X149668839Y-88580756D01*
X149795501Y-88440084D01*
X149890147Y-88276152D01*
X149948642Y-88096124D01*
X149968428Y-87907868D01*
X149948642Y-87719612D01*
X149890147Y-87539584D01*
X149795501Y-87375652D01*
X149668839Y-87234980D01*
X149654852Y-87224818D01*
X149612186Y-87169489D01*
X149606207Y-87099876D01*
X149638812Y-87038081D01*
X149699650Y-87003723D01*
X149727737Y-87000500D01*
X154999901Y-87000500D01*
X155997964Y-87000500D01*
X156002019Y-87000633D01*
X156037198Y-87002938D01*
X156083708Y-87005986D01*
X156265459Y-87018985D01*
X156273100Y-87020015D01*
X156363918Y-87038080D01*
X156389420Y-87043153D01*
X156415023Y-87048722D01*
X156533666Y-87074531D01*
X156540383Y-87076395D01*
X156659437Y-87116809D01*
X156756671Y-87153076D01*
X156791741Y-87166157D01*
X156797499Y-87168643D01*
X156912952Y-87225578D01*
X157034906Y-87292170D01*
X157039634Y-87295032D01*
X157064640Y-87311740D01*
X157146649Y-87366537D01*
X157149358Y-87368454D01*
X157258652Y-87450271D01*
X157262345Y-87453265D01*
X157359502Y-87538469D01*
X157362448Y-87541228D01*
X157458769Y-87637549D01*
X157461526Y-87640492D01*
X157546729Y-87737648D01*
X157549732Y-87741353D01*
X157590813Y-87796230D01*
X157631543Y-87850639D01*
X157633461Y-87853349D01*
X157704962Y-87960357D01*
X157707828Y-87965091D01*
X157774421Y-88087047D01*
X157831355Y-88202499D01*
X157833841Y-88208257D01*
X157859166Y-88276152D01*
X157883196Y-88340578D01*
X157887336Y-88352774D01*
X157923597Y-88459596D01*
X157925472Y-88466352D01*
X157956846Y-88610579D01*
X157979980Y-88726880D01*
X157981015Y-88734560D01*
X157994017Y-88916350D01*
X157996564Y-88955207D01*
X157997798Y-88974039D01*
X157999367Y-88997966D01*
X157999500Y-89002023D01*
X157999500Y-89300475D01*
X157979815Y-89367514D01*
X157927011Y-89413269D01*
X157857853Y-89423213D01*
X157825064Y-89413754D01*
X157647619Y-89334749D01*
X157647614Y-89334747D01*
X157501813Y-89303757D01*
X157462458Y-89295392D01*
X157273166Y-89295392D01*
X157249252Y-89300475D01*
X157088009Y-89334747D01*
X157088004Y-89334749D01*
X156915082Y-89411740D01*
X156915077Y-89411743D01*
X156761941Y-89523003D01*
X156635278Y-89663677D01*
X156540633Y-89827607D01*
X156540630Y-89827614D01*
X156482139Y-90007632D01*
X156482138Y-90007636D01*
X156462352Y-90195892D01*
X156482138Y-90384148D01*
X156482139Y-90384151D01*
X156540630Y-90564169D01*
X156540633Y-90564176D01*
X156635279Y-90728108D01*
X156735123Y-90838996D01*
X156761941Y-90868780D01*
X156915077Y-90980040D01*
X156915082Y-90980043D01*
X157088004Y-91057034D01*
X157088009Y-91057036D01*
X157273166Y-91096392D01*
X157273167Y-91096392D01*
X157462456Y-91096392D01*
X157462458Y-91096392D01*
X157647615Y-91057036D01*
X157820542Y-90980043D01*
X157820545Y-90980040D01*
X157825063Y-90978029D01*
X157894313Y-90968744D01*
X157957590Y-90998371D01*
X157994804Y-91057506D01*
X157999500Y-91091308D01*
X157999500Y-104997975D01*
X157999367Y-105002032D01*
X157994017Y-105083648D01*
X157981015Y-105265438D01*
X157979980Y-105273118D01*
X157956846Y-105389420D01*
X157925472Y-105533646D01*
X157923597Y-105540401D01*
X157899380Y-105611744D01*
X157883208Y-105659388D01*
X157883195Y-105659425D01*
X157833841Y-105791741D01*
X157831355Y-105797499D01*
X157774421Y-105912952D01*
X157707828Y-106034907D01*
X157704961Y-106039641D01*
X157633461Y-106146649D01*
X157631543Y-106149359D01*
X157549744Y-106258631D01*
X157546723Y-106262357D01*
X157461529Y-106359502D01*
X157458755Y-106362464D01*
X157362464Y-106458755D01*
X157359502Y-106461529D01*
X157262357Y-106546723D01*
X157258631Y-106549744D01*
X157149359Y-106631543D01*
X157146649Y-106633461D01*
X157039641Y-106704961D01*
X157034907Y-106707828D01*
X156912952Y-106774421D01*
X156797499Y-106831355D01*
X156791741Y-106833841D01*
X156683219Y-106874320D01*
X156659418Y-106883197D01*
X156540401Y-106923597D01*
X156533646Y-106925472D01*
X156389420Y-106956846D01*
X156273118Y-106979980D01*
X156265438Y-106981015D01*
X156083648Y-106994017D01*
X156032582Y-106997364D01*
X156002025Y-106999367D01*
X155997976Y-106999500D01*
X148727821Y-106999500D01*
X148660782Y-106979815D01*
X148615027Y-106927011D01*
X148605083Y-106857853D01*
X148634108Y-106794297D01*
X148677385Y-106762221D01*
X148805988Y-106704962D01*
X148852730Y-106684151D01*
X149005871Y-106572888D01*
X149132533Y-106432216D01*
X149227179Y-106268284D01*
X149285674Y-106088256D01*
X149305460Y-105900000D01*
X149285674Y-105711744D01*
X149249366Y-105600000D01*
X155294540Y-105600000D01*
X155314326Y-105788256D01*
X155314327Y-105788259D01*
X155372818Y-105968277D01*
X155372821Y-105968284D01*
X155467467Y-106132216D01*
X155581292Y-106258631D01*
X155594129Y-106272888D01*
X155747265Y-106384148D01*
X155747270Y-106384151D01*
X155920192Y-106461142D01*
X155920197Y-106461144D01*
X156105354Y-106500500D01*
X156105355Y-106500500D01*
X156294644Y-106500500D01*
X156294646Y-106500500D01*
X156479803Y-106461144D01*
X156652730Y-106384151D01*
X156805871Y-106272888D01*
X156932533Y-106132216D01*
X157027179Y-105968284D01*
X157085674Y-105788256D01*
X157105460Y-105600000D01*
X157085674Y-105411744D01*
X157027179Y-105231716D01*
X156932533Y-105067784D01*
X156805871Y-104927112D01*
X156805870Y-104927111D01*
X156652734Y-104815851D01*
X156652729Y-104815848D01*
X156479807Y-104738857D01*
X156479802Y-104738855D01*
X156334000Y-104707865D01*
X156294646Y-104699500D01*
X156105354Y-104699500D01*
X156072897Y-104706398D01*
X155920197Y-104738855D01*
X155920192Y-104738857D01*
X155747270Y-104815848D01*
X155747265Y-104815851D01*
X155594129Y-104927111D01*
X155467466Y-105067785D01*
X155372821Y-105231715D01*
X155372818Y-105231722D01*
X155321028Y-105391116D01*
X155314326Y-105411744D01*
X155294540Y-105600000D01*
X149249366Y-105600000D01*
X149227179Y-105531716D01*
X149132533Y-105367784D01*
X149005871Y-105227112D01*
X149005870Y-105227111D01*
X148852734Y-105115851D01*
X148852729Y-105115848D01*
X148679807Y-105038857D01*
X148679802Y-105038855D01*
X148506558Y-105002032D01*
X148494646Y-104999500D01*
X148305354Y-104999500D01*
X148293442Y-105002032D01*
X148120197Y-105038855D01*
X148120192Y-105038857D01*
X147947270Y-105115848D01*
X147947265Y-105115851D01*
X147794129Y-105227111D01*
X147667466Y-105367785D01*
X147572821Y-105531715D01*
X147572818Y-105531722D01*
X147514327Y-105711740D01*
X147514326Y-105711744D01*
X147494540Y-105900000D01*
X147514326Y-106088256D01*
X147514327Y-106088259D01*
X147572818Y-106268277D01*
X147572821Y-106268284D01*
X147667467Y-106432216D01*
X147735057Y-106507282D01*
X147794129Y-106572888D01*
X147947265Y-106684148D01*
X147947270Y-106684151D01*
X148122615Y-106762221D01*
X148175852Y-106807471D01*
X148196173Y-106874320D01*
X148177127Y-106941544D01*
X148124761Y-106987799D01*
X148072179Y-106999500D01*
X140002024Y-106999500D01*
X139997974Y-106999367D01*
X139959954Y-106996875D01*
X139916350Y-106994017D01*
X139734560Y-106981015D01*
X139726880Y-106979980D01*
X139610579Y-106956846D01*
X139466352Y-106925472D01*
X139459596Y-106923597D01*
X139427881Y-106912831D01*
X139340578Y-106883196D01*
X139305768Y-106870212D01*
X139208257Y-106833841D01*
X139202499Y-106831355D01*
X139087047Y-106774421D01*
X138965091Y-106707828D01*
X138960357Y-106704962D01*
X138853349Y-106633461D01*
X138850639Y-106631543D01*
X138787326Y-106584148D01*
X138741353Y-106549732D01*
X138737648Y-106546729D01*
X138640492Y-106461526D01*
X138637549Y-106458769D01*
X138541228Y-106362448D01*
X138538469Y-106359502D01*
X138514540Y-106332216D01*
X138453265Y-106262345D01*
X138450271Y-106258652D01*
X138368454Y-106149358D01*
X138366537Y-106146649D01*
X138295036Y-106039641D01*
X138292170Y-106034906D01*
X138225578Y-105912952D01*
X138169876Y-105800000D01*
X138994540Y-105800000D01*
X139014326Y-105988256D01*
X139014327Y-105988259D01*
X139072818Y-106168277D01*
X139072821Y-106168284D01*
X139167467Y-106332216D01*
X139214227Y-106384148D01*
X139294129Y-106472888D01*
X139447265Y-106584148D01*
X139447270Y-106584151D01*
X139620192Y-106661142D01*
X139620197Y-106661144D01*
X139805354Y-106700500D01*
X139805355Y-106700500D01*
X139994644Y-106700500D01*
X139994646Y-106700500D01*
X140179803Y-106661144D01*
X140352730Y-106584151D01*
X140505871Y-106472888D01*
X140632533Y-106332216D01*
X140727179Y-106168284D01*
X140785674Y-105988256D01*
X140805460Y-105800000D01*
X140785674Y-105611744D01*
X140727179Y-105431716D01*
X140632533Y-105267784D01*
X140505871Y-105127112D01*
X140490369Y-105115849D01*
X140352734Y-105015851D01*
X140352729Y-105015848D01*
X140179807Y-104938857D01*
X140179802Y-104938855D01*
X140034000Y-104907865D01*
X139994646Y-104899500D01*
X139805354Y-104899500D01*
X139772897Y-104906398D01*
X139620197Y-104938855D01*
X139620192Y-104938857D01*
X139447270Y-105015848D01*
X139447265Y-105015851D01*
X139294129Y-105127111D01*
X139167466Y-105267785D01*
X139072821Y-105431715D01*
X139072818Y-105431722D01*
X139018142Y-105600000D01*
X139014326Y-105611744D01*
X138994540Y-105800000D01*
X138169876Y-105800000D01*
X138168643Y-105797499D01*
X138166157Y-105791741D01*
X138153076Y-105756671D01*
X138116805Y-105659425D01*
X138076395Y-105540383D01*
X138074531Y-105533666D01*
X138043153Y-105389420D01*
X138038641Y-105366738D01*
X138020015Y-105273100D01*
X138018985Y-105265459D01*
X138005986Y-105083708D01*
X138001539Y-105015848D01*
X138000633Y-105002019D01*
X138000500Y-104997964D01*
X138000500Y-103850500D01*
X149494540Y-103850500D01*
X149514326Y-104038756D01*
X149514327Y-104038759D01*
X149572818Y-104218777D01*
X149572821Y-104218784D01*
X149667467Y-104382716D01*
X149794129Y-104523388D01*
X149947265Y-104634648D01*
X149947270Y-104634651D01*
X150120192Y-104711642D01*
X150120197Y-104711644D01*
X150305354Y-104751000D01*
X150305355Y-104751000D01*
X150494644Y-104751000D01*
X150494646Y-104751000D01*
X150679803Y-104711644D01*
X150852730Y-104634651D01*
X151005871Y-104523388D01*
X151132533Y-104382716D01*
X151227179Y-104218784D01*
X151285674Y-104038756D01*
X151305460Y-103850500D01*
X151285674Y-103662244D01*
X151227179Y-103482216D01*
X151132533Y-103318284D01*
X151005871Y-103177612D01*
X151005870Y-103177611D01*
X150852734Y-103066351D01*
X150852729Y-103066348D01*
X150679807Y-102989357D01*
X150679802Y-102989355D01*
X150534001Y-102958365D01*
X150494646Y-102950000D01*
X150305354Y-102950000D01*
X150272897Y-102956898D01*
X150120197Y-102989355D01*
X150120192Y-102989357D01*
X149947270Y-103066348D01*
X149947265Y-103066351D01*
X149794129Y-103177611D01*
X149667466Y-103318285D01*
X149572821Y-103482215D01*
X149572818Y-103482222D01*
X149514327Y-103662240D01*
X149514326Y-103662244D01*
X149494540Y-103850500D01*
X138000500Y-103850500D01*
X138000500Y-102249057D01*
X153462466Y-102249057D01*
X153482252Y-102437313D01*
X153482253Y-102437316D01*
X153540744Y-102617334D01*
X153540747Y-102617341D01*
X153635393Y-102781273D01*
X153762055Y-102921944D01*
X153762055Y-102921945D01*
X153915191Y-103033205D01*
X153915196Y-103033208D01*
X154088118Y-103110199D01*
X154088123Y-103110201D01*
X154273280Y-103149557D01*
X154273281Y-103149557D01*
X154462570Y-103149557D01*
X154462572Y-103149557D01*
X154647729Y-103110201D01*
X154820656Y-103033208D01*
X154973797Y-102921945D01*
X155100459Y-102781273D01*
X155195105Y-102617341D01*
X155253600Y-102437313D01*
X155273386Y-102249057D01*
X155253600Y-102060801D01*
X155195105Y-101880773D01*
X155100461Y-101716844D01*
X155100459Y-101716840D01*
X155099570Y-101715617D01*
X155099274Y-101714788D01*
X155097210Y-101711213D01*
X155097863Y-101710835D01*
X155076087Y-101649812D01*
X155091910Y-101581757D01*
X155107733Y-101559758D01*
X155132533Y-101532216D01*
X155227179Y-101368284D01*
X155285674Y-101188256D01*
X155305460Y-101000000D01*
X155285674Y-100811744D01*
X155227179Y-100631716D01*
X155132533Y-100467784D01*
X155005871Y-100327112D01*
X154984719Y-100311744D01*
X154852734Y-100215851D01*
X154852729Y-100215848D01*
X154679807Y-100138857D01*
X154679802Y-100138855D01*
X154534000Y-100107865D01*
X154494646Y-100099500D01*
X154305354Y-100099500D01*
X154272897Y-100106398D01*
X154120197Y-100138855D01*
X154120192Y-100138857D01*
X153947270Y-100215848D01*
X153947265Y-100215851D01*
X153794129Y-100327111D01*
X153667466Y-100467785D01*
X153572821Y-100631715D01*
X153572818Y-100631722D01*
X153514327Y-100811740D01*
X153514326Y-100811744D01*
X153494540Y-101000000D01*
X153514326Y-101188256D01*
X153514327Y-101188259D01*
X153572818Y-101368277D01*
X153572821Y-101368284D01*
X153667468Y-101532219D01*
X153668357Y-101533442D01*
X153668652Y-101534269D01*
X153670716Y-101537844D01*
X153670062Y-101538221D01*
X153691838Y-101599248D01*
X153676013Y-101667302D01*
X153660191Y-101689299D01*
X153635394Y-101716839D01*
X153635390Y-101716844D01*
X153540747Y-101880772D01*
X153540744Y-101880779D01*
X153482253Y-102060797D01*
X153482252Y-102060801D01*
X153462466Y-102249057D01*
X138000500Y-102249057D01*
X138000500Y-100500000D01*
X147794540Y-100500000D01*
X147814326Y-100688256D01*
X147814327Y-100688259D01*
X147872818Y-100868277D01*
X147872821Y-100868284D01*
X147967467Y-101032216D01*
X148094129Y-101172887D01*
X148094129Y-101172888D01*
X148247265Y-101284148D01*
X148247270Y-101284151D01*
X148420192Y-101361142D01*
X148420197Y-101361144D01*
X148605354Y-101400500D01*
X148605355Y-101400500D01*
X148794644Y-101400500D01*
X148794646Y-101400500D01*
X148979803Y-101361144D01*
X149099564Y-101307821D01*
X149168813Y-101298536D01*
X149200434Y-101307821D01*
X149320197Y-101361144D01*
X149505354Y-101400500D01*
X149505355Y-101400500D01*
X149694644Y-101400500D01*
X149694646Y-101400500D01*
X149879803Y-101361144D01*
X149999564Y-101307821D01*
X150068813Y-101298536D01*
X150100434Y-101307821D01*
X150220197Y-101361144D01*
X150405354Y-101400500D01*
X150405355Y-101400500D01*
X150594644Y-101400500D01*
X150594646Y-101400500D01*
X150779803Y-101361144D01*
X150952730Y-101284151D01*
X151105871Y-101172888D01*
X151232533Y-101032216D01*
X151327179Y-100868284D01*
X151385674Y-100688256D01*
X151405460Y-100500000D01*
X151385674Y-100311744D01*
X151327179Y-100131716D01*
X151232533Y-99967784D01*
X151105871Y-99827112D01*
X151105870Y-99827111D01*
X150952734Y-99715851D01*
X150952729Y-99715848D01*
X150779807Y-99638857D01*
X150779802Y-99638855D01*
X150634001Y-99607865D01*
X150594646Y-99599500D01*
X150405354Y-99599500D01*
X150372897Y-99606398D01*
X150220197Y-99638855D01*
X150220196Y-99638855D01*
X150100434Y-99692177D01*
X150031184Y-99701461D01*
X149999564Y-99692177D01*
X149879802Y-99638855D01*
X149734000Y-99607865D01*
X149694646Y-99599500D01*
X149505354Y-99599500D01*
X149472897Y-99606398D01*
X149320197Y-99638855D01*
X149320196Y-99638855D01*
X149200435Y-99692177D01*
X149131185Y-99701461D01*
X149099565Y-99692177D01*
X148979802Y-99638855D01*
X148834001Y-99607865D01*
X148794646Y-99599500D01*
X148605354Y-99599500D01*
X148572897Y-99606398D01*
X148420197Y-99638855D01*
X148420192Y-99638857D01*
X148247270Y-99715848D01*
X148247265Y-99715851D01*
X148094129Y-99827111D01*
X147967466Y-99967785D01*
X147872821Y-100131715D01*
X147872818Y-100131722D01*
X147814327Y-100311740D01*
X147814326Y-100311744D01*
X147794540Y-100500000D01*
X138000500Y-100500000D01*
X138000500Y-97722870D01*
X146824500Y-97722870D01*
X146824501Y-97722876D01*
X146830908Y-97782483D01*
X146881202Y-97917328D01*
X146881206Y-97917335D01*
X146967452Y-98032544D01*
X146967455Y-98032547D01*
X147082664Y-98118793D01*
X147082671Y-98118797D01*
X147217517Y-98169091D01*
X147217516Y-98169091D01*
X147224444Y-98169835D01*
X147277127Y-98175500D01*
X148722872Y-98175499D01*
X148782483Y-98169091D01*
X148917331Y-98118796D01*
X149032546Y-98032546D01*
X149118796Y-97917331D01*
X149121043Y-97911304D01*
X149162913Y-97855369D01*
X149228377Y-97830950D01*
X149296650Y-97845800D01*
X149344614Y-97892634D01*
X149367465Y-97932214D01*
X149494129Y-98072888D01*
X149647265Y-98184148D01*
X149647270Y-98184151D01*
X149820192Y-98261142D01*
X149820197Y-98261144D01*
X150005354Y-98300500D01*
X150005355Y-98300500D01*
X150194644Y-98300500D01*
X150194646Y-98300500D01*
X150379803Y-98261144D01*
X150552730Y-98184151D01*
X150705871Y-98072888D01*
X150832533Y-97932216D01*
X150927179Y-97768284D01*
X150985674Y-97588256D01*
X151005460Y-97400000D01*
X150985674Y-97211744D01*
X150927179Y-97031716D01*
X150832533Y-96867784D01*
X150705871Y-96727112D01*
X150705870Y-96727111D01*
X150552734Y-96615851D01*
X150552729Y-96615848D01*
X150379807Y-96538857D01*
X150379803Y-96538856D01*
X150345621Y-96531590D01*
X150284139Y-96498397D01*
X150250363Y-96437233D01*
X150248082Y-96423259D01*
X150241052Y-96356367D01*
X150215305Y-96277127D01*
X150182557Y-96176338D01*
X150087911Y-96012406D01*
X149961249Y-95871734D01*
X149961248Y-95871733D01*
X149808112Y-95760473D01*
X149808107Y-95760470D01*
X149635185Y-95683479D01*
X149635180Y-95683477D01*
X149489379Y-95652487D01*
X149450024Y-95644122D01*
X149260732Y-95644122D01*
X149228275Y-95651020D01*
X149075575Y-95683477D01*
X149075570Y-95683479D01*
X148902648Y-95760470D01*
X148902644Y-95760473D01*
X148841349Y-95805006D01*
X148775543Y-95828485D01*
X148755212Y-95827977D01*
X148722873Y-95824500D01*
X148722867Y-95824500D01*
X147277129Y-95824500D01*
X147277123Y-95824501D01*
X147217516Y-95830908D01*
X147082671Y-95881202D01*
X147082664Y-95881206D01*
X146967455Y-95967452D01*
X146967452Y-95967455D01*
X146881206Y-96082664D01*
X146881202Y-96082671D01*
X146830908Y-96217517D01*
X146824501Y-96277116D01*
X146824500Y-96277135D01*
X146824500Y-97722870D01*
X138000500Y-97722870D01*
X138000500Y-93500000D01*
X143194540Y-93500000D01*
X143214326Y-93688256D01*
X143214327Y-93688259D01*
X143272818Y-93868277D01*
X143272821Y-93868284D01*
X143367467Y-94032216D01*
X143439071Y-94111740D01*
X143494129Y-94172888D01*
X143647265Y-94284148D01*
X143647270Y-94284151D01*
X143820192Y-94361142D01*
X143820197Y-94361144D01*
X144005354Y-94400500D01*
X144062115Y-94400500D01*
X144129154Y-94420185D01*
X144167161Y-94464047D01*
X144169571Y-94462656D01*
X144267465Y-94632214D01*
X144394129Y-94772888D01*
X144547265Y-94884148D01*
X144547270Y-94884151D01*
X144720192Y-94961142D01*
X144720197Y-94961144D01*
X144905354Y-95000500D01*
X144905355Y-95000500D01*
X145094644Y-95000500D01*
X145094646Y-95000500D01*
X145279803Y-94961144D01*
X145452730Y-94884151D01*
X145605871Y-94772888D01*
X145630191Y-94745877D01*
X145689675Y-94709230D01*
X145759532Y-94710559D01*
X145817581Y-94749445D01*
X145829727Y-94766849D01*
X145867467Y-94832216D01*
X145994129Y-94972888D01*
X146147265Y-95084148D01*
X146147270Y-95084151D01*
X146320192Y-95161142D01*
X146320197Y-95161144D01*
X146505354Y-95200500D01*
X146505355Y-95200500D01*
X146694644Y-95200500D01*
X146694646Y-95200500D01*
X146879803Y-95161144D01*
X147052730Y-95084151D01*
X147205871Y-94972888D01*
X147332533Y-94832216D01*
X147427179Y-94668284D01*
X147485674Y-94488256D01*
X147505460Y-94300000D01*
X147485674Y-94111744D01*
X147427179Y-93931716D01*
X147332533Y-93767784D01*
X147205871Y-93627112D01*
X147205870Y-93627111D01*
X147052734Y-93515851D01*
X147052729Y-93515848D01*
X146879807Y-93438857D01*
X146879802Y-93438855D01*
X146734000Y-93407865D01*
X146694646Y-93399500D01*
X146505354Y-93399500D01*
X146472897Y-93406398D01*
X146320197Y-93438855D01*
X146320192Y-93438857D01*
X146147270Y-93515848D01*
X146147265Y-93515851D01*
X145994129Y-93627111D01*
X145994127Y-93627113D01*
X145969807Y-93654123D01*
X145910320Y-93690770D01*
X145840463Y-93689439D01*
X145782416Y-93650551D01*
X145770272Y-93633149D01*
X145751471Y-93600586D01*
X145732533Y-93567784D01*
X145685769Y-93515848D01*
X145605870Y-93427111D01*
X145452734Y-93315851D01*
X145452729Y-93315848D01*
X145279807Y-93238857D01*
X145279802Y-93238855D01*
X145134001Y-93207865D01*
X145094646Y-93199500D01*
X145094645Y-93199500D01*
X145037885Y-93199500D01*
X144970846Y-93179815D01*
X144932838Y-93135952D01*
X144930429Y-93137344D01*
X144832534Y-92967785D01*
X144705870Y-92827111D01*
X144552734Y-92715851D01*
X144552729Y-92715848D01*
X144379807Y-92638857D01*
X144379802Y-92638855D01*
X144234001Y-92607865D01*
X144194646Y-92599500D01*
X144005354Y-92599500D01*
X143972897Y-92606398D01*
X143820197Y-92638855D01*
X143820192Y-92638857D01*
X143647270Y-92715848D01*
X143647265Y-92715851D01*
X143494129Y-92827111D01*
X143367466Y-92967785D01*
X143272821Y-93131715D01*
X143272818Y-93131722D01*
X143214327Y-93311740D01*
X143214326Y-93311744D01*
X143194540Y-93500000D01*
X138000500Y-93500000D01*
X138000500Y-89002035D01*
X138000567Y-89000000D01*
X139894540Y-89000000D01*
X139914326Y-89188256D01*
X139914327Y-89188259D01*
X139972818Y-89368277D01*
X139972821Y-89368284D01*
X140067467Y-89532216D01*
X140185835Y-89663677D01*
X140194129Y-89672888D01*
X140347265Y-89784148D01*
X140347270Y-89784151D01*
X140520192Y-89861142D01*
X140520197Y-89861144D01*
X140705354Y-89900500D01*
X140705355Y-89900500D01*
X140894644Y-89900500D01*
X140894646Y-89900500D01*
X141079803Y-89861144D01*
X141252730Y-89784151D01*
X141405871Y-89672888D01*
X141532533Y-89532216D01*
X141627179Y-89368284D01*
X141685674Y-89188256D01*
X141705460Y-89000000D01*
X141685674Y-88811744D01*
X141627179Y-88631716D01*
X141532533Y-88467784D01*
X141405871Y-88327112D01*
X141397463Y-88321003D01*
X141252734Y-88215851D01*
X141252729Y-88215848D01*
X141079807Y-88138857D01*
X141079802Y-88138855D01*
X140934000Y-88107865D01*
X140894646Y-88099500D01*
X140705354Y-88099500D01*
X140672897Y-88106398D01*
X140520197Y-88138855D01*
X140520192Y-88138857D01*
X140347270Y-88215848D01*
X140347265Y-88215851D01*
X140194129Y-88327111D01*
X140067466Y-88467785D01*
X139972821Y-88631715D01*
X139972818Y-88631722D01*
X139915423Y-88808368D01*
X139914326Y-88811744D01*
X139894540Y-89000000D01*
X138000567Y-89000000D01*
X138000633Y-88997980D01*
X138002393Y-88971103D01*
X138005989Y-88916244D01*
X138018986Y-88734536D01*
X138020014Y-88726903D01*
X138043153Y-88610579D01*
X138044118Y-88606141D01*
X138074533Y-88466323D01*
X138076392Y-88459625D01*
X138116815Y-88340543D01*
X138166159Y-88208251D01*
X138168633Y-88202520D01*
X138225583Y-88087036D01*
X138292179Y-87965076D01*
X138295019Y-87960384D01*
X138366563Y-87853311D01*
X138368428Y-87850676D01*
X138450291Y-87741321D01*
X138453244Y-87737678D01*
X138538503Y-87640459D01*
X138541198Y-87637581D01*
X138637581Y-87541198D01*
X138640459Y-87538503D01*
X138737678Y-87453244D01*
X138741321Y-87450291D01*
X138850676Y-87368428D01*
X138853311Y-87366563D01*
X138960384Y-87295019D01*
X138965076Y-87292179D01*
X139087036Y-87225583D01*
X139202520Y-87168633D01*
X139208251Y-87166159D01*
X139340543Y-87116815D01*
X139459625Y-87076392D01*
X139466323Y-87074533D01*
X139610548Y-87043158D01*
X139726903Y-87020014D01*
X139734536Y-87018986D01*
X139916244Y-87005989D01*
X139969211Y-87002517D01*
X139997981Y-87000633D01*
X140002036Y-87000500D01*
X142444784Y-87000500D01*
X142511823Y-87020185D01*
G37*
%TD.AperFunction*%
%TD*%
M02*
