%TF.GenerationSoftware,KiCad,Pcbnew,7.0.6*%
%TF.CreationDate,2023-08-09T20:57:22-04:00*%
%TF.ProjectId,miniclick,6d696e69-636c-4696-936b-2e6b69636164,rev?*%
%TF.SameCoordinates,Original*%
%TF.FileFunction,Copper,L3,Inr*%
%TF.FilePolarity,Positive*%
%FSLAX46Y46*%
G04 Gerber Fmt 4.6, Leading zero omitted, Abs format (unit mm)*
G04 Created by KiCad (PCBNEW 7.0.6) date 2023-08-09 20:57:22*
%MOMM*%
%LPD*%
G01*
G04 APERTURE LIST*
%TA.AperFunction,ComponentPad*%
%ADD10R,0.850000X0.850000*%
%TD*%
%TA.AperFunction,ViaPad*%
%ADD11C,0.800000*%
%TD*%
G04 APERTURE END LIST*
D10*
%TO.N,unconnected-(J4-Pin_1-Pad1)*%
%TO.C,J4*%
X148000000Y-97000000D03*
%TD*%
D11*
%TO.N,+3.3V*%
X150500000Y-100500000D03*
X149355378Y-96544622D03*
X152100000Y-79800000D03*
X157367812Y-90195892D03*
X148700000Y-100500000D03*
X149600000Y-100500000D03*
X139900000Y-105800000D03*
X150100000Y-97400000D03*
X140800000Y-89000000D03*
X139400000Y-90600000D03*
X156200000Y-105600000D03*
%TO.N,GND*%
X141200000Y-101800000D03*
X150700000Y-99000000D03*
X152100000Y-81700000D03*
X153100000Y-88800000D03*
X154500000Y-105800000D03*
X141600000Y-95700000D03*
X157100000Y-97200000D03*
X152900000Y-96000000D03*
X144100000Y-90500000D03*
X146600000Y-103000000D03*
X148900000Y-103000000D03*
X139300000Y-102100000D03*
X145500000Y-103000000D03*
X148900000Y-99000000D03*
X154700000Y-96000000D03*
X144400000Y-103000000D03*
X149800000Y-99000000D03*
%TO.N,ADRS_LED*%
X143400000Y-89400000D03*
%TO.N,SWDIO*%
X155800000Y-93100000D03*
X148100000Y-83800000D03*
%TO.N,SWDCLK*%
X143900000Y-81100000D03*
X156500000Y-89700000D03*
%TO.N,PA3*%
X146600000Y-94300000D03*
%TO.N,PA4*%
X150400000Y-103850500D03*
X148400000Y-105900000D03*
X145500000Y-93700000D03*
%TO.N,PA5*%
X144100000Y-93500000D03*
%TO.N,PA2*%
X145700000Y-86600000D03*
%TO.N,SDA*%
X154400000Y-101000000D03*
X146900000Y-87400000D03*
%TO.N,SCL*%
X154367926Y-102249057D03*
X148500000Y-87300000D03*
%TD*%
%TA.AperFunction,Conductor*%
%TO.N,GND*%
G36*
X152002695Y-78000735D02*
G01*
X152045519Y-78004482D01*
X152171771Y-78016918D01*
X152191685Y-78020541D01*
X152258349Y-78038403D01*
X152351570Y-78066682D01*
X152367971Y-78072958D01*
X152435411Y-78104406D01*
X152438375Y-78105888D01*
X152475969Y-78125982D01*
X152522327Y-78150762D01*
X152528667Y-78154657D01*
X152594828Y-78200983D01*
X152598600Y-78203844D01*
X152670808Y-78263103D01*
X152675309Y-78267182D01*
X152732815Y-78324688D01*
X152736895Y-78329190D01*
X152796154Y-78401398D01*
X152799015Y-78405170D01*
X152845341Y-78471331D01*
X152849236Y-78477671D01*
X152894101Y-78561605D01*
X152895614Y-78564631D01*
X152927040Y-78632027D01*
X152933319Y-78648435D01*
X152961601Y-78741669D01*
X152979454Y-78808299D01*
X152983082Y-78828238D01*
X152995523Y-78954554D01*
X152999264Y-78997302D01*
X152999500Y-79002710D01*
X152999500Y-79130188D01*
X152979815Y-79197227D01*
X152927011Y-79242982D01*
X152857853Y-79252926D01*
X152794297Y-79223901D01*
X152783351Y-79213161D01*
X152705871Y-79127112D01*
X152705870Y-79127111D01*
X152552734Y-79015851D01*
X152552729Y-79015848D01*
X152379807Y-78938857D01*
X152379802Y-78938855D01*
X152234000Y-78907865D01*
X152194646Y-78899500D01*
X152005354Y-78899500D01*
X151972897Y-78906398D01*
X151820197Y-78938855D01*
X151820192Y-78938857D01*
X151647270Y-79015848D01*
X151647265Y-79015851D01*
X151494129Y-79127111D01*
X151367466Y-79267785D01*
X151272821Y-79431715D01*
X151272818Y-79431722D01*
X151214327Y-79611740D01*
X151214326Y-79611744D01*
X151194540Y-79800000D01*
X151214326Y-79988256D01*
X151214327Y-79988259D01*
X151272818Y-80168277D01*
X151272821Y-80168284D01*
X151367467Y-80332216D01*
X151416650Y-80386839D01*
X151494129Y-80472888D01*
X151647265Y-80584148D01*
X151647270Y-80584151D01*
X151820192Y-80661142D01*
X151820197Y-80661144D01*
X152005354Y-80700500D01*
X152005355Y-80700500D01*
X152194644Y-80700500D01*
X152194646Y-80700500D01*
X152379803Y-80661144D01*
X152552730Y-80584151D01*
X152705871Y-80472888D01*
X152783350Y-80386838D01*
X152842837Y-80350190D01*
X152912694Y-80351521D01*
X152970742Y-80390407D01*
X152998552Y-80454504D01*
X152999500Y-80469811D01*
X152999500Y-84968299D01*
X152998077Y-84973142D01*
X152999342Y-84990815D01*
X152999500Y-84995239D01*
X152999500Y-85131127D01*
X153018739Y-85277253D01*
X153018690Y-85277563D01*
X153019058Y-85279672D01*
X153020885Y-85293555D01*
X153021257Y-85297219D01*
X153026647Y-85372580D01*
X153031974Y-85387325D01*
X153032938Y-85387134D01*
X153033729Y-85391112D01*
X153076983Y-85552539D01*
X153076971Y-85553036D01*
X153077864Y-85555831D01*
X153085387Y-85583906D01*
X153086083Y-85586774D01*
X153096805Y-85636062D01*
X153100999Y-85642964D01*
X153171562Y-85813318D01*
X153171673Y-85814357D01*
X153174052Y-85819329D01*
X153198103Y-85877394D01*
X153203212Y-85891094D01*
X153207699Y-85896643D01*
X153300545Y-86057458D01*
X153300970Y-86059210D01*
X153301318Y-86059675D01*
X153305380Y-86065834D01*
X153333076Y-86113803D01*
X153334762Y-86116000D01*
X153342828Y-86128387D01*
X153348059Y-86133329D01*
X153461482Y-86281143D01*
X153462464Y-86283685D01*
X153463747Y-86284968D01*
X153469100Y-86291071D01*
X153492718Y-86321851D01*
X153492726Y-86321860D01*
X153505789Y-86334923D01*
X153514646Y-86345144D01*
X153519495Y-86348629D01*
X153651369Y-86480503D01*
X153653265Y-86483975D01*
X153665075Y-86494209D01*
X153678140Y-86507274D01*
X153678148Y-86507281D01*
X153678149Y-86507282D01*
X153689314Y-86515849D01*
X153708927Y-86530899D01*
X153715031Y-86536251D01*
X153715522Y-86536742D01*
X153718854Y-86538516D01*
X153866665Y-86651936D01*
X153869469Y-86655776D01*
X153884000Y-86665238D01*
X153886197Y-86666924D01*
X153934166Y-86694619D01*
X153940152Y-86698567D01*
X153942537Y-86699452D01*
X154068576Y-86772220D01*
X154103354Y-86792299D01*
X154106929Y-86796049D01*
X154122590Y-86801890D01*
X154180666Y-86825946D01*
X154185154Y-86828093D01*
X154186680Y-86828437D01*
X154357032Y-86898999D01*
X154361607Y-86902686D01*
X154413214Y-86913912D01*
X154416019Y-86914592D01*
X154444197Y-86922142D01*
X154446728Y-86922952D01*
X154447455Y-86923015D01*
X154608884Y-86966270D01*
X154608890Y-86966270D01*
X154608891Y-86966271D01*
X154612866Y-86967062D01*
X154612590Y-86968448D01*
X154622961Y-86973033D01*
X154702772Y-86978741D01*
X154706425Y-86979111D01*
X154720357Y-86980946D01*
X154722283Y-86981281D01*
X154722742Y-86981260D01*
X154868880Y-87000500D01*
X154999901Y-87000500D01*
X155004774Y-87000500D01*
X155009198Y-87000658D01*
X155024727Y-87001768D01*
X155031700Y-87000500D01*
X155997964Y-87000500D01*
X156002019Y-87000633D01*
X156037198Y-87002938D01*
X156083708Y-87005986D01*
X156265459Y-87018985D01*
X156273100Y-87020015D01*
X156366738Y-87038641D01*
X156389420Y-87043153D01*
X156415023Y-87048722D01*
X156533666Y-87074531D01*
X156540383Y-87076395D01*
X156659437Y-87116809D01*
X156756671Y-87153076D01*
X156791741Y-87166157D01*
X156797499Y-87168643D01*
X156912952Y-87225578D01*
X157034906Y-87292170D01*
X157039634Y-87295032D01*
X157047070Y-87300000D01*
X157146649Y-87366537D01*
X157149358Y-87368454D01*
X157258652Y-87450271D01*
X157262345Y-87453265D01*
X157359502Y-87538469D01*
X157362448Y-87541228D01*
X157458769Y-87637549D01*
X157461526Y-87640492D01*
X157546729Y-87737648D01*
X157549732Y-87741353D01*
X157601564Y-87810592D01*
X157631543Y-87850639D01*
X157633461Y-87853349D01*
X157704962Y-87960357D01*
X157707828Y-87965091D01*
X157774421Y-88087047D01*
X157831355Y-88202499D01*
X157833841Y-88208257D01*
X157870212Y-88305768D01*
X157883196Y-88340578D01*
X157888289Y-88355581D01*
X157923597Y-88459596D01*
X157925472Y-88466352D01*
X157956846Y-88610579D01*
X157979980Y-88726880D01*
X157981015Y-88734560D01*
X157994017Y-88916350D01*
X157999367Y-88997966D01*
X157999500Y-89002023D01*
X157999500Y-89300475D01*
X157979815Y-89367514D01*
X157927011Y-89413269D01*
X157857853Y-89423213D01*
X157825064Y-89413754D01*
X157647619Y-89334749D01*
X157647614Y-89334747D01*
X157501813Y-89303757D01*
X157462458Y-89295392D01*
X157462457Y-89295392D01*
X157377799Y-89295392D01*
X157310760Y-89275707D01*
X157270412Y-89233392D01*
X157244352Y-89188256D01*
X157232533Y-89167784D01*
X157105871Y-89027112D01*
X157105870Y-89027111D01*
X156952734Y-88915851D01*
X156952729Y-88915848D01*
X156779807Y-88838857D01*
X156779802Y-88838855D01*
X156634000Y-88807865D01*
X156594646Y-88799500D01*
X156405354Y-88799500D01*
X156372897Y-88806398D01*
X156220197Y-88838855D01*
X156220192Y-88838857D01*
X156047270Y-88915848D01*
X156047265Y-88915851D01*
X155894129Y-89027111D01*
X155767466Y-89167785D01*
X155672821Y-89331715D01*
X155672818Y-89331722D01*
X155614327Y-89511740D01*
X155614326Y-89511744D01*
X155606284Y-89588259D01*
X155594593Y-89699500D01*
X155594540Y-89700000D01*
X155614326Y-89888256D01*
X155614327Y-89888259D01*
X155672818Y-90068277D01*
X155672821Y-90068284D01*
X155767467Y-90232216D01*
X155894128Y-90372887D01*
X155894129Y-90372888D01*
X156047265Y-90484148D01*
X156047270Y-90484151D01*
X156220192Y-90561142D01*
X156220197Y-90561144D01*
X156405354Y-90600500D01*
X156490013Y-90600500D01*
X156557052Y-90620185D01*
X156597400Y-90662500D01*
X156635279Y-90728108D01*
X156735123Y-90838996D01*
X156761941Y-90868780D01*
X156915077Y-90980040D01*
X156915082Y-90980043D01*
X157088004Y-91057034D01*
X157088009Y-91057036D01*
X157273166Y-91096392D01*
X157273167Y-91096392D01*
X157462456Y-91096392D01*
X157462458Y-91096392D01*
X157647615Y-91057036D01*
X157820542Y-90980043D01*
X157820545Y-90980040D01*
X157825063Y-90978029D01*
X157894313Y-90968744D01*
X157957590Y-90998371D01*
X157994804Y-91057506D01*
X157999500Y-91091308D01*
X157999500Y-104997975D01*
X157999367Y-105002032D01*
X157994017Y-105083648D01*
X157981015Y-105265438D01*
X157979980Y-105273118D01*
X157956846Y-105389420D01*
X157925472Y-105533646D01*
X157923597Y-105540401D01*
X157899380Y-105611744D01*
X157883208Y-105659388D01*
X157883195Y-105659425D01*
X157833841Y-105791741D01*
X157831355Y-105797499D01*
X157774421Y-105912952D01*
X157707828Y-106034907D01*
X157704961Y-106039641D01*
X157633461Y-106146649D01*
X157631543Y-106149359D01*
X157549744Y-106258631D01*
X157546723Y-106262357D01*
X157461529Y-106359502D01*
X157458755Y-106362464D01*
X157362464Y-106458755D01*
X157359502Y-106461529D01*
X157262357Y-106546723D01*
X157258631Y-106549744D01*
X157149359Y-106631543D01*
X157146649Y-106633461D01*
X157039641Y-106704961D01*
X157034907Y-106707828D01*
X156912952Y-106774421D01*
X156797499Y-106831355D01*
X156791741Y-106833841D01*
X156683219Y-106874320D01*
X156659418Y-106883197D01*
X156540401Y-106923597D01*
X156533646Y-106925472D01*
X156389420Y-106956846D01*
X156273118Y-106979980D01*
X156265438Y-106981015D01*
X156083648Y-106994017D01*
X156032582Y-106997364D01*
X156002025Y-106999367D01*
X155997976Y-106999500D01*
X148727821Y-106999500D01*
X148660782Y-106979815D01*
X148615027Y-106927011D01*
X148605083Y-106857853D01*
X148634108Y-106794297D01*
X148677385Y-106762221D01*
X148805988Y-106704962D01*
X148852730Y-106684151D01*
X149005871Y-106572888D01*
X149132533Y-106432216D01*
X149227179Y-106268284D01*
X149285674Y-106088256D01*
X149305460Y-105900000D01*
X149285674Y-105711744D01*
X149249366Y-105600000D01*
X155294540Y-105600000D01*
X155314326Y-105788256D01*
X155314327Y-105788259D01*
X155372818Y-105968277D01*
X155372821Y-105968284D01*
X155467467Y-106132216D01*
X155581292Y-106258631D01*
X155594129Y-106272888D01*
X155747265Y-106384148D01*
X155747270Y-106384151D01*
X155920192Y-106461142D01*
X155920197Y-106461144D01*
X156105354Y-106500500D01*
X156105355Y-106500500D01*
X156294644Y-106500500D01*
X156294646Y-106500500D01*
X156479803Y-106461144D01*
X156652730Y-106384151D01*
X156805871Y-106272888D01*
X156932533Y-106132216D01*
X157027179Y-105968284D01*
X157085674Y-105788256D01*
X157105460Y-105600000D01*
X157085674Y-105411744D01*
X157027179Y-105231716D01*
X156932533Y-105067784D01*
X156805871Y-104927112D01*
X156805870Y-104927111D01*
X156652734Y-104815851D01*
X156652729Y-104815848D01*
X156479807Y-104738857D01*
X156479802Y-104738855D01*
X156334000Y-104707865D01*
X156294646Y-104699500D01*
X156105354Y-104699500D01*
X156072897Y-104706398D01*
X155920197Y-104738855D01*
X155920192Y-104738857D01*
X155747270Y-104815848D01*
X155747265Y-104815851D01*
X155594129Y-104927111D01*
X155467466Y-105067785D01*
X155372821Y-105231715D01*
X155372818Y-105231722D01*
X155321028Y-105391116D01*
X155314326Y-105411744D01*
X155294540Y-105600000D01*
X149249366Y-105600000D01*
X149227179Y-105531716D01*
X149132533Y-105367784D01*
X149005871Y-105227112D01*
X149005870Y-105227111D01*
X148852734Y-105115851D01*
X148852729Y-105115848D01*
X148679807Y-105038857D01*
X148679802Y-105038855D01*
X148506558Y-105002032D01*
X148494646Y-104999500D01*
X148305354Y-104999500D01*
X148293442Y-105002032D01*
X148120197Y-105038855D01*
X148120192Y-105038857D01*
X147947270Y-105115848D01*
X147947265Y-105115851D01*
X147794129Y-105227111D01*
X147667466Y-105367785D01*
X147572821Y-105531715D01*
X147572818Y-105531722D01*
X147514327Y-105711740D01*
X147514326Y-105711744D01*
X147494540Y-105900000D01*
X147514326Y-106088256D01*
X147514327Y-106088259D01*
X147572818Y-106268277D01*
X147572821Y-106268284D01*
X147667467Y-106432216D01*
X147735057Y-106507282D01*
X147794129Y-106572888D01*
X147947265Y-106684148D01*
X147947270Y-106684151D01*
X148122615Y-106762221D01*
X148175852Y-106807471D01*
X148196173Y-106874320D01*
X148177127Y-106941544D01*
X148124761Y-106987799D01*
X148072179Y-106999500D01*
X140002024Y-106999500D01*
X139997974Y-106999367D01*
X139959954Y-106996875D01*
X139916350Y-106994017D01*
X139734560Y-106981015D01*
X139726880Y-106979980D01*
X139610579Y-106956846D01*
X139466352Y-106925472D01*
X139459596Y-106923597D01*
X139427881Y-106912831D01*
X139340578Y-106883196D01*
X139305768Y-106870212D01*
X139208257Y-106833841D01*
X139202499Y-106831355D01*
X139087047Y-106774421D01*
X138965091Y-106707828D01*
X138960357Y-106704962D01*
X138853349Y-106633461D01*
X138850639Y-106631543D01*
X138787326Y-106584148D01*
X138741353Y-106549732D01*
X138737648Y-106546729D01*
X138640492Y-106461526D01*
X138637549Y-106458769D01*
X138541228Y-106362448D01*
X138538469Y-106359502D01*
X138514540Y-106332216D01*
X138453265Y-106262345D01*
X138450271Y-106258652D01*
X138368454Y-106149358D01*
X138366537Y-106146649D01*
X138295036Y-106039641D01*
X138292170Y-106034906D01*
X138225578Y-105912952D01*
X138169876Y-105800000D01*
X138994540Y-105800000D01*
X139014326Y-105988256D01*
X139014327Y-105988259D01*
X139072818Y-106168277D01*
X139072821Y-106168284D01*
X139167467Y-106332216D01*
X139214227Y-106384148D01*
X139294129Y-106472888D01*
X139447265Y-106584148D01*
X139447270Y-106584151D01*
X139620192Y-106661142D01*
X139620197Y-106661144D01*
X139805354Y-106700500D01*
X139805355Y-106700500D01*
X139994644Y-106700500D01*
X139994646Y-106700500D01*
X140179803Y-106661144D01*
X140352730Y-106584151D01*
X140505871Y-106472888D01*
X140632533Y-106332216D01*
X140727179Y-106168284D01*
X140785674Y-105988256D01*
X140805460Y-105800000D01*
X140785674Y-105611744D01*
X140727179Y-105431716D01*
X140632533Y-105267784D01*
X140505871Y-105127112D01*
X140490369Y-105115849D01*
X140352734Y-105015851D01*
X140352729Y-105015848D01*
X140179807Y-104938857D01*
X140179802Y-104938855D01*
X140034000Y-104907865D01*
X139994646Y-104899500D01*
X139805354Y-104899500D01*
X139772897Y-104906398D01*
X139620197Y-104938855D01*
X139620192Y-104938857D01*
X139447270Y-105015848D01*
X139447265Y-105015851D01*
X139294129Y-105127111D01*
X139167466Y-105267785D01*
X139072821Y-105431715D01*
X139072818Y-105431722D01*
X139018142Y-105600000D01*
X139014326Y-105611744D01*
X138994540Y-105800000D01*
X138169876Y-105800000D01*
X138168643Y-105797499D01*
X138166157Y-105791741D01*
X138153076Y-105756671D01*
X138116805Y-105659425D01*
X138076395Y-105540383D01*
X138074531Y-105533666D01*
X138043153Y-105389420D01*
X138038641Y-105366738D01*
X138020015Y-105273100D01*
X138018985Y-105265459D01*
X138005986Y-105083708D01*
X138001539Y-105015848D01*
X138000633Y-105002019D01*
X138000500Y-104997964D01*
X138000500Y-103850500D01*
X149494540Y-103850500D01*
X149514326Y-104038756D01*
X149514327Y-104038759D01*
X149572818Y-104218777D01*
X149572821Y-104218784D01*
X149667467Y-104382716D01*
X149794129Y-104523388D01*
X149947265Y-104634648D01*
X149947270Y-104634651D01*
X150120192Y-104711642D01*
X150120197Y-104711644D01*
X150305354Y-104751000D01*
X150305355Y-104751000D01*
X150494644Y-104751000D01*
X150494646Y-104751000D01*
X150679803Y-104711644D01*
X150852730Y-104634651D01*
X151005871Y-104523388D01*
X151132533Y-104382716D01*
X151227179Y-104218784D01*
X151285674Y-104038756D01*
X151305460Y-103850500D01*
X151285674Y-103662244D01*
X151227179Y-103482216D01*
X151132533Y-103318284D01*
X151005871Y-103177612D01*
X151005870Y-103177611D01*
X150852734Y-103066351D01*
X150852729Y-103066348D01*
X150679807Y-102989357D01*
X150679802Y-102989355D01*
X150534001Y-102958365D01*
X150494646Y-102950000D01*
X150305354Y-102950000D01*
X150272897Y-102956898D01*
X150120197Y-102989355D01*
X150120192Y-102989357D01*
X149947270Y-103066348D01*
X149947265Y-103066351D01*
X149794129Y-103177611D01*
X149667466Y-103318285D01*
X149572821Y-103482215D01*
X149572818Y-103482222D01*
X149514327Y-103662240D01*
X149514326Y-103662244D01*
X149494540Y-103850500D01*
X138000500Y-103850500D01*
X138000500Y-102249057D01*
X153462466Y-102249057D01*
X153482252Y-102437313D01*
X153482253Y-102437316D01*
X153540744Y-102617334D01*
X153540747Y-102617341D01*
X153635393Y-102781273D01*
X153762055Y-102921944D01*
X153762055Y-102921945D01*
X153915191Y-103033205D01*
X153915196Y-103033208D01*
X154088118Y-103110199D01*
X154088123Y-103110201D01*
X154273280Y-103149557D01*
X154273281Y-103149557D01*
X154462570Y-103149557D01*
X154462572Y-103149557D01*
X154647729Y-103110201D01*
X154820656Y-103033208D01*
X154973797Y-102921945D01*
X155100459Y-102781273D01*
X155195105Y-102617341D01*
X155253600Y-102437313D01*
X155273386Y-102249057D01*
X155253600Y-102060801D01*
X155195105Y-101880773D01*
X155100461Y-101716844D01*
X155100459Y-101716840D01*
X155099570Y-101715617D01*
X155099274Y-101714788D01*
X155097210Y-101711213D01*
X155097863Y-101710835D01*
X155076087Y-101649812D01*
X155091910Y-101581757D01*
X155107733Y-101559758D01*
X155132533Y-101532216D01*
X155227179Y-101368284D01*
X155285674Y-101188256D01*
X155305460Y-101000000D01*
X155285674Y-100811744D01*
X155227179Y-100631716D01*
X155132533Y-100467784D01*
X155005871Y-100327112D01*
X154984719Y-100311744D01*
X154852734Y-100215851D01*
X154852729Y-100215848D01*
X154679807Y-100138857D01*
X154679802Y-100138855D01*
X154534000Y-100107865D01*
X154494646Y-100099500D01*
X154305354Y-100099500D01*
X154272897Y-100106398D01*
X154120197Y-100138855D01*
X154120192Y-100138857D01*
X153947270Y-100215848D01*
X153947265Y-100215851D01*
X153794129Y-100327111D01*
X153667466Y-100467785D01*
X153572821Y-100631715D01*
X153572818Y-100631722D01*
X153514327Y-100811740D01*
X153514326Y-100811744D01*
X153494540Y-101000000D01*
X153514326Y-101188256D01*
X153514327Y-101188259D01*
X153572818Y-101368277D01*
X153572821Y-101368284D01*
X153667468Y-101532219D01*
X153668357Y-101533442D01*
X153668652Y-101534269D01*
X153670716Y-101537844D01*
X153670062Y-101538221D01*
X153691838Y-101599248D01*
X153676013Y-101667302D01*
X153660191Y-101689299D01*
X153635394Y-101716839D01*
X153635390Y-101716844D01*
X153540747Y-101880772D01*
X153540744Y-101880779D01*
X153482253Y-102060797D01*
X153482252Y-102060801D01*
X153462466Y-102249057D01*
X138000500Y-102249057D01*
X138000500Y-100500000D01*
X147794540Y-100500000D01*
X147814326Y-100688256D01*
X147814327Y-100688259D01*
X147872818Y-100868277D01*
X147872821Y-100868284D01*
X147967467Y-101032216D01*
X148094129Y-101172887D01*
X148094129Y-101172888D01*
X148247265Y-101284148D01*
X148247270Y-101284151D01*
X148420192Y-101361142D01*
X148420197Y-101361144D01*
X148605354Y-101400500D01*
X148605355Y-101400500D01*
X148794644Y-101400500D01*
X148794646Y-101400500D01*
X148979803Y-101361144D01*
X149099564Y-101307821D01*
X149168813Y-101298536D01*
X149200434Y-101307821D01*
X149320197Y-101361144D01*
X149505354Y-101400500D01*
X149505355Y-101400500D01*
X149694644Y-101400500D01*
X149694646Y-101400500D01*
X149879803Y-101361144D01*
X149999564Y-101307821D01*
X150068813Y-101298536D01*
X150100434Y-101307821D01*
X150220197Y-101361144D01*
X150405354Y-101400500D01*
X150405355Y-101400500D01*
X150594644Y-101400500D01*
X150594646Y-101400500D01*
X150779803Y-101361144D01*
X150952730Y-101284151D01*
X151105871Y-101172888D01*
X151232533Y-101032216D01*
X151327179Y-100868284D01*
X151385674Y-100688256D01*
X151405460Y-100500000D01*
X151385674Y-100311744D01*
X151327179Y-100131716D01*
X151232533Y-99967784D01*
X151105871Y-99827112D01*
X151105870Y-99827111D01*
X150952734Y-99715851D01*
X150952729Y-99715848D01*
X150779807Y-99638857D01*
X150779802Y-99638855D01*
X150634001Y-99607865D01*
X150594646Y-99599500D01*
X150405354Y-99599500D01*
X150372897Y-99606398D01*
X150220197Y-99638855D01*
X150220196Y-99638855D01*
X150100434Y-99692177D01*
X150031184Y-99701461D01*
X149999564Y-99692177D01*
X149879802Y-99638855D01*
X149734000Y-99607865D01*
X149694646Y-99599500D01*
X149505354Y-99599500D01*
X149472897Y-99606398D01*
X149320197Y-99638855D01*
X149320196Y-99638855D01*
X149200435Y-99692177D01*
X149131185Y-99701461D01*
X149099565Y-99692177D01*
X148979802Y-99638855D01*
X148834001Y-99607865D01*
X148794646Y-99599500D01*
X148605354Y-99599500D01*
X148572897Y-99606398D01*
X148420197Y-99638855D01*
X148420192Y-99638857D01*
X148247270Y-99715848D01*
X148247265Y-99715851D01*
X148094129Y-99827111D01*
X147967466Y-99967785D01*
X147872821Y-100131715D01*
X147872818Y-100131722D01*
X147814327Y-100311740D01*
X147814326Y-100311744D01*
X147794540Y-100500000D01*
X138000500Y-100500000D01*
X138000500Y-97472870D01*
X147074500Y-97472870D01*
X147074501Y-97472876D01*
X147080908Y-97532483D01*
X147131202Y-97667328D01*
X147131206Y-97667335D01*
X147217452Y-97782544D01*
X147217455Y-97782547D01*
X147332664Y-97868793D01*
X147332671Y-97868797D01*
X147467517Y-97919091D01*
X147467516Y-97919091D01*
X147474444Y-97919835D01*
X147527127Y-97925500D01*
X148472872Y-97925499D01*
X148532483Y-97919091D01*
X148667331Y-97868796D01*
X148782546Y-97782546D01*
X148868796Y-97667331D01*
X148919091Y-97532483D01*
X148921220Y-97512676D01*
X148947956Y-97448128D01*
X149005347Y-97408278D01*
X149070291Y-97404642D01*
X149075571Y-97405764D01*
X149075575Y-97405766D01*
X149109756Y-97413031D01*
X149171238Y-97446224D01*
X149205014Y-97507388D01*
X149207294Y-97521354D01*
X149214326Y-97588256D01*
X149214327Y-97588259D01*
X149272818Y-97768277D01*
X149272821Y-97768284D01*
X149367467Y-97932216D01*
X149494128Y-98072888D01*
X149494129Y-98072888D01*
X149647265Y-98184148D01*
X149647270Y-98184151D01*
X149820192Y-98261142D01*
X149820197Y-98261144D01*
X150005354Y-98300500D01*
X150005355Y-98300500D01*
X150194644Y-98300500D01*
X150194646Y-98300500D01*
X150379803Y-98261144D01*
X150552730Y-98184151D01*
X150705871Y-98072888D01*
X150832533Y-97932216D01*
X150927179Y-97768284D01*
X150985674Y-97588256D01*
X151005460Y-97400000D01*
X150985674Y-97211744D01*
X150927179Y-97031716D01*
X150832533Y-96867784D01*
X150705871Y-96727112D01*
X150705870Y-96727111D01*
X150552734Y-96615851D01*
X150552729Y-96615848D01*
X150379807Y-96538857D01*
X150379803Y-96538856D01*
X150345621Y-96531590D01*
X150284139Y-96498397D01*
X150250363Y-96437233D01*
X150248082Y-96423259D01*
X150241052Y-96356367D01*
X150233350Y-96332664D01*
X150182557Y-96176338D01*
X150087911Y-96012406D01*
X149961249Y-95871734D01*
X149961248Y-95871733D01*
X149808112Y-95760473D01*
X149808107Y-95760470D01*
X149635185Y-95683479D01*
X149635180Y-95683477D01*
X149489379Y-95652487D01*
X149450024Y-95644122D01*
X149260732Y-95644122D01*
X149228275Y-95651020D01*
X149075575Y-95683477D01*
X149075570Y-95683479D01*
X148902648Y-95760470D01*
X148902643Y-95760473D01*
X148749507Y-95871733D01*
X148622847Y-96012403D01*
X148622843Y-96012408D01*
X148620689Y-96016140D01*
X148570118Y-96064352D01*
X148501510Y-96077570D01*
X148500054Y-96077422D01*
X148488807Y-96076213D01*
X148472873Y-96074500D01*
X148472868Y-96074500D01*
X147527129Y-96074500D01*
X147527123Y-96074501D01*
X147467516Y-96080908D01*
X147332671Y-96131202D01*
X147332664Y-96131206D01*
X147217455Y-96217452D01*
X147217452Y-96217455D01*
X147131206Y-96332664D01*
X147131202Y-96332671D01*
X147080908Y-96467517D01*
X147074501Y-96527116D01*
X147074500Y-96527135D01*
X147074500Y-97472870D01*
X138000500Y-97472870D01*
X138000500Y-93500000D01*
X143194540Y-93500000D01*
X143214326Y-93688256D01*
X143214327Y-93688259D01*
X143272818Y-93868277D01*
X143272821Y-93868284D01*
X143367467Y-94032216D01*
X143439071Y-94111740D01*
X143494129Y-94172888D01*
X143647265Y-94284148D01*
X143647270Y-94284151D01*
X143820192Y-94361142D01*
X143820197Y-94361144D01*
X144005354Y-94400500D01*
X144005355Y-94400500D01*
X144194644Y-94400500D01*
X144194646Y-94400500D01*
X144379803Y-94361144D01*
X144552730Y-94284151D01*
X144620487Y-94234922D01*
X144686292Y-94211442D01*
X144754346Y-94227267D01*
X144785522Y-94252268D01*
X144894129Y-94372888D01*
X145047265Y-94484148D01*
X145047270Y-94484151D01*
X145220192Y-94561142D01*
X145220197Y-94561144D01*
X145405354Y-94600500D01*
X145405355Y-94600500D01*
X145594645Y-94600500D01*
X145594646Y-94600500D01*
X145631627Y-94592639D01*
X145701293Y-94597954D01*
X145757027Y-94640091D01*
X145770684Y-94663485D01*
X145772820Y-94668282D01*
X145772821Y-94668284D01*
X145867467Y-94832216D01*
X145994129Y-94972887D01*
X145994129Y-94972888D01*
X146147265Y-95084148D01*
X146147270Y-95084151D01*
X146320192Y-95161142D01*
X146320197Y-95161144D01*
X146505354Y-95200500D01*
X146505355Y-95200500D01*
X146694644Y-95200500D01*
X146694646Y-95200500D01*
X146879803Y-95161144D01*
X147052730Y-95084151D01*
X147205871Y-94972888D01*
X147332533Y-94832216D01*
X147427179Y-94668284D01*
X147485674Y-94488256D01*
X147505460Y-94300000D01*
X147485674Y-94111744D01*
X147427179Y-93931716D01*
X147332533Y-93767784D01*
X147205871Y-93627112D01*
X147205870Y-93627111D01*
X147052734Y-93515851D01*
X147052729Y-93515848D01*
X146879807Y-93438857D01*
X146879802Y-93438855D01*
X146731629Y-93407361D01*
X146694646Y-93399500D01*
X146505354Y-93399500D01*
X146481718Y-93404523D01*
X146468369Y-93407361D01*
X146398702Y-93402043D01*
X146342970Y-93359905D01*
X146329313Y-93336510D01*
X146327180Y-93331721D01*
X146327179Y-93331716D01*
X146232533Y-93167784D01*
X146171500Y-93100000D01*
X154894540Y-93100000D01*
X154914326Y-93288256D01*
X154914327Y-93288259D01*
X154972818Y-93468277D01*
X154972821Y-93468284D01*
X155067467Y-93632216D01*
X155189533Y-93767784D01*
X155194129Y-93772888D01*
X155347265Y-93884148D01*
X155347270Y-93884151D01*
X155520192Y-93961142D01*
X155520197Y-93961144D01*
X155705354Y-94000500D01*
X155705355Y-94000500D01*
X155894644Y-94000500D01*
X155894646Y-94000500D01*
X156079803Y-93961144D01*
X156252730Y-93884151D01*
X156405871Y-93772888D01*
X156532533Y-93632216D01*
X156627179Y-93468284D01*
X156685674Y-93288256D01*
X156705460Y-93100000D01*
X156685674Y-92911744D01*
X156627179Y-92731716D01*
X156532533Y-92567784D01*
X156405871Y-92427112D01*
X156405870Y-92427111D01*
X156252734Y-92315851D01*
X156252729Y-92315848D01*
X156079807Y-92238857D01*
X156079802Y-92238855D01*
X155934000Y-92207865D01*
X155894646Y-92199500D01*
X155705354Y-92199500D01*
X155672897Y-92206398D01*
X155520197Y-92238855D01*
X155520192Y-92238857D01*
X155347270Y-92315848D01*
X155347265Y-92315851D01*
X155194129Y-92427111D01*
X155067466Y-92567785D01*
X154972821Y-92731715D01*
X154972818Y-92731722D01*
X154914327Y-92911740D01*
X154914326Y-92911744D01*
X154894540Y-93100000D01*
X146171500Y-93100000D01*
X146105871Y-93027112D01*
X146105870Y-93027111D01*
X145952734Y-92915851D01*
X145952729Y-92915848D01*
X145779807Y-92838857D01*
X145779802Y-92838855D01*
X145634001Y-92807865D01*
X145594646Y-92799500D01*
X145405354Y-92799500D01*
X145372897Y-92806398D01*
X145220197Y-92838855D01*
X145220192Y-92838857D01*
X145047270Y-92915848D01*
X145047265Y-92915851D01*
X144979512Y-92965077D01*
X144913705Y-92988557D01*
X144845652Y-92972731D01*
X144814477Y-92947731D01*
X144782070Y-92911740D01*
X144705871Y-92827112D01*
X144705870Y-92827111D01*
X144552734Y-92715851D01*
X144552729Y-92715848D01*
X144379807Y-92638857D01*
X144379802Y-92638855D01*
X144234001Y-92607865D01*
X144194646Y-92599500D01*
X144005354Y-92599500D01*
X143972897Y-92606398D01*
X143820197Y-92638855D01*
X143820192Y-92638857D01*
X143647270Y-92715848D01*
X143647265Y-92715851D01*
X143494129Y-92827111D01*
X143367466Y-92967785D01*
X143272821Y-93131715D01*
X143272818Y-93131722D01*
X143214327Y-93311740D01*
X143214326Y-93311744D01*
X143194540Y-93500000D01*
X138000500Y-93500000D01*
X138000500Y-90600000D01*
X138494540Y-90600000D01*
X138514326Y-90788256D01*
X138514327Y-90788259D01*
X138572818Y-90968277D01*
X138572821Y-90968284D01*
X138667467Y-91132216D01*
X138794128Y-91272887D01*
X138794129Y-91272888D01*
X138947265Y-91384148D01*
X138947270Y-91384151D01*
X139120192Y-91461142D01*
X139120197Y-91461144D01*
X139305354Y-91500500D01*
X139305355Y-91500500D01*
X139494644Y-91500500D01*
X139494646Y-91500500D01*
X139679803Y-91461144D01*
X139852730Y-91384151D01*
X140005871Y-91272888D01*
X140132533Y-91132216D01*
X140227179Y-90968284D01*
X140285674Y-90788256D01*
X140305460Y-90600000D01*
X140285674Y-90411744D01*
X140231112Y-90243823D01*
X140227181Y-90231722D01*
X140227180Y-90231721D01*
X140227179Y-90231716D01*
X140132533Y-90067784D01*
X140005871Y-89927112D01*
X139969243Y-89900500D01*
X139852734Y-89815851D01*
X139852729Y-89815848D01*
X139679807Y-89738857D01*
X139679802Y-89738855D01*
X139534000Y-89707865D01*
X139494646Y-89699500D01*
X139305354Y-89699500D01*
X139272897Y-89706398D01*
X139120197Y-89738855D01*
X139120192Y-89738857D01*
X138947270Y-89815848D01*
X138947265Y-89815851D01*
X138794129Y-89927111D01*
X138667466Y-90067785D01*
X138572821Y-90231715D01*
X138572818Y-90231722D01*
X138514327Y-90411740D01*
X138514326Y-90411744D01*
X138494540Y-90600000D01*
X138000500Y-90600000D01*
X138000500Y-89002035D01*
X138000567Y-89000000D01*
X139894540Y-89000000D01*
X139914326Y-89188256D01*
X139914327Y-89188259D01*
X139972818Y-89368277D01*
X139972821Y-89368284D01*
X140067467Y-89532216D01*
X140194128Y-89672888D01*
X140194129Y-89672888D01*
X140347265Y-89784148D01*
X140347270Y-89784151D01*
X140520192Y-89861142D01*
X140520197Y-89861144D01*
X140705354Y-89900500D01*
X140705355Y-89900500D01*
X140894644Y-89900500D01*
X140894646Y-89900500D01*
X141079803Y-89861144D01*
X141252730Y-89784151D01*
X141405871Y-89672888D01*
X141532533Y-89532216D01*
X141608868Y-89400000D01*
X142494540Y-89400000D01*
X142514326Y-89588256D01*
X142514327Y-89588259D01*
X142572818Y-89768277D01*
X142572821Y-89768284D01*
X142667467Y-89932216D01*
X142735376Y-90007636D01*
X142794129Y-90072888D01*
X142947265Y-90184148D01*
X142947270Y-90184151D01*
X143120192Y-90261142D01*
X143120197Y-90261144D01*
X143305354Y-90300500D01*
X143305355Y-90300500D01*
X143494644Y-90300500D01*
X143494646Y-90300500D01*
X143679803Y-90261144D01*
X143852730Y-90184151D01*
X144005871Y-90072888D01*
X144132533Y-89932216D01*
X144227179Y-89768284D01*
X144285674Y-89588256D01*
X144305460Y-89400000D01*
X144285674Y-89211744D01*
X144227179Y-89031716D01*
X144132533Y-88867784D01*
X144005871Y-88727112D01*
X144005552Y-88726880D01*
X143852734Y-88615851D01*
X143852729Y-88615848D01*
X143679807Y-88538857D01*
X143679802Y-88538855D01*
X143534001Y-88507865D01*
X143494646Y-88499500D01*
X143305354Y-88499500D01*
X143272897Y-88506398D01*
X143120197Y-88538855D01*
X143120192Y-88538857D01*
X142947270Y-88615848D01*
X142947265Y-88615851D01*
X142794129Y-88727111D01*
X142667466Y-88867785D01*
X142572821Y-89031715D01*
X142572818Y-89031722D01*
X142514327Y-89211740D01*
X142514326Y-89211744D01*
X142494540Y-89400000D01*
X141608868Y-89400000D01*
X141627179Y-89368284D01*
X141685674Y-89188256D01*
X141705460Y-89000000D01*
X141685674Y-88811744D01*
X141627179Y-88631716D01*
X141532533Y-88467784D01*
X141405871Y-88327112D01*
X141405870Y-88327111D01*
X141252734Y-88215851D01*
X141252729Y-88215848D01*
X141079807Y-88138857D01*
X141079802Y-88138855D01*
X140934000Y-88107865D01*
X140894646Y-88099500D01*
X140705354Y-88099500D01*
X140672897Y-88106398D01*
X140520197Y-88138855D01*
X140520192Y-88138857D01*
X140347270Y-88215848D01*
X140347265Y-88215851D01*
X140194129Y-88327111D01*
X140067466Y-88467785D01*
X139972821Y-88631715D01*
X139972818Y-88631722D01*
X139918304Y-88799500D01*
X139914326Y-88811744D01*
X139894540Y-89000000D01*
X138000567Y-89000000D01*
X138000633Y-88997980D01*
X138002393Y-88971103D01*
X138005989Y-88916244D01*
X138018986Y-88734536D01*
X138020014Y-88726903D01*
X138043153Y-88610579D01*
X138044118Y-88606141D01*
X138074533Y-88466323D01*
X138076392Y-88459625D01*
X138116815Y-88340543D01*
X138166159Y-88208251D01*
X138168633Y-88202520D01*
X138225583Y-88087036D01*
X138292179Y-87965076D01*
X138295019Y-87960384D01*
X138366563Y-87853311D01*
X138368428Y-87850676D01*
X138450291Y-87741321D01*
X138453244Y-87737678D01*
X138538503Y-87640459D01*
X138541198Y-87637581D01*
X138637581Y-87541198D01*
X138640459Y-87538503D01*
X138737678Y-87453244D01*
X138741321Y-87450291D01*
X138850676Y-87368428D01*
X138853311Y-87366563D01*
X138960384Y-87295019D01*
X138965076Y-87292179D01*
X139087036Y-87225583D01*
X139202520Y-87168633D01*
X139208251Y-87166159D01*
X139340543Y-87116815D01*
X139459625Y-87076392D01*
X139466323Y-87074533D01*
X139610548Y-87043158D01*
X139726903Y-87020014D01*
X139734536Y-87018986D01*
X139916244Y-87005989D01*
X139969211Y-87002517D01*
X139997981Y-87000633D01*
X140002036Y-87000500D01*
X140968299Y-87000500D01*
X140973139Y-87001921D01*
X140990801Y-87000658D01*
X140995225Y-87000500D01*
X141131113Y-87000500D01*
X141131120Y-87000500D01*
X141277255Y-86981260D01*
X141277563Y-86981308D01*
X141279643Y-86980946D01*
X141293580Y-86979111D01*
X141297227Y-86978741D01*
X141372616Y-86973349D01*
X141387327Y-86968036D01*
X141387134Y-86967062D01*
X141391108Y-86966271D01*
X141391107Y-86966271D01*
X141391116Y-86966270D01*
X141552542Y-86923016D01*
X141553031Y-86923027D01*
X141555784Y-86922147D01*
X141583970Y-86914595D01*
X141586782Y-86913913D01*
X141636064Y-86903192D01*
X141642967Y-86898999D01*
X141644415Y-86898398D01*
X141644419Y-86898398D01*
X141813320Y-86828436D01*
X141814359Y-86828324D01*
X141819310Y-86825955D01*
X141863410Y-86807689D01*
X141877433Y-86801881D01*
X141891095Y-86796784D01*
X141896642Y-86792300D01*
X142057459Y-86699453D01*
X142059210Y-86699028D01*
X142059671Y-86698684D01*
X142065828Y-86694621D01*
X142113803Y-86666924D01*
X142116013Y-86665228D01*
X142128388Y-86657170D01*
X142133333Y-86651937D01*
X142201018Y-86600000D01*
X144794540Y-86600000D01*
X144814326Y-86788256D01*
X144814327Y-86788259D01*
X144872818Y-86968277D01*
X144872821Y-86968284D01*
X144967467Y-87132216D01*
X145051531Y-87225578D01*
X145094129Y-87272888D01*
X145247265Y-87384148D01*
X145247270Y-87384151D01*
X145420192Y-87461142D01*
X145420197Y-87461144D01*
X145605354Y-87500500D01*
X145605355Y-87500500D01*
X145794644Y-87500500D01*
X145794646Y-87500500D01*
X145865798Y-87485376D01*
X145935464Y-87490692D01*
X145991198Y-87532829D01*
X146010519Y-87582425D01*
X146012976Y-87581903D01*
X146014326Y-87588257D01*
X146072818Y-87768277D01*
X146072821Y-87768284D01*
X146167467Y-87932216D01*
X146294129Y-88072888D01*
X146447265Y-88184148D01*
X146447270Y-88184151D01*
X146620192Y-88261142D01*
X146620197Y-88261144D01*
X146805354Y-88300500D01*
X146805355Y-88300500D01*
X146994644Y-88300500D01*
X146994646Y-88300500D01*
X147179803Y-88261144D01*
X147352730Y-88184151D01*
X147505871Y-88072888D01*
X147632533Y-87932216D01*
X147635088Y-87927789D01*
X147685648Y-87879571D01*
X147754254Y-87866340D01*
X147819121Y-87892301D01*
X147834630Y-87906808D01*
X147894129Y-87972888D01*
X148047265Y-88084148D01*
X148047270Y-88084151D01*
X148220192Y-88161142D01*
X148220197Y-88161144D01*
X148405354Y-88200500D01*
X148405355Y-88200500D01*
X148594644Y-88200500D01*
X148594646Y-88200500D01*
X148779803Y-88161144D01*
X148952730Y-88084151D01*
X149105871Y-87972888D01*
X149232533Y-87832216D01*
X149327179Y-87668284D01*
X149385674Y-87488256D01*
X149405460Y-87300000D01*
X149385674Y-87111744D01*
X149327179Y-86931716D01*
X149232533Y-86767784D01*
X149105871Y-86627112D01*
X149090369Y-86615849D01*
X148952734Y-86515851D01*
X148952729Y-86515848D01*
X148779807Y-86438857D01*
X148779802Y-86438855D01*
X148634000Y-86407865D01*
X148594646Y-86399500D01*
X148405354Y-86399500D01*
X148372897Y-86406398D01*
X148220197Y-86438855D01*
X148220192Y-86438857D01*
X148047270Y-86515848D01*
X148047265Y-86515851D01*
X147894129Y-86627111D01*
X147767467Y-86767783D01*
X147764906Y-86772220D01*
X147714338Y-86820435D01*
X147645731Y-86833657D01*
X147580866Y-86807689D01*
X147565369Y-86793191D01*
X147505870Y-86727111D01*
X147352734Y-86615851D01*
X147352729Y-86615848D01*
X147179807Y-86538857D01*
X147179802Y-86538855D01*
X147031253Y-86507281D01*
X146994646Y-86499500D01*
X146805354Y-86499500D01*
X146734200Y-86514623D01*
X146664535Y-86509307D01*
X146608802Y-86467169D01*
X146589507Y-86417578D01*
X146587027Y-86418106D01*
X146585675Y-86411747D01*
X146527181Y-86231722D01*
X146527180Y-86231721D01*
X146527179Y-86231716D01*
X146432533Y-86067784D01*
X146305871Y-85927112D01*
X146263934Y-85896643D01*
X146152734Y-85815851D01*
X146152729Y-85815848D01*
X145979807Y-85738857D01*
X145979802Y-85738855D01*
X145834001Y-85707865D01*
X145794646Y-85699500D01*
X145605354Y-85699500D01*
X145572897Y-85706398D01*
X145420197Y-85738855D01*
X145420192Y-85738857D01*
X145247270Y-85815848D01*
X145247265Y-85815851D01*
X145094129Y-85927111D01*
X144967466Y-86067785D01*
X144872821Y-86231715D01*
X144872818Y-86231722D01*
X144835449Y-86346733D01*
X144814326Y-86411744D01*
X144794540Y-86600000D01*
X142201018Y-86600000D01*
X142281143Y-86538517D01*
X142283681Y-86537536D01*
X142284958Y-86536260D01*
X142291047Y-86530918D01*
X142321851Y-86507282D01*
X142334927Y-86494205D01*
X142345141Y-86485354D01*
X142348630Y-86480503D01*
X142480503Y-86348630D01*
X142483975Y-86346733D01*
X142494206Y-86334927D01*
X142507276Y-86321857D01*
X142507276Y-86321856D01*
X142507282Y-86321851D01*
X142530918Y-86291047D01*
X142536260Y-86284958D01*
X142536744Y-86284473D01*
X142538516Y-86281145D01*
X142651937Y-86133334D01*
X142655774Y-86130532D01*
X142665228Y-86116013D01*
X142666924Y-86113803D01*
X142694621Y-86065828D01*
X142698565Y-86059849D01*
X142699452Y-86057461D01*
X142792300Y-85896643D01*
X142796048Y-85893070D01*
X142801881Y-85877433D01*
X142812865Y-85850912D01*
X142825955Y-85819310D01*
X142828092Y-85814845D01*
X142828435Y-85813322D01*
X142898398Y-85644419D01*
X142898398Y-85644415D01*
X142898999Y-85642967D01*
X142902686Y-85638391D01*
X142913913Y-85586782D01*
X142914595Y-85583970D01*
X142922147Y-85555784D01*
X142922951Y-85553270D01*
X142923015Y-85552545D01*
X142966270Y-85391116D01*
X142966271Y-85391107D01*
X142967062Y-85387134D01*
X142968448Y-85387409D01*
X142973033Y-85377037D01*
X142978741Y-85297227D01*
X142979114Y-85293555D01*
X142980946Y-85279643D01*
X142981281Y-85277720D01*
X142981260Y-85277256D01*
X143000500Y-85131120D01*
X143000500Y-85000000D01*
X143000500Y-84999500D01*
X143000500Y-84995223D01*
X143000658Y-84990800D01*
X143001768Y-84975276D01*
X143000500Y-84968298D01*
X143000500Y-83800000D01*
X147194540Y-83800000D01*
X147214326Y-83988256D01*
X147214327Y-83988259D01*
X147272818Y-84168277D01*
X147272821Y-84168284D01*
X147367467Y-84332216D01*
X147494129Y-84472888D01*
X147647265Y-84584148D01*
X147647270Y-84584151D01*
X147820192Y-84661142D01*
X147820197Y-84661144D01*
X148005354Y-84700500D01*
X148005355Y-84700500D01*
X148194644Y-84700500D01*
X148194646Y-84700500D01*
X148379803Y-84661144D01*
X148552730Y-84584151D01*
X148705871Y-84472888D01*
X148832533Y-84332216D01*
X148927179Y-84168284D01*
X148985674Y-83988256D01*
X149005460Y-83800000D01*
X148985674Y-83611744D01*
X148927179Y-83431716D01*
X148832533Y-83267784D01*
X148705871Y-83127112D01*
X148705870Y-83127111D01*
X148552734Y-83015851D01*
X148552729Y-83015848D01*
X148379807Y-82938857D01*
X148379802Y-82938855D01*
X148234000Y-82907865D01*
X148194646Y-82899500D01*
X148005354Y-82899500D01*
X147972897Y-82906398D01*
X147820197Y-82938855D01*
X147820192Y-82938857D01*
X147647270Y-83015848D01*
X147647265Y-83015851D01*
X147494129Y-83127111D01*
X147367466Y-83267785D01*
X147272821Y-83431715D01*
X147272818Y-83431722D01*
X147214327Y-83611740D01*
X147214326Y-83611744D01*
X147194540Y-83800000D01*
X143000500Y-83800000D01*
X143000500Y-81769811D01*
X143020185Y-81702772D01*
X143072989Y-81657017D01*
X143142147Y-81647073D01*
X143205703Y-81676098D01*
X143216650Y-81686839D01*
X143294129Y-81772888D01*
X143447265Y-81884148D01*
X143447270Y-81884151D01*
X143620192Y-81961142D01*
X143620197Y-81961144D01*
X143805354Y-82000500D01*
X143805355Y-82000500D01*
X143994644Y-82000500D01*
X143994646Y-82000500D01*
X144179803Y-81961144D01*
X144352730Y-81884151D01*
X144505871Y-81772888D01*
X144632533Y-81632216D01*
X144727179Y-81468284D01*
X144785674Y-81288256D01*
X144805460Y-81100000D01*
X144785674Y-80911744D01*
X144727179Y-80731716D01*
X144632533Y-80567784D01*
X144505871Y-80427112D01*
X144450440Y-80386839D01*
X144352734Y-80315851D01*
X144352729Y-80315848D01*
X144179807Y-80238857D01*
X144179802Y-80238855D01*
X144034000Y-80207865D01*
X143994646Y-80199500D01*
X143805354Y-80199500D01*
X143772897Y-80206398D01*
X143620197Y-80238855D01*
X143620192Y-80238857D01*
X143447270Y-80315848D01*
X143447265Y-80315851D01*
X143294129Y-80427111D01*
X143294128Y-80427112D01*
X143216649Y-80513161D01*
X143157163Y-80549809D01*
X143087306Y-80548478D01*
X143029258Y-80509591D01*
X143001448Y-80445494D01*
X143000500Y-80430188D01*
X143000500Y-79002704D01*
X143000736Y-78997298D01*
X143004482Y-78954479D01*
X143016918Y-78828221D01*
X143020542Y-78808309D01*
X143038402Y-78741653D01*
X143066683Y-78648424D01*
X143072953Y-78632037D01*
X143104420Y-78564558D01*
X143105872Y-78561653D01*
X143150764Y-78477666D01*
X143154657Y-78471331D01*
X143187837Y-78423945D01*
X143200994Y-78405155D01*
X143203827Y-78401420D01*
X143263122Y-78329168D01*
X143267162Y-78324710D01*
X143324710Y-78267162D01*
X143329168Y-78263122D01*
X143401420Y-78203827D01*
X143405155Y-78200994D01*
X143471334Y-78154654D01*
X143477666Y-78150764D01*
X143561653Y-78105872D01*
X143564558Y-78104420D01*
X143632037Y-78072953D01*
X143648424Y-78066683D01*
X143741653Y-78038402D01*
X143808309Y-78020542D01*
X143828223Y-78016918D01*
X143954542Y-78004477D01*
X143997305Y-78000735D01*
X144002706Y-78000500D01*
X151997293Y-78000500D01*
X152002695Y-78000735D01*
G37*
%TD.AperFunction*%
%TD*%
M02*
